STARTFONT 2.1
COMMENT
COMMENT Converted from OpenType font "RuthlessSketch_Regular.ttf" by "otf2bdf 3.0".
COMMENT
FONT -FreeType-Ruthless Sketch-Medium-R-Normal--28-200-100-100-P-141-ISO10646-1
SIZE 20 100 100
FONTBOUNDINGBOX 33 30 -13 -5
STARTPROPERTIES 19
FOUNDRY "FreeType"
FAMILY_NAME "Ruthless Sketch"
WEIGHT_NAME "Medium"
SLANT "R"
SETWIDTH_NAME "Normal"
ADD_STYLE_NAME ""
PIXEL_SIZE 28
POINT_SIZE 200
RESOLUTION_X 100
RESOLUTION_Y 100
SPACING "P"
AVERAGE_WIDTH 141
CHARSET_REGISTRY "ISO10646"
CHARSET_ENCODING "1"
FONT_ASCENT 26
FONT_DESCENT 5
COPYRIGHT "© 2024 GGBotNet. All Rights Reserved."
_OTF_FONTFILE "RuthlessSketch_Regular.ttf"
_OTF_PSNAME "RuthlessSketch-Regular"
ENDPROPERTIES
CHARS 1105
STARTCHAR 0020
ENCODING 32
SWIDTH 288 0
DWIDTH 8 0
BBX 0 0 0 0
BITMAP
ENDCHAR
STARTCHAR 0021
ENCODING 33
SWIDTH 288 0
DWIDTH 8 0
BBX 8 21 0 0
BITMAP
06
FF
FE
7E
7E
7E
7E
7E
7C
7C
7C
3C
3C
3C
10
00
1C
3C
3E
3E
3C
ENDCHAR
STARTCHAR 0022
ENCODING 34
SWIDTH 396 0
DWIDTH 11 0
BBX 11 10 0 10
BITMAP
71C0
7BE0
F3E0
F9C0
71C0
71C0
71C0
71C0
30C0
2080
ENDCHAR
STARTCHAR 0023
ENCODING 35
SWIDTH 504 0
DWIDTH 14 0
BBX 14 19 0 1
BITMAP
071C
0718
0738
0F38
0FFC
7FFC
7FFC
7FFC
1C60
1CE0
7FFC
FFFC
7FFC
7FFC
31C0
31C0
73C0
6380
2380
ENDCHAR
STARTCHAR 0024
ENCODING 36
SWIDTH 504 0
DWIDTH 14 0
BBX 14 26 0 -3
BITMAP
0380
0780
0780
0780
0FE0
1FF8
3FFC
7FFC
7FF8
7F80
7F80
3F80
3FE0
0FF0
07F0
07F8
7FF8
7FF8
7FF0
7FF0
7FE0
FFE0
3F80
0780
0780
0780
ENDCHAR
STARTCHAR 0025
ENCODING 37
SWIDTH 540 0
DWIDTH 15 0
BBX 15 19 0 0
BITMAP
101C
3C1C
7E38
6638
E670
66F0
7EE0
7DE0
11C0
0398
07BC
077E
0F66
0E66
1C66
3C7E
383C
7000
3000
ENDCHAR
STARTCHAR 0026
ENCODING 38
SWIDTH 504 0
DWIDTH 14 0
BBX 14 19 0 0
BITMAP
1F00
3F80
7F80
7380
7B80
3F80
3F00
3F38
7FB8
7FF8
73F8
71F0
F0F0
F8F8
7FFC
7FFC
3FEC
1FC4
0204
ENDCHAR
STARTCHAR 0027
ENCODING 39
SWIDTH 180 0
DWIDTH 5 0
BBX 5 10 0 10
BITMAP
78
F8
78
F8
F8
78
78
70
30
30
ENDCHAR
STARTCHAR 0028
ENCODING 40
SWIDTH 324 0
DWIDTH 9 0
BBX 9 26 0 -3
BITMAP
0700
0780
0F00
1E00
3C00
3C00
7800
7800
7000
F000
F000
7000
7000
7000
7000
F000
7000
7000
7800
3800
3C00
1C00
0F00
0F80
0780
0300
ENDCHAR
STARTCHAR 0029
ENCODING 41
SWIDTH 324 0
DWIDTH 9 0
BBX 8 26 1 -4
BITMAP
60
F0
78
3C
1C
1E
0E
0F
07
07
07
07
07
07
07
07
07
0F
0E
1E
1E
3C
78
F8
F0
60
ENDCHAR
STARTCHAR 002A
ENCODING 42
SWIDTH 324 0
DWIDTH 9 0
BBX 7 8 1 12
BITMAP
10
D6
7E
38
7C
D6
92
10
ENDCHAR
STARTCHAR 002B
ENCODING 43
SWIDTH 468 0
DWIDTH 13 0
BBX 13 12 0 4
BITMAP
0780
0780
0780
0780
7FF8
7FF8
7FF8
FFF8
0780
0780
0780
0780
ENDCHAR
STARTCHAR 002C
ENCODING 44
SWIDTH 180 0
DWIDTH 5 0
BBX 6 9 -1 -5
BITMAP
18
3C
3C
3C
3C
18
78
F0
70
ENDCHAR
STARTCHAR 002D
ENCODING 45
SWIDTH 360 0
DWIDTH 10 0
BBX 10 4 0 8
BITMAP
FFC0
FFC0
FFC0
FFC0
ENDCHAR
STARTCHAR 002E
ENCODING 46
SWIDTH 180 0
DWIDTH 5 0
BBX 5 5 0 0
BITMAP
30
78
F8
F8
78
ENDCHAR
STARTCHAR 002F
ENCODING 47
SWIDTH 432 0
DWIDTH 12 0
BBX 12 22 0 -2
BITMAP
0040
00F0
00F0
01E0
01E0
03E0
03C0
03C0
07C0
0780
0F80
0F80
1F00
1F00
1F00
3E00
3E00
3E00
7C00
7C00
7C00
F800
ENDCHAR
STARTCHAR 0030
ENCODING 48
SWIDTH 396 0
DWIDTH 11 0
BBX 11 19 0 1
BITMAP
1E00
3E00
7F00
7F80
7FC0
7FC0
79C0
79E0
F9E0
F9E0
F9E0
7BE0
7FE0
7FC0
3FC0
3FC0
1FC0
1F80
0700
ENDCHAR
STARTCHAR 0031
ENCODING 49
SWIDTH 396 0
DWIDTH 11 0
BBX 10 18 1 1
BITMAP
0700
1F80
3F80
FF80
FF80
7F80
2F80
0F80
0F80
0F80
1F80
1F80
1F80
1FC0
1FC0
1FC0
1FC0
1FC0
ENDCHAR
STARTCHAR 0032
ENCODING 50
SWIDTH 504 0
DWIDTH 14 0
BBX 14 19 0 0
BITMAP
1F00
3FC0
7FE0
FFE0
7BE0
31E0
01E0
01C0
03C0
03C0
0780
07FC
0FFC
0FF8
1FF8
1FF8
7FF8
3FE0
0700
ENDCHAR
STARTCHAR 0033
ENCODING 51
SWIDTH 468 0
DWIDTH 13 0
BBX 13 19 0 0
BITMAP
1F00
7F80
7F80
1700
0F00
0F00
1F00
3FE0
3FE0
3FF0
00F0
0070
0078
0078
00F0
FFF0
7FE0
3FE0
0F80
ENDCHAR
STARTCHAR 0034
ENCODING 52
SWIDTH 432 0
DWIDTH 12 0
BBX 12 19 0 0
BITMAP
0E00
1E00
1E00
1C00
3C00
3C00
3C00
3FF0
7FF0
7FF0
7FF0
E380
0380
0780
0780
0780
0F80
0FC0
0FC0
ENDCHAR
STARTCHAR 0035
ENCODING 53
SWIDTH 468 0
DWIDTH 13 0
BBX 13 19 0 0
BITMAP
0FF0
1FF0
1FE0
1E00
1E00
1F00
3FC0
3FE0
2FF0
01F0
00F8
00F8
00F8
00F8
C0F8
7BF0
7FF0
3FE0
0FC0
ENDCHAR
STARTCHAR 0036
ENCODING 54
SWIDTH 468 0
DWIDTH 13 0
BBX 13 20 0 -1
BITMAP
01E0
07F0
0FF0
1F00
3C00
3C00
7C00
7F80
7FE0
7FF0
FFF8
F878
7878
7878
7878
78F8
3FF8
3FF0
0FE0
0700
ENDCHAR
STARTCHAR 0037
ENCODING 55
SWIDTH 396 0
DWIDTH 11 0
BBX 10 18 1 1
BITMAP
7FC0
FFC0
FFC0
FFC0
FFC0
83C0
07C0
0FC0
0F80
1F80
1F80
3F00
3F00
7F00
7F00
FE00
FE00
F800
ENDCHAR
STARTCHAR 0038
ENCODING 56
SWIDTH 468 0
DWIDTH 13 0
BBX 14 20 0 0
BITMAP
0200
0FC0
1FC0
3FE0
3CE0
3DC0
1FC0
1FC0
3FE0
3FF0
7DF0
78F8
7878
F878
7C78
7FFC
7FF8
3FF8
1FF0
07C0
ENDCHAR
STARTCHAR 0039
ENCODING 57
SWIDTH 432 0
DWIDTH 12 0
BBX 12 19 0 0
BITMAP
0700
3FE0
7FF0
7DF0
78F0
78F0
F8F0
79F0
7FF0
3FF0
1FF0
0070
0070
40F0
71F0
7FF0
3FE0
3FE0
0780
ENDCHAR
STARTCHAR 003A
ENCODING 58
SWIDTH 180 0
DWIDTH 5 0
BBX 5 14 0 0
BITMAP
30
78
F8
F8
78
00
00
00
00
30
78
F8
78
78
ENDCHAR
STARTCHAR 003B
ENCODING 59
SWIDTH 180 0
DWIDTH 5 0
BBX 6 18 -1 -5
BITMAP
18
3C
3C
7C
3C
00
00
00
00
18
3C
3C
3C
3C
18
78
F0
70
ENDCHAR
STARTCHAR 003C
ENCODING 60
SWIDTH 468 0
DWIDTH 13 0
BBX 13 15 0 3
BITMAP
0038
00F8
03F8
0FF8
3FF8
7FF0
FE00
FC00
7FC0
3FF8
0FF0
07F0
01F8
00F8
0038
ENDCHAR
STARTCHAR 003D
ENCODING 61
SWIDTH 468 0
DWIDTH 13 0
BBX 13 10 0 5
BITMAP
17F8
7FF8
7FF8
7FF8
0000
0000
0FF8
FFF8
FFF8
7FF8
ENDCHAR
STARTCHAR 003E
ENCODING 62
SWIDTH 468 0
DWIDTH 13 0
BBX 13 15 0 2
BITMAP
F000
7C00
7E00
7F80
7FC0
3FF0
07F8
00F8
07F8
7FF8
7FC0
FF00
FC00
7000
4000
ENDCHAR
STARTCHAR 003F
ENCODING 63
SWIDTH 432 0
DWIDTH 12 0
BBX 13 20 0 0
BITMAP
1F80
3FF0
7FF0
7FF0
F9F0
60F8
00F0
00F0
03F0
0FE0
1FC0
1F00
1F00
0F00
0000
0000
0F00
1F00
1F00
0E00
ENDCHAR
STARTCHAR 0040
ENCODING 64
SWIDTH 648 0
DWIDTH 18 0
BBX 18 24 0 -4
BITMAP
03F800
0FFE00
1FFF00
3FFF00
3FFF80
7F0F80
7C0780
7C3FC0
78FFC0
F9FFC0
F9E3C0
F9C3C0
F9C3C0
79E7C0
79FF80
78FF00
7C7E00
7C0000
7E0200
7FFF00
3FFF80
3FFF00
1FFE00
07F800
ENDCHAR
STARTCHAR 0041
ENCODING 65
SWIDTH 612 0
DWIDTH 17 0
BBX 16 20 1 -1
BITMAP
00C0
01C0
03C0
03E0
03E0
07E0
07E0
07F0
0FF0
0FF0
1DF8
1CF8
38F8
3FFC
7FFC
7CFE
78FE
F87E
F87F
C000
ENDCHAR
STARTCHAR 0042
ENCODING 66
SWIDTH 504 0
DWIDTH 14 0
BBX 14 19 0 0
BITMAP
3F80
7FC0
FFE0
7FE0
7DF0
7CF0
7CE0
7CE0
7FC0
3FF0
3FF8
3E78
3E7C
3E7C
3EFC
3FFC
3FF0
3FF0
1F00
ENDCHAR
STARTCHAR 0043
ENCODING 67
SWIDTH 468 0
DWIDTH 13 0
BBX 13 19 0 0
BITMAP
03C0
0FF0
3FF8
3FF8
7FF8
7FC0
7E00
7C00
FC00
7C00
FE08
7FF8
7FF8
7FF8
7FF8
3FF8
3FF0
1FE0
0180
ENDCHAR
STARTCHAR 0044
ENCODING 68
SWIDTH 432 0
DWIDTH 12 0
BBX 12 19 0 0
BITMAP
7C00
FF80
FFC0
FFE0
FFE0
7DF0
7C70
7C70
7C70
7CF0
7DF0
7FE0
3FE0
3FC0
3FC0
3F80
3F00
1C00
1000
ENDCHAR
STARTCHAR 0045
ENCODING 69
SWIDTH 468 0
DWIDTH 13 0
BBX 13 19 0 0
BITMAP
7FE0
FFC0
7FC0
7FC0
7FC0
3F00
3C00
3E40
3FC0
3FC0
3F00
1E00
1FF0
1FF8
1FF8
1FF8
1FF8
1FE0
0E00
ENDCHAR
STARTCHAR 0046
ENCODING 70
SWIDTH 504 0
DWIDTH 14 0
BBX 14 20 0 0
BITMAP
0060
3FF8
FFF8
FFF8
FFFC
FC00
FC00
FC00
7F80
7F00
7F80
FE80
7800
F800
F800
7800
7800
7C00
7C00
7800
ENDCHAR
STARTCHAR 0047
ENCODING 71
SWIDTH 504 0
DWIDTH 14 0
BBX 14 19 0 0
BITMAP
07E0
0FF0
0FF8
1FF8
3E30
3C00
3800
7800
78FC
79F8
78F8
78F8
78F8
FFF8
FFF8
7FF8
7FE0
3F80
0C00
ENDCHAR
STARTCHAR 0048
ENCODING 72
SWIDTH 540 0
DWIDTH 15 0
BBX 14 19 1 0
BITMAP
1E00
7E3C
7E7C
7E7C
7E7C
7E7C
7E7C
7FFC
7FFC
7FFC
7FFC
FFFC
FFFC
FCFC
FCFC
FCFC
FCF8
FCF8
1880
ENDCHAR
STARTCHAR 0049
ENCODING 73
SWIDTH 324 0
DWIDTH 9 0
BBX 9 19 0 0
BITMAP
1E00
3F80
1F00
3F00
3F00
3F00
3F00
3F00
3F00
3F00
3F00
3F00
3F00
3F00
3F00
3F00
7E00
7E00
F000
ENDCHAR
STARTCHAR 004A
ENCODING 74
SWIDTH 432 0
DWIDTH 12 0
BBX 12 19 0 0
BITMAP
03F0
03F0
03F0
07F0
07F0
07F0
07F0
07F0
07F0
07F0
03F0
03F0
03F0
FBF0
7BF0
7FE0
7FE0
3FC0
0F80
ENDCHAR
STARTCHAR 004B
ENCODING 75
SWIDTH 540 0
DWIDTH 15 0
BBX 15 19 0 0
BITMAP
7F18
7F3C
7F7E
7F7C
7FF8
7FF0
7FF0
7FE0
7FE0
7FC0
FFC0
FFE0
FFF0
FFF8
FF78
FF7C
7F3E
7F3E
7E10
ENDCHAR
STARTCHAR 004C
ENCODING 76
SWIDTH 504 0
DWIDTH 14 0
BBX 13 19 1 0
BITMAP
1F80
3F80
3F80
3F80
3F80
7F00
7F00
7F00
7F00
7F00
7F00
7E00
FE00
FFF0
FFF0
FFF0
FFF0
FFF8
FFE0
ENDCHAR
STARTCHAR 004D
ENCODING 77
SWIDTH 648 0
DWIDTH 18 0
BBX 17 19 1 0
BITMAP
200400
300C00
381E00
3C1E00
3C3E00
7E3E00
7E7E00
7FFE00
7FFE00
7FFE00
7FFF00
FCFF00
FCBF00
FC3F00
F83F00
F83F00
F83F00
F03F80
F00000
ENDCHAR
STARTCHAR 004E
ENCODING 78
SWIDTH 540 0
DWIDTH 15 0
BBX 14 19 1 0
BITMAP
1018
7E7C
7E7C
7E7C
7E7C
7E7C
FE7C
FF7C
FF7C
FF78
FFF8
FBF8
FBF8
FBF8
F9F8
F9F8
F9F8
F9F8
E020
ENDCHAR
STARTCHAR 004F
ENCODING 79
SWIDTH 504 0
DWIDTH 14 0
BBX 15 19 0 0
BITMAP
0F00
1FC0
1FE0
3FF0
3FF8
7FF8
7FFC
7C7C
7C7C
FC7C
7C7E
7EFC
7FFC
7FFC
7FFC
3FFC
3FF8
1FF0
07E0
ENDCHAR
STARTCHAR 0050
ENCODING 80
SWIDTH 468 0
DWIDTH 13 0
BBX 13 19 0 0
BITMAP
1F80
3FE0
7FF0
7FF0
7CF8
7C78
7C78
7E78
7EF8
7FF8
7FF0
7FC0
7E00
7E00
FE00
FE00
FE00
FF00
7F00
ENDCHAR
STARTCHAR 0051
ENCODING 81
SWIDTH 612 0
DWIDTH 17 0
BBX 17 20 0 -1
BITMAP
0F8000
1FE000
3FF000
3FF800
7FF800
7CFC00
7C7C00
7C3C00
7C3C00
FC3C00
FC3C00
FFFC00
7FFC00
7FF800
7FF800
3FFC00
1FFE00
0FFF00
013F80
003E00
ENDCHAR
STARTCHAR 0052
ENCODING 82
SWIDTH 576 0
DWIDTH 16 0
BBX 16 19 0 0
BITMAP
0F80
7FE0
FFF8
7E78
7E38
7E3C
7E3C
7F78
7FF8
7FF0
7FE0
7FF0
7FF8
7F78
7F7C
7F3C
7F3E
3F1F
3F1E
ENDCHAR
STARTCHAR 0053
ENCODING 83
SWIDTH 504 0
DWIDTH 14 0
BBX 14 19 0 0
BITMAP
0FFC
1FF8
1FF8
3FF0
3FF0
7FE0
7FE0
7C20
3F00
3FC0
1FF0
03F0
00F8
60F8
7FF8
FFF8
FFF0
7FE0
1FC0
ENDCHAR
STARTCHAR 0054
ENCODING 84
SWIDTH 576 0
DWIDTH 16 0
BBX 16 19 0 0
BITMAP
3FFC
7FFE
7FFE
7FFE
7FFF
FFF8
63E0
03C0
03C0
03C0
03C0
03C0
03C0
03C0
03C0
03C0
03C0
03C0
03C0
ENDCHAR
STARTCHAR 0055
ENCODING 85
SWIDTH 540 0
DWIDTH 15 0
BBX 15 18 0 1
BITMAP
3C3C
3C3E
3C1E
7C3E
7C3E
7C3E
7C3E
7C3E
7C3E
FC3E
7E7E
7FFC
7FFC
7FFC
7FF8
3FF0
3FF0
0FE0
ENDCHAR
STARTCHAR 0056
ENCODING 86
SWIDTH 576 0
DWIDTH 16 0
BBX 16 17 0 1
BITMAP
F03F
7E3F
3F3F
3F3F
3F3E
1FBE
1FBE
0FBE
0FFC
07FC
07FC
03FC
03FC
01F8
00F8
00F8
0078
ENDCHAR
STARTCHAR 0057
ENCODING 87
SWIDTH 720 0
DWIDTH 20 0
BBX 20 19 0 0
BITMAP
7801C0
7C61F0
FC73E0
7C73E0
7E73E0
7E77C0
3F7FC0
3F7FC0
3FFFC0
1FFFC0
1FFFC0
0FFF80
0FEF80
07CF80
07CF80
038F80
038780
018700
008000
ENDCHAR
STARTCHAR 0058
ENCODING 88
SWIDTH 576 0
DWIDTH 16 0
BBX 16 18 0 0
BITMAP
001E
7C1F
FC3E
7E3E
7E7C
7F7C
3FF8
1FF8
0FF8
0FF0
07F0
0FF0
0FF0
1FF8
1F78
3E7C
3E3C
3E10
ENDCHAR
STARTCHAR 0059
ENCODING 89
SWIDTH 612 0
DWIDTH 17 0
BBX 16 19 1 0
BITMAP
001F
F01E
F83E
F83C
FC7C
7C78
7EF8
3EF0
3FF0
1FE0
1FE0
0FC0
07C0
07C0
07C0
07C0
07C0
07C0
03C0
ENDCHAR
STARTCHAR 005A
ENCODING 90
SWIDTH 576 0
DWIDTH 16 0
BBX 16 19 0 0
BITMAP
07FC
3FF8
7FF8
7FF0
FFF0
01E0
03E0
03C0
03C0
07C0
0780
0780
0F80
0F00
0FFF
1FFF
1FFF
03FE
00F0
ENDCHAR
STARTCHAR 005B
ENCODING 91
SWIDTH 324 0
DWIDTH 9 0
BBX 9 26 0 -3
BITMAP
7F80
7F80
7F80
7800
7800
7800
7800
7800
7800
7800
7800
7800
7800
7800
7800
7800
7800
7800
7800
7800
F800
F800
7F80
FF80
FF80
7F80
ENDCHAR
STARTCHAR 005C
ENCODING 92
SWIDTH 432 0
DWIDTH 12 0
BBX 11 23 1 -2
BITMAP
F000
F800
F800
F800
FC00
7C00
7C00
7C00
3E00
3E00
1E00
1F00
1F00
0F00
0F80
0780
0780
07C0
03C0
03C0
01E0
01E0
0080
ENDCHAR
STARTCHAR 005D
ENCODING 93
SWIDTH 324 0
DWIDTH 9 0
BBX 9 27 0 -4
BITMAP
0300
FF80
7F80
FF80
6780
0780
0780
0780
0780
0780
0780
0780
0780
0780
0780
0780
0780
0780
0780
0780
0780
0780
0780
7F80
FF80
FF80
7F80
ENDCHAR
STARTCHAR 005E
ENCODING 94
SWIDTH 468 0
DWIDTH 13 0
BBX 13 11 0 9
BITMAP
0380
0780
0FC0
0FC0
1FE0
3FE0
3CE0
7CF0
7CF0
7CF8
F8F8
ENDCHAR
STARTCHAR 005F
ENCODING 95
SWIDTH 360 0
DWIDTH 10 0
BBX 10 3 0 -3
BITMAP
FFC0
FFC0
7FC0
ENDCHAR
STARTCHAR 0060
ENCODING 96
SWIDTH 216 0
DWIDTH 6 0
BBX 6 4 0 20
BITMAP
F0
78
3C
1C
ENDCHAR
STARTCHAR 0061
ENCODING 97
SWIDTH 612 0
DWIDTH 17 0
BBX 16 20 1 -1
BITMAP
00C0
01C0
03C0
03E0
03E0
07E0
07E0
07F0
0FF0
0FF0
1DF8
1CF8
38F8
3FFC
7FFC
7CFE
78FE
F87E
F87F
C000
ENDCHAR
STARTCHAR 0062
ENCODING 98
SWIDTH 504 0
DWIDTH 14 0
BBX 14 19 0 0
BITMAP
3F80
7FC0
FFE0
7FE0
7DF0
7CF0
7CE0
7CE0
7FC0
3FF0
3FF8
3E78
3E7C
3E7C
3EFC
3FFC
3FF0
3FF0
1F00
ENDCHAR
STARTCHAR 0063
ENCODING 99
SWIDTH 468 0
DWIDTH 13 0
BBX 13 19 0 0
BITMAP
03C0
0FF0
3FF8
3FF8
7FF8
7FC0
7E00
7C00
FC00
7C00
FE08
7FF8
7FF8
7FF8
7FF8
3FF8
3FF0
1FE0
0180
ENDCHAR
STARTCHAR 0064
ENCODING 100
SWIDTH 432 0
DWIDTH 12 0
BBX 12 19 0 0
BITMAP
7C00
FF80
FFC0
FFE0
FFE0
7DF0
7C70
7C70
7C70
7CF0
7DF0
7FE0
3FE0
3FC0
3FC0
3F80
3F00
1C00
1000
ENDCHAR
STARTCHAR 0065
ENCODING 101
SWIDTH 468 0
DWIDTH 13 0
BBX 13 19 0 0
BITMAP
7FE0
FFC0
7FC0
7FC0
7FC0
3F00
3C00
3E40
3FC0
3FC0
3F00
1E00
1FF0
1FF8
1FF8
1FF8
1FF8
1FE0
0E00
ENDCHAR
STARTCHAR 0066
ENCODING 102
SWIDTH 504 0
DWIDTH 14 0
BBX 14 20 0 0
BITMAP
0060
3FF8
FFF8
FFF8
FFFC
FC00
FC00
FC00
7F80
7F00
7F80
FE80
7800
F800
F800
7800
7800
7C00
7C00
7800
ENDCHAR
STARTCHAR 0067
ENCODING 103
SWIDTH 504 0
DWIDTH 14 0
BBX 14 19 0 0
BITMAP
07E0
0FF0
0FF8
1FF8
3E30
3C00
3800
7800
78FC
79F8
78F8
78F8
78F8
FFF8
FFF8
7FF8
7FE0
3F80
0C00
ENDCHAR
STARTCHAR 0068
ENCODING 104
SWIDTH 540 0
DWIDTH 15 0
BBX 14 19 1 0
BITMAP
1E00
7E3C
7E7C
7E7C
7E7C
7E7C
7E7C
7FFC
7FFC
7FFC
7FFC
FFFC
FFFC
FCFC
FCFC
FCFC
FCF8
FCF8
1880
ENDCHAR
STARTCHAR 0069
ENCODING 105
SWIDTH 324 0
DWIDTH 9 0
BBX 9 19 0 0
BITMAP
1E00
3F80
1F00
3F00
3F00
3F00
3F00
3F00
3F00
3F00
3F00
3F00
3F00
3F00
3F00
3F00
7E00
7E00
F000
ENDCHAR
STARTCHAR 006A
ENCODING 106
SWIDTH 432 0
DWIDTH 12 0
BBX 12 19 0 0
BITMAP
03F0
03F0
03F0
07F0
07F0
07F0
07F0
07F0
07F0
07F0
03F0
03F0
03F0
FBF0
7BF0
7FE0
7FE0
3FC0
0F80
ENDCHAR
STARTCHAR 006B
ENCODING 107
SWIDTH 540 0
DWIDTH 15 0
BBX 15 19 0 0
BITMAP
7F18
7F3C
7F7E
7F7C
7FF8
7FF0
7FF0
7FE0
7FE0
7FC0
FFC0
FFE0
FFF0
FFF8
FF78
FF7C
7F3E
7F3E
7E10
ENDCHAR
STARTCHAR 006C
ENCODING 108
SWIDTH 504 0
DWIDTH 14 0
BBX 13 19 1 0
BITMAP
1F80
3F80
3F80
3F80
3F80
7F00
7F00
7F00
7F00
7F00
7F00
7E00
FE00
FFF0
FFF0
FFF0
FFF0
FFF8
FFE0
ENDCHAR
STARTCHAR 006D
ENCODING 109
SWIDTH 648 0
DWIDTH 18 0
BBX 17 19 1 0
BITMAP
200400
300C00
381E00
3C1E00
3C3E00
7E3E00
7E7E00
7FFE00
7FFE00
7FFE00
7FFF00
FCFF00
FCBF00
FC3F00
F83F00
F83F00
F83F00
F03F80
F00000
ENDCHAR
STARTCHAR 006E
ENCODING 110
SWIDTH 540 0
DWIDTH 15 0
BBX 14 19 1 0
BITMAP
1018
7E7C
7E7C
7E7C
7E7C
7E7C
FE7C
FF7C
FF7C
FF78
FFF8
FBF8
FBF8
FBF8
F9F8
F9F8
F9F8
F9F8
E020
ENDCHAR
STARTCHAR 006F
ENCODING 111
SWIDTH 504 0
DWIDTH 14 0
BBX 15 19 0 0
BITMAP
0F00
1FC0
1FE0
3FF0
3FF8
7FF8
7FFC
7C7C
7C7C
FC7C
7C7E
7EFC
7FFC
7FFC
7FFC
3FFC
3FF8
1FF0
07E0
ENDCHAR
STARTCHAR 0070
ENCODING 112
SWIDTH 468 0
DWIDTH 13 0
BBX 13 19 0 0
BITMAP
1F80
3FE0
7FF0
7FF0
7CF8
7C78
7C78
7E78
7EF8
7FF8
7FF0
7FC0
7E00
7E00
FE00
FE00
FE00
FF00
7F00
ENDCHAR
STARTCHAR 0071
ENCODING 113
SWIDTH 612 0
DWIDTH 17 0
BBX 17 20 0 -1
BITMAP
0F8000
1FE000
3FF000
3FF800
7FF800
7CFC00
7C7C00
7C3C00
7C3C00
FC3C00
FC3C00
FFFC00
7FFC00
7FF800
7FF800
3FFC00
1FFE00
0FFF00
013F80
003E00
ENDCHAR
STARTCHAR 0072
ENCODING 114
SWIDTH 576 0
DWIDTH 16 0
BBX 16 19 0 0
BITMAP
0F80
7FE0
FFF8
7E78
7E38
7E3C
7E3C
7F78
7FF8
7FF0
7FE0
7FF0
7FF8
7F78
7F7C
7F3C
7F3E
3F1F
3F1E
ENDCHAR
STARTCHAR 0073
ENCODING 115
SWIDTH 504 0
DWIDTH 14 0
BBX 14 19 0 0
BITMAP
0FFC
1FF8
1FF8
3FF0
3FF0
7FE0
7FE0
7C20
3F00
3FC0
1FF0
03F0
00F8
60F8
7FF8
FFF8
FFF0
7FE0
1FC0
ENDCHAR
STARTCHAR 0074
ENCODING 116
SWIDTH 576 0
DWIDTH 16 0
BBX 16 19 0 0
BITMAP
3FFC
7FFE
7FFE
7FFE
7FFF
FFF8
63E0
03C0
03C0
03C0
03C0
03C0
03C0
03C0
03C0
03C0
03C0
03C0
03C0
ENDCHAR
STARTCHAR 0075
ENCODING 117
SWIDTH 540 0
DWIDTH 15 0
BBX 15 18 0 1
BITMAP
3C3C
3C3E
3C1E
7C3E
7C3E
7C3E
7C3E
7C3E
7C3E
FC3E
7E7E
7FFC
7FFC
7FFC
7FF8
3FF0
3FF0
0FE0
ENDCHAR
STARTCHAR 0076
ENCODING 118
SWIDTH 576 0
DWIDTH 16 0
BBX 16 17 0 1
BITMAP
F03F
7E3F
3F3F
3F3F
3F3E
1FBE
1FBE
0FBE
0FFC
07FC
07FC
03FC
03FC
01F8
00F8
00F8
0078
ENDCHAR
STARTCHAR 0077
ENCODING 119
SWIDTH 720 0
DWIDTH 20 0
BBX 20 19 0 0
BITMAP
7801C0
7C61F0
FC73E0
7C73E0
7E73E0
7E77C0
3F7FC0
3F7FC0
3FFFC0
1FFFC0
1FFFC0
0FFF80
0FEF80
07CF80
07CF80
038F80
038780
018700
008000
ENDCHAR
STARTCHAR 0078
ENCODING 120
SWIDTH 576 0
DWIDTH 16 0
BBX 16 18 0 0
BITMAP
001E
7C1F
FC3E
7E3E
7E7C
7F7C
3FF8
1FF8
0FF8
0FF0
07F0
0FF0
0FF0
1FF8
1F78
3E7C
3E3C
3E10
ENDCHAR
STARTCHAR 0079
ENCODING 121
SWIDTH 612 0
DWIDTH 17 0
BBX 16 19 1 0
BITMAP
001F
F01E
F83E
F83C
FC7C
7C78
7EF8
3EF0
3FF0
1FE0
1FE0
0FC0
07C0
07C0
07C0
07C0
07C0
07C0
03C0
ENDCHAR
STARTCHAR 007A
ENCODING 122
SWIDTH 576 0
DWIDTH 16 0
BBX 16 19 0 0
BITMAP
07FC
3FF8
7FF8
7FF0
FFF0
01E0
03E0
03C0
03C0
07C0
0780
0780
0F80
0F00
0FFF
1FFF
1FFF
03FE
00F0
ENDCHAR
STARTCHAR 007B
ENCODING 123
SWIDTH 324 0
DWIDTH 9 0
BBX 9 26 0 -3
BITMAP
0300
0780
0780
0F80
0F00
0E00
1E00
1C00
1C00
1C00
1C00
7C00
7C00
FC00
1C00
1E00
1E00
1E00
1E00
1E00
1E00
1E00
0F00
0F80
0780
0300
ENDCHAR
STARTCHAR 007C
ENCODING 124
SWIDTH 180 0
DWIDTH 5 0
BBX 5 28 0 -4
BITMAP
60
78
78
78
78
F8
F8
78
78
78
78
78
78
78
78
78
78
78
78
78
78
78
78
78
78
78
78
78
ENDCHAR
STARTCHAR 007D
ENCODING 125
SWIDTH 324 0
DWIDTH 9 0
BBX 8 26 1 -3
BITMAP
E0
F0
F8
78
38
38
38
3C
3C
3C
3C
3F
1F
1F
1F
1C
1C
3C
3C
38
38
78
F8
F0
E0
60
ENDCHAR
STARTCHAR 007E
ENCODING 126
SWIDTH 468 0
DWIDTH 13 0
BBX 13 6 0 7
BITMAP
3878
7E78
7FF8
7FF8
FFF0
F3E0
ENDCHAR
STARTCHAR 00A0
ENCODING 160
SWIDTH 288 0
DWIDTH 8 0
BBX 0 0 0 0
BITMAP
ENDCHAR
STARTCHAR 00A1
ENCODING 161
SWIDTH 288 0
DWIDTH 8 0
BBX 8 21 0 -5
BITMAP
08
3E
3E
3E
3C
08
00
38
3C
3C
3C
7C
7C
7C
7E
7E
7E
7E
7E
FF
FF
ENDCHAR
STARTCHAR 00A2
ENCODING 162
SWIDTH 468 0
DWIDTH 13 0
BBX 14 24 0 -3
BITMAP
00F0
00F0
01F0
0FF0
1FF8
3FF8
3FF8
7FF8
7FF8
7DC8
FBC0
FBC0
FBC0
FB80
7F80
7FB8
7FF8
3FF8
3FFC
0FF8
0FE0
0F00
0F00
0200
ENDCHAR
STARTCHAR 00A3
ENCODING 163
SWIDTH 540 0
DWIDTH 15 0
BBX 15 19 0 0
BITMAP
01E0
03F8
07FC
0FFC
0FBE
0FBE
1F80
1F00
7FF8
FFF8
FFF8
1F00
1F00
1F00
7FC0
7FFE
7FFE
7FFC
1FFC
ENDCHAR
STARTCHAR 00A4
ENCODING 164
SWIDTH 432 0
DWIDTH 12 0
BBX 12 12 0 4
BITMAP
0040
30C0
7FE0
7FF0
39E0
39C0
39C0
39C0
7FE0
FFF0
7FE0
3040
ENDCHAR
STARTCHAR 00A5
ENCODING 165
SWIDTH 612 0
DWIDTH 17 0
BBX 16 19 1 0
BITMAP
001F
F01E
F83E
F83C
FC7C
7C78
7EF8
3EF0
7FF8
7FF8
7FF8
7FF8
07C0
7FF8
7FFC
7FFC
3FC0
07C0
03C0
ENDCHAR
STARTCHAR 00A6
ENCODING 166
SWIDTH 180 0
DWIDTH 5 0
BBX 5 28 0 -4
BITMAP
70
78
78
78
78
78
78
78
78
78
78
78
78
00
00
00
78
78
F8
78
F8
F8
78
78
78
F8
78
78
ENDCHAR
STARTCHAR 00A7
ENCODING 167
SWIDTH 468 0
DWIDTH 13 0
BBX 14 24 0 -2
BITMAP
0100
0FC0
1FE0
3FF0
3FF0
3E20
3E00
3F00
3FE0
7FF0
7FF8
7CF8
F87C
7FF8
7FF8
1FF8
07F0
01F0
01F0
3FF0
3FF0
3FF0
1FE0
0F80
ENDCHAR
STARTCHAR 00A8
ENCODING 168
SWIDTH 288 0
DWIDTH 8 0
BBX 8 4 0 19
BITMAP
02
67
E7
20
ENDCHAR
STARTCHAR 00A9
ENCODING 169
SWIDTH 648 0
DWIDTH 18 0
BBX 18 18 0 1
BITMAP
006000
07FE00
1FFF00
3F0F80
3C0780
79F380
71F1C0
63F1C0
E381C0
E381C0
E381C0
73F1C0
71F180
78F380
3C0700
3FFE00
1FFC00
07F800
ENDCHAR
STARTCHAR 00AA
ENCODING 170
SWIDTH 324 0
DWIDTH 9 0
BBX 9 10 0 9
BITMAP
0C00
0C00
1C00
1E00
1E00
3E00
2E00
7F00
6700
E780
ENDCHAR
STARTCHAR 00AB
ENCODING 171
SWIDTH 468 0
DWIDTH 13 0
BBX 13 13 0 0
BITMAP
0208
0E18
1C38
3C78
7DF8
79E0
E180
F9F0
7EF8
3E78
0E38
0618
0008
ENDCHAR
STARTCHAR 00AC
ENCODING 172
SWIDTH 468 0
DWIDTH 13 0
BBX 13 7 0 5
BITMAP
7FF8
7FF8
7FF8
FFF8
0078
0078
0078
ENDCHAR
STARTCHAR 00AD
ENCODING 173
SWIDTH 360 0
DWIDTH 10 0
BBX 10 4 0 8
BITMAP
7FC0
7FC0
7FC0
FFC0
ENDCHAR
STARTCHAR 00AE
ENCODING 174
SWIDTH 432 0
DWIDTH 12 0
BBX 12 12 0 8
BITMAP
0700
3FC0
70E0
6F20
6D30
CF30
CF30
4D30
6FB0
7060
3FE0
0F80
ENDCHAR
STARTCHAR 00AF
ENCODING 175
SWIDTH 324 0
DWIDTH 9 0
BBX 9 2 0 20
BITMAP
7F80
FF80
ENDCHAR
STARTCHAR 00B0
ENCODING 176
SWIDTH 324 0
DWIDTH 9 0
BBX 9 9 0 11
BITMAP
1C00
3F00
7F00
E300
E380
6380
7700
7F00
3E00
ENDCHAR
STARTCHAR 00B1
ENCODING 177
SWIDTH 468 0
DWIDTH 13 0
BBX 13 16 0 0
BITMAP
0700
0700
0700
0780
FFF8
FFF8
FFF8
FFF8
0780
0780
0780
0780
0000
FFF8
FFF8
7FF8
ENDCHAR
STARTCHAR 00B2
ENCODING 178
SWIDTH 252 0
DWIDTH 7 0
BBX 7 9 0 10
BITMAP
78
FC
4C
08
18
1E
3E
3E
7C
ENDCHAR
STARTCHAR 00B3
ENCODING 179
SWIDTH 252 0
DWIDTH 7 0
BBX 7 10 0 9
BITMAP
70
70
30
38
7C
0C
06
8C
7C
10
ENDCHAR
STARTCHAR 00B4
ENCODING 180
SWIDTH 216 0
DWIDTH 6 0
BBX 5 4 1 20
BITMAP
78
70
E0
E0
ENDCHAR
STARTCHAR 00B5
ENCODING 181
SWIDTH 540 0
DWIDTH 15 0
BBX 15 19 0 -4
BITMAP
7838
787C
783C
787E
F87E
F87E
F87E
7CFE
FFFC
FFFC
FFFC
7FF8
7FF8
7FF0
7800
F800
7800
7800
7800
ENDCHAR
STARTCHAR 00B6
ENCODING 182
SWIDTH 396 0
DWIDTH 11 0
BBX 11 22 0 -2
BITMAP
0FC0
3FC0
7FC0
7FC0
FCC0
FCC0
7CC0
7CC0
7CC0
7CE0
7CE0
3CC0
1CC0
0CC0
0CE0
0CC0
0EC0
0EC0
0EC0
0EC0
0EC0
0CC0
ENDCHAR
STARTCHAR 00B7
ENCODING 183
SWIDTH 180 0
DWIDTH 5 0
BBX 5 5 0 7
BITMAP
78
F8
F8
78
30
ENDCHAR
STARTCHAR 00B8
ENCODING 184
SWIDTH 288 0
DWIDTH 8 0
BBX 8 6 0 -5
BITMAP
18
1C
0E
67
FF
18
ENDCHAR
STARTCHAR 00B9
ENCODING 185
SWIDTH 216 0
DWIDTH 6 0
BBX 5 9 1 10
BITMAP
30
F0
F0
30
30
70
70
78
78
ENDCHAR
STARTCHAR 00BA
ENCODING 186
SWIDTH 252 0
DWIDTH 7 0
BBX 7 9 0 10
BITMAP
38
7C
7E
66
E6
7E
7E
7E
3C
ENDCHAR
STARTCHAR 00BB
ENCODING 187
SWIDTH 468 0
DWIDTH 13 0
BBX 13 13 0 0
BITMAP
C000
6100
71C0
79E0
7DF0
3CF8
0C38
7CF8
FDF0
F1E0
E1C0
4180
0100
ENDCHAR
STARTCHAR 00BC
ENCODING 188
SWIDTH 540 0
DWIDTH 15 0
BBX 14 19 1 0
BITMAP
3038
F038
F070
3070
30E0
71E0
71C0
7BC0
7B80
0700
0F30
0E30
1E60
1C7C
387C
7858
7018
E018
6038
ENDCHAR
STARTCHAR 00BD
ENCODING 189
SWIDTH 540 0
DWIDTH 15 0
BBX 14 19 1 0
BITMAP
3038
F038
F070
3070
30E0
71E0
71C0
7BC0
7B80
0760
0FF8
0EF8
1E18
1C10
3830
783C
707C
E0FC
6070
ENDCHAR
STARTCHAR 00BE
ENCODING 190
SWIDTH 540 0
DWIDTH 15 0
BBX 15 19 0 0
BITMAP
701C
701C
3038
3838
7C70
0CF0
06E0
8DE0
7DC0
1380
0798
0718
0F30
0E3E
1C3E
3C2C
380C
700C
301C
ENDCHAR
STARTCHAR 00BF
ENCODING 191
SWIDTH 432 0
DWIDTH 12 0
BBX 12 20 0 -5
BITMAP
0100
0780
07C0
07C0
0300
0000
0000
0780
0780
0FC0
3F80
7F80
7C00
7800
F800
F870
FFF0
7FF0
7FF0
3FE0
ENDCHAR
STARTCHAR 00C0
ENCODING 192
SWIDTH 612 0
DWIDTH 17 0
BBX 16 25 1 -1
BITMAP
0F00
0F00
0780
0380
0000
00C0
01C0
03C0
03E0
03E0
07E0
07E0
07F0
0FF0
0FF0
1DF8
1CF8
38F8
3FFC
7FFC
7CFE
78FE
F87E
F87F
C000
ENDCHAR
STARTCHAR 00C1
ENCODING 193
SWIDTH 612 0
DWIDTH 17 0
BBX 16 25 1 -1
BITMAP
0078
00F0
00E0
01C0
0000
00C0
01C0
03C0
03E0
03E0
07E0
07E0
07F0
0FF0
0FF0
1DF8
1CF8
38F8
3FFC
7FFC
7CFE
78FE
F87E
F87F
C000
ENDCHAR
STARTCHAR 00C2
ENCODING 194
SWIDTH 612 0
DWIDTH 17 0
BBX 16 25 1 -1
BITMAP
01C0
03E0
07F0
0F70
0000
00C0
01C0
03C0
03E0
03E0
07E0
07E0
07F0
0FF0
0FF0
1DF8
1CF8
38F8
3FFC
7FFC
7CFE
78FE
F87E
F87F
C000
ENDCHAR
STARTCHAR 00C3
ENCODING 195
SWIDTH 612 0
DWIDTH 17 0
BBX 16 25 1 -1
BITMAP
0330
07F8
0FF0
0FF0
0000
00C0
01C0
03C0
03E0
03E0
07E0
07E0
07F0
0FF0
0FF0
1DF8
1CF8
38F8
3FFC
7FFC
7CFE
78FE
F87E
F87F
C000
ENDCHAR
STARTCHAR 00C4
ENCODING 196
SWIDTH 612 0
DWIDTH 17 0
BBX 16 24 1 -1
BITMAP
0020
0770
0770
0200
00C0
01C0
03C0
03E0
03E0
07E0
07E0
07F0
0FF0
0FF0
1DF8
1CF8
38F8
3FFC
7FFC
7CFE
78FE
F87E
F87F
C000
ENDCHAR
STARTCHAR 00C5
ENCODING 197
SWIDTH 612 0
DWIDTH 17 0
BBX 16 25 1 -1
BITMAP
03C0
07F0
0E70
0E30
0E70
07F0
03C0
03C0
03E0
03E0
07E0
07E0
07F0
0FF0
0FF0
1DF8
1CF8
38F8
3FFC
7FFC
7CFE
78FE
F87E
F87F
C000
ENDCHAR
STARTCHAR 00C6
ENCODING 198
SWIDTH 720 0
DWIDTH 20 0
BBX 19 19 1 -1
BITMAP
01FF00
01FF00
03FF00
03FF00
03FF00
07FE00
07F000
0FF000
0FFE00
0FFF00
1DFF00
1CF800
38FFC0
3FFFC0
7FFFE0
7CFFE0
F8FFE0
F87F80
F87800
ENDCHAR
STARTCHAR 00C7
ENCODING 199
SWIDTH 468 0
DWIDTH 13 0
BBX 13 24 0 -5
BITMAP
03C0
0FF0
3FF8
3FF8
7FF8
7FC0
7E00
7C00
FC00
7C00
FE08
7FF8
7FF8
7FF8
7FF8
3FF8
3FF0
1FE0
0780
0700
03C0
19C0
1FC0
0F00
ENDCHAR
STARTCHAR 00C8
ENCODING 200
SWIDTH 468 0
DWIDTH 13 0
BBX 13 24 0 0
BITMAP
F000
7800
3C00
1C00
0000
7FE0
FFC0
7FC0
7FC0
7FC0
3F00
3C00
3E40
3FC0
3FC0
3F00
1E00
1FF0
1FF8
1FF8
1FF8
1FF8
1FE0
0E00
ENDCHAR
STARTCHAR 00C9
ENCODING 201
SWIDTH 468 0
DWIDTH 13 0
BBX 13 25 0 0
BITMAP
0180
0700
0F00
0E00
0C00
0000
7FE0
FFC0
7FC0
7FC0
7FC0
3F00
3C00
3E40
3FC0
3FC0
3F00
1E00
1FF0
1FF8
1FF8
1FF8
1FF8
1FE0
0E00
ENDCHAR
STARTCHAR 00CA
ENCODING 202
SWIDTH 468 0
DWIDTH 13 0
BBX 13 24 0 0
BITMAP
1C00
3F00
7F80
F300
0000
7FE0
FFC0
7FC0
7FC0
7FC0
3F00
3C00
3E40
3FC0
3FC0
3F00
1E00
1FF0
1FF8
1FF8
1FF8
1FF8
1FE0
0E00
ENDCHAR
STARTCHAR 00CB
ENCODING 203
SWIDTH 468 0
DWIDTH 13 0
BBX 13 23 0 0
BITMAP
0300
7700
7300
2000
7FE0
FFC0
7FC0
7FC0
7FC0
3F00
3C00
3E40
3FC0
3FC0
3F00
1E00
1FF0
1FF8
1FF8
1FF8
1FF8
1FE0
0E00
ENDCHAR
STARTCHAR 00CC
ENCODING 204
SWIDTH 324 0
DWIDTH 9 0
BBX 9 24 0 0
BITMAP
3C00
1C00
1E00
0E00
0000
1E00
3F80
1F00
3F00
3F00
3F00
3F00
3F00
3F00
3F00
3F00
3F00
3F00
3F00
3F00
3F00
7E00
7E00
F000
ENDCHAR
STARTCHAR 00CD
ENCODING 205
SWIDTH 324 0
DWIDTH 9 0
BBX 10 24 0 0
BITMAP
03C0
0380
0780
0700
0000
1E00
3F80
1F00
3F00
3F00
3F00
3F00
3F00
3F00
3F00
3F00
3F00
3F00
3F00
3F00
3F00
7E00
7E00
F000
ENDCHAR
STARTCHAR 00CE
ENCODING 206
SWIDTH 324 0
DWIDTH 9 0
BBX 10 24 0 0
BITMAP
0600
1F00
3FC0
39C0
0000
1E00
3F80
1F00
3F00
3F00
3F00
3F00
3F00
3F00
3F00
3F00
3F00
3F00
3F00
3F00
3F00
7E00
7E00
F000
ENDCHAR
STARTCHAR 00CF
ENCODING 207
SWIDTH 324 0
DWIDTH 9 0
BBX 10 23 0 0
BITMAP
0080
39C0
39C0
0000
1E00
3F80
1F00
3F00
3F00
3F00
3F00
3F00
3F00
3F00
3F00
3F00
3F00
3F00
3F00
3F00
7E00
7E00
F000
ENDCHAR
STARTCHAR 00D0
ENCODING 208
SWIDTH 468 0
DWIDTH 13 0
BBX 13 19 0 0
BITMAP
3E00
7FC0
7FE0
7FE0
7FF0
7EF8
7F38
FF38
FF78
FFF8
FEF8
3FF0
3FF0
1FE0
1FE0
1FC0
1F80
0E00
0800
ENDCHAR
STARTCHAR 00D1
ENCODING 209
SWIDTH 540 0
DWIDTH 15 0
BBX 14 24 1 0
BITMAP
0670
0FF0
0FF0
0FE0
0000
1018
7E7C
7E7C
7E7C
7E7C
7E7C
FE7C
FF7C
FF7C
FF78
FFF8
FBF8
FBF8
FBF8
F9F8
F9F8
F9F8
F9F8
E020
ENDCHAR
STARTCHAR 00D2
ENCODING 210
SWIDTH 504 0
DWIDTH 14 0
BBX 15 24 0 0
BITMAP
7000
7800
3C00
1C00
0000
0F00
1FC0
1FE0
3FF0
3FF8
7FF8
7FFC
7C7C
7C7C
FC7C
7C7E
7EFC
7FFC
7FFC
7FFC
3FFC
3FF8
1FF0
07E0
ENDCHAR
STARTCHAR 00D3
ENCODING 211
SWIDTH 504 0
DWIDTH 14 0
BBX 15 24 0 0
BITMAP
03C0
0380
0700
0700
0000
0F00
1FC0
1FE0
3FF0
3FF8
7FF8
7FFC
7C7C
7C7C
FC7C
7C7E
7EFC
7FFC
7FFC
7FFC
3FFC
3FF8
1FF0
07E0
ENDCHAR
STARTCHAR 00D4
ENCODING 212
SWIDTH 504 0
DWIDTH 14 0
BBX 15 24 0 0
BITMAP
0E00
1F00
3F80
73C0
0000
0F00
1FC0
1FE0
3FF0
3FF8
7FF8
7FFC
7C7C
7C7C
FC7C
7C7E
7EFC
7FFC
7FFC
7FFC
3FFC
3FF8
1FF0
07E0
ENDCHAR
STARTCHAR 00D5
ENCODING 213
SWIDTH 504 0
DWIDTH 14 0
BBX 15 24 0 0
BITMAP
1380
3F80
7F80
7F00
4000
0F00
1FC0
1FE0
3FF0
3FF8
7FF8
7FFC
7C7C
7C7C
FC7C
7C7E
7EFC
7FFC
7FFC
7FFC
3FFC
3FF8
1FF0
07E0
ENDCHAR
STARTCHAR 00D6
ENCODING 214
SWIDTH 504 0
DWIDTH 14 0
BBX 15 23 0 0
BITMAP
0100
3380
3380
1000
0F00
1FC0
1FE0
3FF0
3FF8
7FF8
7FFC
7C7C
7C7C
FC7C
7C7E
7EFC
7FFC
7FFC
7FFC
3FFC
3FF8
1FF0
07E0
ENDCHAR
STARTCHAR 00D7
ENCODING 215
SWIDTH 432 0
DWIDTH 12 0
BBX 10 11 1 4
BITMAP
6180
F3C0
FFC0
FF80
7F80
3F00
7F80
FFC0
FFC0
73C0
2000
ENDCHAR
STARTCHAR 00D8
ENCODING 216
SWIDTH 504 0
DWIDTH 14 0
BBX 15 20 0 0
BITMAP
001E
0F3E
1FFC
1FFC
3FF8
3FF8
7FF8
7FFC
7BFC
7BFC
F7BC
773E
7F7C
7FFC
7FFC
7FFC
3FFC
7FF8
FFF0
E7E0
ENDCHAR
STARTCHAR 00D9
ENCODING 217
SWIDTH 540 0
DWIDTH 15 0
BBX 15 23 0 1
BITMAP
0F00
0700
0780
0380
0000
3C3C
3C3E
3C1E
7C3E
7C3E
7C3E
7C3E
7C3E
7C3E
FC3E
7E7E
7FFC
7FFC
7FFC
7FF8
3FF0
3FF0
0FE0
ENDCHAR
STARTCHAR 00DA
ENCODING 218
SWIDTH 540 0
DWIDTH 15 0
BBX 15 23 0 1
BITMAP
0078
0070
00E0
00E0
0000
3C3C
3C3E
3C1E
7C3E
7C3E
7C3E
7C3E
7C3E
7C3E
FC3E
7E7E
7FFC
7FFC
7FFC
7FF8
3FF0
3FF0
0FE0
ENDCHAR
STARTCHAR 00DB
ENCODING 219
SWIDTH 540 0
DWIDTH 15 0
BBX 15 23 0 1
BITMAP
01C0
03E0
07F0
0F38
0000
3C3C
3C3E
3C1E
7C3E
7C3E
7C3E
7C3E
7C3E
7C3E
FC3E
7E7E
7FFC
7FFC
7FFC
7FF8
3FF0
3FF0
0FE0
ENDCHAR
STARTCHAR 00DC
ENCODING 220
SWIDTH 540 0
DWIDTH 15 0
BBX 15 22 0 1
BITMAP
0200
0730
0730
0020
3C3C
3C3E
3C1E
7C3E
7C3E
7C3E
7C3E
7C3E
7C3E
FC3E
7E7E
7FFC
7FFC
7FFC
7FF8
3FF0
3FF0
0FE0
ENDCHAR
STARTCHAR 00DD
ENCODING 221
SWIDTH 612 0
DWIDTH 17 0
BBX 16 24 1 0
BITMAP
00F0
00F0
01E0
01C0
0000
001F
F01E
F83E
F83C
FC7C
7C78
7EF8
3EF0
3FF0
1FE0
1FE0
0FC0
07C0
07C0
07C0
07C0
07C0
07C0
03C0
ENDCHAR
STARTCHAR 00DE
ENCODING 222
SWIDTH 504 0
DWIDTH 14 0
BBX 14 19 0 0
BITMAP
F800
F800
FE00
7FC0
7FE0
7FF0
7DF0
7C78
7C78
7C78
7C78
7CF8
7FFC
7FF8
7FF0
7E00
7E00
7E00
7E00
ENDCHAR
STARTCHAR 00DF
ENCODING 223
SWIDTH 540 0
DWIDTH 15 0
BBX 15 21 0 -2
BITMAP
1F80
3FC0
7FE0
7FE0
F8E0
F8E0
78E0
79E0
79C0
79F8
79FC
79FE
783E
781E
783E
787E
78FE
78FC
3CF8
3C00
3800
ENDCHAR
STARTCHAR 00E0
ENCODING 224
SWIDTH 612 0
DWIDTH 17 0
BBX 16 25 1 -1
BITMAP
0F00
0F00
0780
0380
0000
00C0
01C0
03C0
03E0
03E0
07E0
07E0
07F0
0FF0
0FF0
1DF8
1CF8
38F8
3FFC
7FFC
7CFE
78FE
F87E
F87F
C000
ENDCHAR
STARTCHAR 00E1
ENCODING 225
SWIDTH 612 0
DWIDTH 17 0
BBX 16 25 1 -1
BITMAP
0078
00F0
00E0
01C0
0000
00C0
01C0
03C0
03E0
03E0
07E0
07E0
07F0
0FF0
0FF0
1DF8
1CF8
38F8
3FFC
7FFC
7CFE
78FE
F87E
F87F
C000
ENDCHAR
STARTCHAR 00E2
ENCODING 226
SWIDTH 612 0
DWIDTH 17 0
BBX 16 25 1 -1
BITMAP
01C0
03E0
07F0
0F70
0000
00C0
01C0
03C0
03E0
03E0
07E0
07E0
07F0
0FF0
0FF0
1DF8
1CF8
38F8
3FFC
7FFC
7CFE
78FE
F87E
F87F
C000
ENDCHAR
STARTCHAR 00E3
ENCODING 227
SWIDTH 612 0
DWIDTH 17 0
BBX 16 25 1 -1
BITMAP
0330
07F8
0FF0
0FF0
0000
00C0
01C0
03C0
03E0
03E0
07E0
07E0
07F0
0FF0
0FF0
1DF8
1CF8
38F8
3FFC
7FFC
7CFE
78FE
F87E
F87F
C000
ENDCHAR
STARTCHAR 00E4
ENCODING 228
SWIDTH 612 0
DWIDTH 17 0
BBX 16 24 1 -1
BITMAP
0020
0770
0770
0200
00C0
01C0
03C0
03E0
03E0
07E0
07E0
07F0
0FF0
0FF0
1DF8
1CF8
38F8
3FFC
7FFC
7CFE
78FE
F87E
F87F
C000
ENDCHAR
STARTCHAR 00E5
ENCODING 229
SWIDTH 612 0
DWIDTH 17 0
BBX 16 25 1 -1
BITMAP
03C0
07F0
0E70
0E30
0E70
07F0
03C0
03C0
03E0
03E0
07E0
07E0
07F0
0FF0
0FF0
1DF8
1CF8
38F8
3FFC
7FFC
7CFE
78FE
F87E
F87F
C000
ENDCHAR
STARTCHAR 00E6
ENCODING 230
SWIDTH 720 0
DWIDTH 20 0
BBX 19 19 1 -1
BITMAP
01FF00
01FF00
03FF00
03FF00
03FF00
07FE00
07F000
0FF000
0FFE00
0FFF00
1DFF00
1CF800
38FFC0
3FFFC0
7FFFE0
7CFFE0
F8FFE0
F87F80
F87800
ENDCHAR
STARTCHAR 00E7
ENCODING 231
SWIDTH 468 0
DWIDTH 13 0
BBX 13 24 0 -5
BITMAP
03C0
0FF0
3FF8
3FF8
7FF8
7FC0
7E00
7C00
FC00
7C00
FE08
7FF8
7FF8
7FF8
7FF8
3FF8
3FF0
1FE0
0780
0700
03C0
19C0
1FC0
0F00
ENDCHAR
STARTCHAR 00E8
ENCODING 232
SWIDTH 468 0
DWIDTH 13 0
BBX 13 24 0 0
BITMAP
F000
7800
3C00
1C00
0000
7FE0
FFC0
7FC0
7FC0
7FC0
3F00
3C00
3E40
3FC0
3FC0
3F00
1E00
1FF0
1FF8
1FF8
1FF8
1FF8
1FE0
0E00
ENDCHAR
STARTCHAR 00E9
ENCODING 233
SWIDTH 468 0
DWIDTH 13 0
BBX 13 25 0 0
BITMAP
0180
0700
0F00
0E00
0C00
0000
7FE0
FFC0
7FC0
7FC0
7FC0
3F00
3C00
3E40
3FC0
3FC0
3F00
1E00
1FF0
1FF8
1FF8
1FF8
1FF8
1FE0
0E00
ENDCHAR
STARTCHAR 00EA
ENCODING 234
SWIDTH 468 0
DWIDTH 13 0
BBX 13 24 0 0
BITMAP
1C00
3F00
7F80
F300
0000
7FE0
FFC0
7FC0
7FC0
7FC0
3F00
3C00
3E40
3FC0
3FC0
3F00
1E00
1FF0
1FF8
1FF8
1FF8
1FF8
1FE0
0E00
ENDCHAR
STARTCHAR 00EB
ENCODING 235
SWIDTH 468 0
DWIDTH 13 0
BBX 13 23 0 0
BITMAP
0300
7700
7300
2000
7FE0
FFC0
7FC0
7FC0
7FC0
3F00
3C00
3E40
3FC0
3FC0
3F00
1E00
1FF0
1FF8
1FF8
1FF8
1FF8
1FE0
0E00
ENDCHAR
STARTCHAR 00EC
ENCODING 236
SWIDTH 324 0
DWIDTH 9 0
BBX 9 24 0 0
BITMAP
3C00
1C00
1E00
0E00
0000
1E00
3F80
1F00
3F00
3F00
3F00
3F00
3F00
3F00
3F00
3F00
3F00
3F00
3F00
3F00
3F00
7E00
7E00
F000
ENDCHAR
STARTCHAR 00ED
ENCODING 237
SWIDTH 324 0
DWIDTH 9 0
BBX 10 24 0 0
BITMAP
03C0
0380
0780
0700
0000
1E00
3F80
1F00
3F00
3F00
3F00
3F00
3F00
3F00
3F00
3F00
3F00
3F00
3F00
3F00
3F00
7E00
7E00
F000
ENDCHAR
STARTCHAR 00EE
ENCODING 238
SWIDTH 324 0
DWIDTH 9 0
BBX 10 24 0 0
BITMAP
0600
1F00
3FC0
39C0
0000
1E00
3F80
1F00
3F00
3F00
3F00
3F00
3F00
3F00
3F00
3F00
3F00
3F00
3F00
3F00
3F00
7E00
7E00
F000
ENDCHAR
STARTCHAR 00EF
ENCODING 239
SWIDTH 324 0
DWIDTH 9 0
BBX 10 23 0 0
BITMAP
0080
39C0
39C0
0000
1E00
3F80
1F00
3F00
3F00
3F00
3F00
3F00
3F00
3F00
3F00
3F00
3F00
3F00
3F00
3F00
7E00
7E00
F000
ENDCHAR
STARTCHAR 00F0
ENCODING 240
SWIDTH 468 0
DWIDTH 13 0
BBX 13 19 0 0
BITMAP
3E00
7FC0
7FE0
7FE0
7FF0
7EF8
7F38
FF38
FF78
FFF8
FEF8
3FF0
3FF0
1FE0
1FE0
1FC0
1F80
0E00
0800
ENDCHAR
STARTCHAR 00F1
ENCODING 241
SWIDTH 540 0
DWIDTH 15 0
BBX 14 24 1 0
BITMAP
0670
0FF0
0FF0
0FE0
0000
1018
7E7C
7E7C
7E7C
7E7C
7E7C
FE7C
FF7C
FF7C
FF78
FFF8
FBF8
FBF8
FBF8
F9F8
F9F8
F9F8
F9F8
E020
ENDCHAR
STARTCHAR 00F2
ENCODING 242
SWIDTH 504 0
DWIDTH 14 0
BBX 15 24 0 0
BITMAP
7000
7800
3C00
1C00
0000
0F00
1FC0
1FE0
3FF0
3FF8
7FF8
7FFC
7C7C
7C7C
FC7C
7C7E
7EFC
7FFC
7FFC
7FFC
3FFC
3FF8
1FF0
07E0
ENDCHAR
STARTCHAR 00F3
ENCODING 243
SWIDTH 504 0
DWIDTH 14 0
BBX 15 24 0 0
BITMAP
03C0
0380
0700
0700
0000
0F00
1FC0
1FE0
3FF0
3FF8
7FF8
7FFC
7C7C
7C7C
FC7C
7C7E
7EFC
7FFC
7FFC
7FFC
3FFC
3FF8
1FF0
07E0
ENDCHAR
STARTCHAR 00F4
ENCODING 244
SWIDTH 504 0
DWIDTH 14 0
BBX 15 24 0 0
BITMAP
0E00
1F00
3F80
73C0
0000
0F00
1FC0
1FE0
3FF0
3FF8
7FF8
7FFC
7C7C
7C7C
FC7C
7C7E
7EFC
7FFC
7FFC
7FFC
3FFC
3FF8
1FF0
07E0
ENDCHAR
STARTCHAR 00F5
ENCODING 245
SWIDTH 504 0
DWIDTH 14 0
BBX 15 24 0 0
BITMAP
1380
3F80
7F80
7F00
4000
0F00
1FC0
1FE0
3FF0
3FF8
7FF8
7FFC
7C7C
7C7C
FC7C
7C7E
7EFC
7FFC
7FFC
7FFC
3FFC
3FF8
1FF0
07E0
ENDCHAR
STARTCHAR 00F6
ENCODING 246
SWIDTH 504 0
DWIDTH 14 0
BBX 15 23 0 0
BITMAP
0100
3380
3380
1000
0F00
1FC0
1FE0
3FF0
3FF8
7FF8
7FFC
7C7C
7C7C
FC7C
7C7E
7EFC
7FFC
7FFC
7FFC
3FFC
3FF8
1FF0
07E0
ENDCHAR
STARTCHAR 00F7
ENCODING 247
SWIDTH 468 0
DWIDTH 13 0
BBX 13 15 0 2
BITMAP
0700
0780
0F80
0780
0000
7FF8
7FF8
7FF8
FFF8
0000
0700
0F80
0F80
0700
0200
ENDCHAR
STARTCHAR 00F8
ENCODING 248
SWIDTH 504 0
DWIDTH 14 0
BBX 15 20 0 0
BITMAP
001E
0F3E
1FFC
1FFC
3FF8
3FF8
7FF8
7FFC
7BFC
7BFC
F7BC
773E
7F7C
7FFC
7FFC
7FFC
3FFC
7FF8
FFF0
E7E0
ENDCHAR
STARTCHAR 00F9
ENCODING 249
SWIDTH 540 0
DWIDTH 15 0
BBX 15 23 0 1
BITMAP
0F00
0700
0780
0380
0000
3C3C
3C3E
3C1E
7C3E
7C3E
7C3E
7C3E
7C3E
7C3E
FC3E
7E7E
7FFC
7FFC
7FFC
7FF8
3FF0
3FF0
0FE0
ENDCHAR
STARTCHAR 00FA
ENCODING 250
SWIDTH 540 0
DWIDTH 15 0
BBX 15 23 0 1
BITMAP
0078
0070
00E0
00E0
0000
3C3C
3C3E
3C1E
7C3E
7C3E
7C3E
7C3E
7C3E
7C3E
FC3E
7E7E
7FFC
7FFC
7FFC
7FF8
3FF0
3FF0
0FE0
ENDCHAR
STARTCHAR 00FB
ENCODING 251
SWIDTH 540 0
DWIDTH 15 0
BBX 15 23 0 1
BITMAP
01C0
03E0
07F0
0F38
0000
3C3C
3C3E
3C1E
7C3E
7C3E
7C3E
7C3E
7C3E
7C3E
FC3E
7E7E
7FFC
7FFC
7FFC
7FF8
3FF0
3FF0
0FE0
ENDCHAR
STARTCHAR 00FC
ENCODING 252
SWIDTH 540 0
DWIDTH 15 0
BBX 15 22 0 1
BITMAP
0200
0730
0730
0020
3C3C
3C3E
3C1E
7C3E
7C3E
7C3E
7C3E
7C3E
7C3E
FC3E
7E7E
7FFC
7FFC
7FFC
7FF8
3FF0
3FF0
0FE0
ENDCHAR
STARTCHAR 00FD
ENCODING 253
SWIDTH 612 0
DWIDTH 17 0
BBX 16 24 1 0
BITMAP
00F0
00F0
01E0
01C0
0000
001F
F01E
F83E
F83C
FC7C
7C78
7EF8
3EF0
3FF0
1FE0
1FE0
0FC0
07C0
07C0
07C0
07C0
07C0
07C0
03C0
ENDCHAR
STARTCHAR 00FE
ENCODING 254
SWIDTH 504 0
DWIDTH 14 0
BBX 14 19 0 0
BITMAP
F800
F800
FE00
7FC0
7FE0
7FF0
7DF0
7C78
7C78
7C78
7C78
7CF8
7FFC
7FF8
7FF0
7E00
7E00
7E00
7E00
ENDCHAR
STARTCHAR 00FF
ENCODING 255
SWIDTH 612 0
DWIDTH 17 0
BBX 16 23 1 0
BITMAP
0040
0E60
0E60
0400
001F
F01E
F83E
F83C
FC7C
7C78
7EF8
3EF0
3FF0
1FE0
1FE0
0FC0
07C0
07C0
07C0
07C0
07C0
07C0
03C0
ENDCHAR
STARTCHAR 0100
ENCODING 256
SWIDTH 612 0
DWIDTH 17 0
BBX 16 23 1 -1
BITMAP
0FF8
0FF8
0000
00C0
01C0
03C0
03E0
03E0
07E0
07E0
07F0
0FF0
0FF0
1DF8
1CF8
38F8
3FFC
7FFC
7CFE
78FE
F87E
F87F
C000
ENDCHAR
STARTCHAR 0101
ENCODING 257
SWIDTH 612 0
DWIDTH 17 0
BBX 16 23 1 -1
BITMAP
0FF8
0FF8
0000
00C0
01C0
03C0
03E0
03E0
07E0
07E0
07F0
0FF0
0FF0
1DF8
1CF8
38F8
3FFC
7FFC
7CFE
78FE
F87E
F87F
C000
ENDCHAR
STARTCHAR 0102
ENCODING 258
SWIDTH 612 0
DWIDTH 17 0
BBX 16 25 1 -1
BITMAP
0C30
0E70
07F0
03E0
0000
00C0
01C0
03C0
03E0
03E0
07E0
07E0
07F0
0FF0
0FF0
1DF8
1CF8
38F8
3FFC
7FFC
7CFE
78FE
F87E
F87F
C000
ENDCHAR
STARTCHAR 0103
ENCODING 259
SWIDTH 612 0
DWIDTH 17 0
BBX 16 25 1 -1
BITMAP
0C30
0E70
07F0
03E0
0000
00C0
01C0
03C0
03E0
03E0
07E0
07E0
07F0
0FF0
0FF0
1DF8
1CF8
38F8
3FFC
7FFC
7CFE
78FE
F87E
F87F
C000
ENDCHAR
STARTCHAR 0104
ENCODING 260
SWIDTH 612 0
DWIDTH 17 0
BBX 16 24 1 -5
BITMAP
00C0
01C0
03C0
03E0
03E0
07E0
07E0
07F0
0FF0
0FF0
1DF8
1CF8
38F8
3FFC
7FFC
7CFE
78FE
F87E
F87F
C060
00E0
00EE
00FE
0018
ENDCHAR
STARTCHAR 0105
ENCODING 261
SWIDTH 612 0
DWIDTH 17 0
BBX 16 24 1 -5
BITMAP
00C0
01C0
03C0
03E0
03E0
07E0
07E0
07F0
0FF0
0FF0
1DF8
1CF8
38F8
3FFC
7FFC
7CFE
78FE
F87E
F87F
C060
00E0
00EE
00FE
0018
ENDCHAR
STARTCHAR 0106
ENCODING 262
SWIDTH 468 0
DWIDTH 13 0
BBX 13 24 0 0
BITMAP
0078
00F0
00E0
01C0
0000
03C0
0FF0
3FF8
3FF8
7FF8
7FC0
7E00
7C00
FC00
7C00
FE08
7FF8
7FF8
7FF8
7FF8
3FF8
3FF0
1FE0
0180
ENDCHAR
STARTCHAR 0107
ENCODING 263
SWIDTH 468 0
DWIDTH 13 0
BBX 13 24 0 0
BITMAP
0078
00F0
00E0
01C0
0000
03C0
0FF0
3FF8
3FF8
7FF8
7FC0
7E00
7C00
FC00
7C00
FE08
7FF8
7FF8
7FF8
7FF8
3FF8
3FF0
1FE0
0180
ENDCHAR
STARTCHAR 0108
ENCODING 264
SWIDTH 468 0
DWIDTH 13 0
BBX 13 24 0 0
BITMAP
01C0
03E0
07F0
0F70
0000
03C0
0FF0
3FF8
3FF8
7FF8
7FC0
7E00
7C00
FC00
7C00
FE08
7FF8
7FF8
7FF8
7FF8
3FF8
3FF0
1FE0
0180
ENDCHAR
STARTCHAR 0109
ENCODING 265
SWIDTH 468 0
DWIDTH 13 0
BBX 13 24 0 0
BITMAP
01C0
03E0
07F0
0F70
0000
03C0
0FF0
3FF8
3FF8
7FF8
7FC0
7E00
7C00
FC00
7C00
FE08
7FF8
7FF8
7FF8
7FF8
3FF8
3FF0
1FE0
0180
ENDCHAR
STARTCHAR 010A
ENCODING 266
SWIDTH 468 0
DWIDTH 13 0
BBX 13 22 0 0
BITMAP
0180
0180
0080
03C0
0FF0
3FF8
3FF8
7FF8
7FC0
7E00
7C00
FC00
7C00
FE08
7FF8
7FF8
7FF8
7FF8
3FF8
3FF0
1FE0
0180
ENDCHAR
STARTCHAR 010B
ENCODING 267
SWIDTH 468 0
DWIDTH 13 0
BBX 13 22 0 0
BITMAP
0180
0180
0080
03C0
0FF0
3FF8
3FF8
7FF8
7FC0
7E00
7C00
FC00
7C00
FE08
7FF8
7FF8
7FF8
7FF8
3FF8
3FF0
1FE0
0180
ENDCHAR
STARTCHAR 010C
ENCODING 268
SWIDTH 468 0
DWIDTH 13 0
BBX 13 24 0 0
BITMAP
0E30
0FF0
07E0
03C0
0000
03C0
0FF0
3FF8
3FF8
7FF8
7FC0
7E00
7C00
FC00
7C00
FE08
7FF8
7FF8
7FF8
7FF8
3FF8
3FF0
1FE0
0180
ENDCHAR
STARTCHAR 010D
ENCODING 269
SWIDTH 468 0
DWIDTH 13 0
BBX 13 24 0 0
BITMAP
0E30
0FF0
07E0
03C0
0000
03C0
0FF0
3FF8
3FF8
7FF8
7FC0
7E00
7C00
FC00
7C00
FE08
7FF8
7FF8
7FF8
7FF8
3FF8
3FF0
1FE0
0180
ENDCHAR
STARTCHAR 010E
ENCODING 270
SWIDTH 432 0
DWIDTH 12 0
BBX 12 24 0 0
BITMAP
6780
FF00
7E00
1C00
0000
7C00
FF80
FFC0
FFE0
FFE0
7DF0
7C70
7C70
7C70
7CF0
7DF0
7FE0
3FE0
3FC0
3FC0
3F80
3F00
1C00
1000
ENDCHAR
STARTCHAR 010F
ENCODING 271
SWIDTH 432 0
DWIDTH 12 0
BBX 12 24 0 0
BITMAP
6780
FF00
7E00
1C00
0000
7C00
FF80
FFC0
FFE0
FFE0
7DF0
7C70
7C70
7C70
7CF0
7DF0
7FE0
3FE0
3FC0
3FC0
3F80
3F00
1C00
1000
ENDCHAR
STARTCHAR 0110
ENCODING 272
SWIDTH 468 0
DWIDTH 13 0
BBX 13 19 0 0
BITMAP
3E00
7FC0
7FE0
7FE0
7FF0
7EF8
7F38
FF38
FF78
FFF8
FEF8
3FF0
3FF0
1FE0
1FE0
1FC0
1F80
0E00
0800
ENDCHAR
STARTCHAR 0111
ENCODING 273
SWIDTH 468 0
DWIDTH 13 0
BBX 13 19 0 0
BITMAP
3E00
7FC0
7FE0
7FE0
7FF0
7EF8
7F38
FF38
FF78
FFF8
FEF8
3FF0
3FF0
1FE0
1FE0
1FC0
1F80
0E00
0800
ENDCHAR
STARTCHAR 0112
ENCODING 274
SWIDTH 468 0
DWIDTH 13 0
BBX 13 23 0 0
BITMAP
0700
FF80
7E00
0000
7FE0
FFC0
7FC0
7FC0
7FC0
3F00
3C00
3E40
3FC0
3FC0
3F00
1E00
1FF0
1FF8
1FF8
1FF8
1FF8
1FE0
0E00
ENDCHAR
STARTCHAR 0113
ENCODING 275
SWIDTH 468 0
DWIDTH 13 0
BBX 13 23 0 0
BITMAP
0700
FF80
7E00
0000
7FE0
FFC0
7FC0
7FC0
7FC0
3F00
3C00
3E40
3FC0
3FC0
3F00
1E00
1FF0
1FF8
1FF8
1FF8
1FF8
1FE0
0E00
ENDCHAR
STARTCHAR 0114
ENCODING 276
SWIDTH 468 0
DWIDTH 13 0
BBX 13 25 0 0
BITMAP
0080
E380
7F00
7F00
3E00
0000
7FE0
FFC0
7FC0
7FC0
7FC0
3F00
3C00
3E40
3FC0
3FC0
3F00
1E00
1FF0
1FF8
1FF8
1FF8
1FF8
1FE0
0E00
ENDCHAR
STARTCHAR 0115
ENCODING 277
SWIDTH 468 0
DWIDTH 13 0
BBX 13 25 0 0
BITMAP
0080
E380
7F00
7F00
3E00
0000
7FE0
FFC0
7FC0
7FC0
7FC0
3F00
3C00
3E40
3FC0
3FC0
3F00
1E00
1FF0
1FF8
1FF8
1FF8
1FF8
1FE0
0E00
ENDCHAR
STARTCHAR 0116
ENCODING 278
SWIDTH 468 0
DWIDTH 13 0
BBX 13 23 0 0
BITMAP
1C00
1C00
1C00
0000
7FE0
FFC0
7FC0
7FC0
7FC0
3F00
3C00
3E40
3FC0
3FC0
3F00
1E00
1FF0
1FF8
1FF8
1FF8
1FF8
1FE0
0E00
ENDCHAR
STARTCHAR 0117
ENCODING 279
SWIDTH 468 0
DWIDTH 13 0
BBX 13 23 0 0
BITMAP
1C00
1C00
1C00
0000
7FE0
FFC0
7FC0
7FC0
7FC0
3F00
3C00
3E40
3FC0
3FC0
3F00
1E00
1FF0
1FF8
1FF8
1FF8
1FF8
1FE0
0E00
ENDCHAR
STARTCHAR 0118
ENCODING 280
SWIDTH 468 0
DWIDTH 13 0
BBX 13 23 0 -4
BITMAP
7FE0
FFC0
7FC0
7FC0
7FC0
3F00
3C00
3E40
3FC0
3FC0
3F00
1E00
1FF0
1FF8
1FF8
1FF8
1FF8
1FE0
0F80
0380
0388
03F8
03F8
ENDCHAR
STARTCHAR 0119
ENCODING 281
SWIDTH 468 0
DWIDTH 13 0
BBX 13 23 0 -4
BITMAP
7FE0
FFC0
7FC0
7FC0
7FC0
3F00
3C00
3E40
3FC0
3FC0
3F00
1E00
1FF0
1FF8
1FF8
1FF8
1FF8
1FE0
0F80
0380
0388
03F8
03F8
ENDCHAR
STARTCHAR 011A
ENCODING 282
SWIDTH 468 0
DWIDTH 13 0
BBX 13 24 0 0
BITMAP
6780
FF00
7E00
1C00
0000
7FE0
FFC0
7FC0
7FC0
7FC0
3F00
3C00
3E40
3FC0
3FC0
3F00
1E00
1FF0
1FF8
1FF8
1FF8
1FF8
1FE0
0E00
ENDCHAR
STARTCHAR 011B
ENCODING 283
SWIDTH 468 0
DWIDTH 13 0
BBX 13 24 0 0
BITMAP
6780
FF00
7E00
1C00
0000
7FE0
FFC0
7FC0
7FC0
7FC0
3F00
3C00
3E40
3FC0
3FC0
3F00
1E00
1FF0
1FF8
1FF8
1FF8
1FF8
1FE0
0E00
ENDCHAR
STARTCHAR 011C
ENCODING 284
SWIDTH 504 0
DWIDTH 14 0
BBX 14 24 0 0
BITMAP
0380
07C0
0FE0
1E70
0000
07E0
0FF0
0FF8
1FF8
3E30
3C00
3800
7800
78FC
79F8
78F8
78F8
78F8
FFF8
FFF8
7FF8
7FE0
3F80
0C00
ENDCHAR
STARTCHAR 011D
ENCODING 285
SWIDTH 504 0
DWIDTH 14 0
BBX 14 24 0 0
BITMAP
0380
07C0
0FE0
1E70
0000
07E0
0FF0
0FF8
1FF8
3E30
3C00
3800
7800
78FC
79F8
78F8
78F8
78F8
FFF8
FFF8
7FF8
7FE0
3F80
0C00
ENDCHAR
STARTCHAR 011E
ENCODING 286
SWIDTH 504 0
DWIDTH 14 0
BBX 14 24 0 0
BITMAP
1C70
0EF0
0FE0
07C0
0000
07E0
0FF0
0FF8
1FF8
3E30
3C00
3800
7800
78FC
79F8
78F8
78F8
78F8
FFF8
FFF8
7FF8
7FE0
3F80
0C00
ENDCHAR
STARTCHAR 011F
ENCODING 287
SWIDTH 504 0
DWIDTH 14 0
BBX 14 24 0 0
BITMAP
1C70
0EF0
0FE0
07C0
0000
07E0
0FF0
0FF8
1FF8
3E30
3C00
3800
7800
78FC
79F8
78F8
78F8
78F8
FFF8
FFF8
7FF8
7FE0
3F80
0C00
ENDCHAR
STARTCHAR 0120
ENCODING 288
SWIDTH 504 0
DWIDTH 14 0
BBX 14 22 0 0
BITMAP
0380
0380
0100
07E0
0FF0
0FF8
1FF8
3E30
3C00
3800
7800
78FC
79F8
78F8
78F8
78F8
FFF8
FFF8
7FF8
7FE0
3F80
0C00
ENDCHAR
STARTCHAR 0121
ENCODING 289
SWIDTH 504 0
DWIDTH 14 0
BBX 14 22 0 0
BITMAP
0380
0380
0100
07E0
0FF0
0FF8
1FF8
3E30
3C00
3800
7800
78FC
79F8
78F8
78F8
78F8
FFF8
FFF8
7FF8
7FE0
3F80
0C00
ENDCHAR
STARTCHAR 0122
ENCODING 290
SWIDTH 504 0
DWIDTH 14 0
BBX 14 24 0 -5
BITMAP
07E0
0FF0
0FF8
1FF8
3E30
3C00
3800
7800
78FC
79F8
78F8
78F8
78F8
FFF8
FFF8
7FF8
7FE0
3F80
0C00
0E00
0E00
1E00
1E00
0C00
ENDCHAR
STARTCHAR 0123
ENCODING 291
SWIDTH 504 0
DWIDTH 14 0
BBX 14 24 0 -5
BITMAP
07E0
0FF0
0FF8
1FF8
3E30
3C00
3800
7800
78FC
79F8
78F8
78F8
78F8
FFF8
FFF8
7FF8
7FE0
3F80
0C00
0E00
0E00
1E00
1E00
0C00
ENDCHAR
STARTCHAR 0124
ENCODING 292
SWIDTH 540 0
DWIDTH 15 0
BBX 14 24 1 0
BITMAP
00C0
03E0
07F0
0738
0000
1E00
7E3C
7E7C
7E7C
7E7C
7E7C
7E7C
7FFC
7FFC
7FFC
7FFC
FFFC
FFFC
FCFC
FCFC
FCFC
FCF8
FCF8
1880
ENDCHAR
STARTCHAR 0125
ENCODING 293
SWIDTH 540 0
DWIDTH 15 0
BBX 14 24 1 0
BITMAP
00C0
03E0
07F0
0738
0000
1E00
7E3C
7E7C
7E7C
7E7C
7E7C
7E7C
7FFC
7FFC
7FFC
7FFC
FFFC
FFFC
FCFC
FCFC
FCFC
FCF8
FCF8
1880
ENDCHAR
STARTCHAR 0126
ENCODING 294
SWIDTH 576 0
DWIDTH 16 0
BBX 16 19 0 0
BITMAP
0F00
3F1E
7FFF
7FFF
7FFF
FFFF
3F3E
3FFE
3FFE
3FFE
3FFE
7FFE
7FFE
7E7E
7E7E
7E7E
7E7C
7E7C
1440
ENDCHAR
STARTCHAR 0127
ENCODING 295
SWIDTH 576 0
DWIDTH 16 0
BBX 16 19 0 0
BITMAP
0F00
3F1E
7FFF
7FFF
7FFF
FFFF
3F3E
3FFE
3FFE
3FFE
3FFE
7FFE
7FFE
7E7E
7E7E
7E7E
7E7C
7E7C
1440
ENDCHAR
STARTCHAR 0128
ENCODING 296
SWIDTH 324 0
DWIDTH 9 0
BBX 10 24 0 0
BITMAP
19C0
3FC0
3FC0
3780
0000
1E00
3F80
1F00
3F00
3F00
3F00
3F00
3F00
3F00
3F00
3F00
3F00
3F00
3F00
3F00
3F00
7E00
7E00
F000
ENDCHAR
STARTCHAR 0129
ENCODING 297
SWIDTH 324 0
DWIDTH 9 0
BBX 10 24 0 0
BITMAP
19C0
3FC0
3FC0
3780
0000
1E00
3F80
1F00
3F00
3F00
3F00
3F00
3F00
3F00
3F00
3F00
3F00
3F00
3F00
3F00
3F00
7E00
7E00
F000
ENDCHAR
STARTCHAR 012A
ENCODING 298
SWIDTH 324 0
DWIDTH 9 0
BBX 10 22 0 0
BITMAP
3FC0
3FC0
0000
1E00
3F80
1F00
3F00
3F00
3F00
3F00
3F00
3F00
3F00
3F00
3F00
3F00
3F00
3F00
3F00
7E00
7E00
F000
ENDCHAR
STARTCHAR 012B
ENCODING 299
SWIDTH 324 0
DWIDTH 9 0
BBX 10 22 0 0
BITMAP
3FC0
3FC0
0000
1E00
3F80
1F00
3F00
3F00
3F00
3F00
3F00
3F00
3F00
3F00
3F00
3F00
3F00
3F00
3F00
7E00
7E00
F000
ENDCHAR
STARTCHAR 012C
ENCODING 300
SWIDTH 324 0
DWIDTH 9 0
BBX 10 24 0 0
BITMAP
30C0
3BC0
3F80
1F00
0000
1E00
3F80
1F00
3F00
3F00
3F00
3F00
3F00
3F00
3F00
3F00
3F00
3F00
3F00
3F00
3F00
7E00
7E00
F000
ENDCHAR
STARTCHAR 012D
ENCODING 301
SWIDTH 324 0
DWIDTH 9 0
BBX 10 24 0 0
BITMAP
30C0
3BC0
3F80
1F00
0000
1E00
3F80
1F00
3F00
3F00
3F00
3F00
3F00
3F00
3F00
3F00
3F00
3F00
3F00
3F00
3F00
7E00
7E00
F000
ENDCHAR
STARTCHAR 012E
ENCODING 302
SWIDTH 324 0
DWIDTH 9 0
BBX 9 24 0 -5
BITMAP
1E00
3F80
1F00
3F00
3F00
3F00
3F00
3F00
3F00
3F00
3F00
3F00
3F00
3F00
3F00
3F00
7E00
7E00
F800
3800
3000
3F80
3F80
1E00
ENDCHAR
STARTCHAR 012F
ENCODING 303
SWIDTH 324 0
DWIDTH 9 0
BBX 9 24 0 -5
BITMAP
1E00
3F80
1F00
3F00
3F00
3F00
3F00
3F00
3F00
3F00
3F00
3F00
3F00
3F00
3F00
3F00
7E00
7E00
F800
3800
3000
3F80
3F80
1E00
ENDCHAR
STARTCHAR 0130
ENCODING 304
SWIDTH 324 0
DWIDTH 9 0
BBX 9 23 0 0
BITMAP
0400
0600
0600
0000
1E00
3F80
1F00
3F00
3F00
3F00
3F00
3F00
3F00
3F00
3F00
3F00
3F00
3F00
3F00
3F00
7E00
7E00
F000
ENDCHAR
STARTCHAR 0131
ENCODING 305
SWIDTH 324 0
DWIDTH 9 0
BBX 9 23 0 0
BITMAP
0400
0600
0600
0000
1E00
3F80
1F00
3F00
3F00
3F00
3F00
3F00
3F00
3F00
3F00
3F00
3F00
3F00
3F00
3F00
7E00
7E00
F000
ENDCHAR
STARTCHAR 0132
ENCODING 306
SWIDTH 576 0
DWIDTH 16 0
BBX 16 19 0 0
BITMAP
1C1F
3E1F
3E1F
3E1F
3E1F
3E1F
3C1F
3C1F
3C1F
3C1F
7C1F
7C1F
7C0F
7DCF
7DFF
7DFF
7CFE
7CFC
F078
ENDCHAR
STARTCHAR 0133
ENCODING 307
SWIDTH 576 0
DWIDTH 16 0
BBX 16 19 0 0
BITMAP
1C1F
3E1F
3E1F
3E1F
3E1F
3E1F
3C1F
3C1F
3C1F
3C1F
7C1F
7C1F
7C0F
7DCF
7DFF
7DFF
7CFE
7CFC
F078
ENDCHAR
STARTCHAR 0134
ENCODING 308
SWIDTH 432 0
DWIDTH 12 0
BBX 13 24 0 0
BITMAP
01C0
03F0
07F8
0F30
0000
03F0
03F0
03F0
07F0
07F0
07F0
07F0
07F0
07F0
07F0
03F0
03F0
03F0
FBF0
7BF0
7FE0
7FE0
3FC0
0F80
ENDCHAR
STARTCHAR 0135
ENCODING 309
SWIDTH 432 0
DWIDTH 12 0
BBX 13 24 0 0
BITMAP
01C0
03F0
07F8
0F30
0000
03F0
03F0
03F0
07F0
07F0
07F0
07F0
07F0
07F0
07F0
03F0
03F0
03F0
FBF0
7BF0
7FE0
7FE0
3FC0
0F80
ENDCHAR
STARTCHAR 0136
ENCODING 310
SWIDTH 540 0
DWIDTH 15 0
BBX 15 24 0 -5
BITMAP
7F18
7F3C
7F7E
7F7C
7FF8
7FF0
7FF0
7FE0
7FE0
7FC0
FFC0
FFE0
FFF0
FFF8
FF78
FF7C
7F3E
7F3E
7E10
0180
03C0
03C0
0380
0100
ENDCHAR
STARTCHAR 0137
ENCODING 311
SWIDTH 540 0
DWIDTH 15 0
BBX 15 24 0 -5
BITMAP
7F18
7F3C
7F7E
7F7C
7FF8
7FF0
7FF0
7FE0
7FE0
7FC0
FFC0
FFE0
FFF0
FFF8
FF78
FF7C
7F3E
7F3E
7E10
0180
03C0
03C0
0380
0100
ENDCHAR
STARTCHAR 0138
ENCODING 312
SWIDTH 504 0
DWIDTH 14 0
BBX 14 15 0 0
BITMAP
7F30
7F7C
7F7C
7FF8
7FF0
7FE0
7FE0
7FC0
FFC0
FFE0
FFF0
FEF8
FE7C
7E3C
7F30
ENDCHAR
STARTCHAR 0139
ENCODING 313
SWIDTH 504 0
DWIDTH 14 0
BBX 13 24 1 0
BITMAP
01C0
03C0
0780
0700
0000
1F80
3F80
3F80
3F80
3F80
7F00
7F00
7F00
7F00
7F00
7F00
7E00
FE00
FFF0
FFF0
FFF0
FFF0
FFF8
FFE0
ENDCHAR
STARTCHAR 013A
ENCODING 314
SWIDTH 504 0
DWIDTH 14 0
BBX 13 24 1 0
BITMAP
01C0
03C0
0780
0700
0000
1F80
3F80
3F80
3F80
3F80
7F00
7F00
7F00
7F00
7F00
7F00
7E00
FE00
FFF0
FFF0
FFF0
FFF0
FFF8
FFE0
ENDCHAR
STARTCHAR 013B
ENCODING 315
SWIDTH 504 0
DWIDTH 14 0
BBX 13 24 1 -5
BITMAP
1F80
3F80
3F80
3F80
3F80
7F00
7F00
7F00
7F00
7F00
7F00
7E00
FE00
FFF0
FFF0
FFF0
FFF0
FFF8
FFE0
0600
0F00
0E00
1E00
0400
ENDCHAR
STARTCHAR 013C
ENCODING 316
SWIDTH 504 0
DWIDTH 14 0
BBX 13 24 1 -5
BITMAP
1F80
3F80
3F80
3F80
3F80
7F00
7F00
7F00
7F00
7F00
7F00
7E00
FE00
FFF0
FFF0
FFF0
FFF0
FFF8
FFE0
0600
0F00
0E00
1E00
0400
ENDCHAR
STARTCHAR 013D
ENCODING 317
SWIDTH 504 0
DWIDTH 14 0
BBX 13 20 1 0
BITMAP
0038
1FB8
3FB8
3FB8
3FB0
3FB0
7F20
7F00
7F00
7F00
7F00
7F00
7E00
FE00
FFF0
FFF0
FFF0
FFF0
FFF8
FFE0
ENDCHAR
STARTCHAR 013E
ENCODING 318
SWIDTH 504 0
DWIDTH 14 0
BBX 13 20 1 0
BITMAP
0038
1FB8
3FB8
3FB8
3FB0
3FB0
7F20
7F00
7F00
7F00
7F00
7F00
7E00
FE00
FFF0
FFF0
FFF0
FFF0
FFF8
FFE0
ENDCHAR
STARTCHAR 013F
ENCODING 319
SWIDTH 504 0
DWIDTH 14 0
BBX 13 19 1 0
BITMAP
1F80
3F80
3F80
3F80
3F80
7F00
7F00
7F00
7F60
7F60
7F60
7E00
FE00
FFF0
FFF0
FFF0
FFF0
FFF8
FFE0
ENDCHAR
STARTCHAR 0140
ENCODING 320
SWIDTH 504 0
DWIDTH 14 0
BBX 13 19 1 0
BITMAP
1F80
3F80
3F80
3F80
3F80
7F00
7F00
7F00
7F60
7F60
7F60
7E00
FE00
FFF0
FFF0
FFF0
FFF0
FFF8
FFE0
ENDCHAR
STARTCHAR 0141
ENCODING 321
SWIDTH 540 0
DWIDTH 15 0
BBX 15 19 0 0
BITMAP
07E0
0FE0
0FE0
1FE8
1FFC
1FFC
1FFC
1FF8
1FE0
1FC0
3F80
7F80
FF80
FFFC
FFFC
3FFC
3FFC
3FFE
3FF0
ENDCHAR
STARTCHAR 0142
ENCODING 322
SWIDTH 540 0
DWIDTH 15 0
BBX 15 19 0 0
BITMAP
07E0
0FE0
0FE0
1FE8
1FFC
1FFC
1FFC
1FF8
1FE0
1FC0
3F80
7F80
FF80
FFFC
FFFC
3FFC
3FFC
3FFE
3FF0
ENDCHAR
STARTCHAR 0143
ENCODING 323
SWIDTH 540 0
DWIDTH 15 0
BBX 14 24 1 0
BITMAP
0078
00F0
00E0
01C0
0000
1018
7E7C
7E7C
7E7C
7E7C
7E7C
FE7C
FF7C
FF7C
FF78
FFF8
FBF8
FBF8
FBF8
F9F8
F9F8
F9F8
F9F8
E020
ENDCHAR
STARTCHAR 0144
ENCODING 324
SWIDTH 540 0
DWIDTH 15 0
BBX 14 24 1 0
BITMAP
0078
00F0
00E0
01C0
0000
1018
7E7C
7E7C
7E7C
7E7C
7E7C
FE7C
FF7C
FF7C
FF78
FFF8
FBF8
FBF8
FBF8
F9F8
F9F8
F9F8
F9F8
E020
ENDCHAR
STARTCHAR 0145
ENCODING 325
SWIDTH 540 0
DWIDTH 15 0
BBX 14 24 1 -5
BITMAP
1018
7E7C
7E7C
7E7C
7E7C
7E7C
FE7C
FF7C
FF7C
FF78
FFF8
FBF8
FBF8
FBF8
F9F8
F9F8
F9F8
F9F8
E020
0600
0F00
0E00
1E00
0400
ENDCHAR
STARTCHAR 0146
ENCODING 326
SWIDTH 540 0
DWIDTH 15 0
BBX 14 24 1 -5
BITMAP
1018
7E7C
7E7C
7E7C
7E7C
7E7C
FE7C
FF7C
FF7C
FF78
FFF8
FBF8
FBF8
FBF8
F9F8
F9F8
F9F8
F9F8
E020
0600
0F00
0E00
1E00
0400
ENDCHAR
STARTCHAR 0147
ENCODING 327
SWIDTH 540 0
DWIDTH 15 0
BBX 14 24 1 0
BITMAP
0C30
0EF0
07E0
03C0
0100
1018
7E7C
7E7C
7E7C
7E7C
7E7C
FE7C
FF7C
FF7C
FF78
FFF8
FBF8
FBF8
FBF8
F9F8
F9F8
F9F8
F9F8
E020
ENDCHAR
STARTCHAR 0148
ENCODING 328
SWIDTH 540 0
DWIDTH 15 0
BBX 14 24 1 0
BITMAP
0C30
0EF0
07E0
03C0
0100
1018
7E7C
7E7C
7E7C
7E7C
7E7C
FE7C
FF7C
FF7C
FF78
FFF8
FBF8
FBF8
FBF8
F9F8
F9F8
F9F8
F9F8
E020
ENDCHAR
STARTCHAR 0149
ENCODING 329
SWIDTH 612 0
DWIDTH 17 0
BBX 17 20 0 0
BITMAP
780000
790200
7FEF80
7FEF80
7FCF80
77EF80
77EF80
F7EF80
67EF80
27FF80
0FFF00
0FFF00
0FBF00
0FBF00
0FBF00
0F9F00
0F9F00
0F9F00
0F9F00
0E0600
ENDCHAR
STARTCHAR 014A
ENCODING 330
SWIDTH 540 0
DWIDTH 15 0
BBX 14 23 1 -3
BITMAP
4000
E7C0
FFE0
FFF0
FFF0
FFF8
FFF8
F8F8
F0FC
F07C
F07C
F07C
F07C
F07C
F078
F078
F078
F078
F078
E1F8
07F8
07F0
03E0
ENDCHAR
STARTCHAR 014B
ENCODING 331
SWIDTH 540 0
DWIDTH 15 0
BBX 14 23 1 -3
BITMAP
4000
E7C0
FFE0
FFF0
FFF0
FFF8
FFF8
F8F8
F0FC
F07C
F07C
F07C
F07C
F07C
F078
F078
F078
F078
F078
E1F8
07F8
07F0
03E0
ENDCHAR
STARTCHAR 014C
ENCODING 332
SWIDTH 504 0
DWIDTH 14 0
BBX 15 22 0 0
BITMAP
7F80
7F80
0000
0F00
1FC0
1FE0
3FF0
3FF8
7FF8
7FFC
7C7C
7C7C
FC7C
7C7E
7EFC
7FFC
7FFC
7FFC
3FFC
3FF8
1FF0
07E0
ENDCHAR
STARTCHAR 014D
ENCODING 333
SWIDTH 504 0
DWIDTH 14 0
BBX 15 22 0 0
BITMAP
7F80
7F80
0000
0F00
1FC0
1FE0
3FF0
3FF8
7FF8
7FFC
7C7C
7C7C
FC7C
7C7E
7EFC
7FFC
7FFC
7FFC
3FFC
3FF8
1FF0
07E0
ENDCHAR
STARTCHAR 014E
ENCODING 334
SWIDTH 504 0
DWIDTH 14 0
BBX 15 24 0 0
BITMAP
71C0
3F80
3F80
1F00
0000
0F00
1FC0
1FE0
3FF0
3FF8
7FF8
7FFC
7C7C
7C7C
FC7C
7C7E
7EFC
7FFC
7FFC
7FFC
3FFC
3FF8
1FF0
07E0
ENDCHAR
STARTCHAR 014F
ENCODING 335
SWIDTH 504 0
DWIDTH 14 0
BBX 15 24 0 0
BITMAP
71C0
3F80
3F80
1F00
0000
0F00
1FC0
1FE0
3FF0
3FF8
7FF8
7FFC
7C7C
7C7C
FC7C
7C7E
7EFC
7FFC
7FFC
7FFC
3FFC
3FF8
1FF0
07E0
ENDCHAR
STARTCHAR 0150
ENCODING 336
SWIDTH 504 0
DWIDTH 14 0
BBX 15 24 0 0
BITMAP
1EF0
1EE0
3DE0
39C0
0000
0F00
1FC0
1FE0
3FF0
3FF8
7FF8
7FFC
7C7C
7C7C
FC7C
7C7E
7EFC
7FFC
7FFC
7FFC
3FFC
3FF8
1FF0
07E0
ENDCHAR
STARTCHAR 0151
ENCODING 337
SWIDTH 504 0
DWIDTH 14 0
BBX 15 24 0 0
BITMAP
1EF0
1EE0
3DE0
39C0
0000
0F00
1FC0
1FE0
3FF0
3FF8
7FF8
7FFC
7C7C
7C7C
FC7C
7C7E
7EFC
7FFC
7FFC
7FFC
3FFC
3FF8
1FF0
07E0
ENDCHAR
STARTCHAR 0152
ENCODING 338
SWIDTH 720 0
DWIDTH 20 0
BBX 20 19 0 0
BITMAP
01FF80
03FF80
0FFF80
1FFF80
1FFF80
3FFF00
7FF800
7C7800
7C7F00
7C7F80
FC7F80
FC7C00
7FFFE0
7FFFE0
7FFFF0
7FFFF0
3FFFF0
3FFFC0
0FFC00
ENDCHAR
STARTCHAR 0153
ENCODING 339
SWIDTH 720 0
DWIDTH 20 0
BBX 20 19 0 0
BITMAP
01FF80
03FF80
0FFF80
1FFF80
1FFF80
3FFF00
7FF800
7C7800
7C7F00
7C7F80
FC7F80
FC7C00
7FFFE0
7FFFE0
7FFFF0
7FFFF0
3FFFF0
3FFFC0
0FFC00
ENDCHAR
STARTCHAR 0154
ENCODING 340
SWIDTH 576 0
DWIDTH 16 0
BBX 16 24 0 0
BITMAP
0780
0F00
0E00
1C00
0000
0F80
7FE0
FFF8
7E78
7E38
7E3C
7E3C
7F78
7FF8
7FF0
7FE0
7FF0
7FF8
7F78
7F7C
7F3C
7F3E
3F1F
3F1E
ENDCHAR
STARTCHAR 0155
ENCODING 341
SWIDTH 576 0
DWIDTH 16 0
BBX 16 24 0 0
BITMAP
0780
0F00
0E00
1C00
0000
0F80
7FE0
FFF8
7E78
7E38
7E3C
7E3C
7F78
7FF8
7FF0
7FE0
7FF0
7FF8
7F78
7F7C
7F3C
7F3E
3F1F
3F1E
ENDCHAR
STARTCHAR 0156
ENCODING 342
SWIDTH 576 0
DWIDTH 16 0
BBX 16 24 0 -5
BITMAP
0F80
7FE0
FFF8
7E78
7E38
7E3C
7E3C
7F78
7FF8
7FF0
7FE0
7FF0
7FF8
7F78
7F7C
7F3C
7F3E
3F1F
3F1E
00E0
01E0
01E0
01C0
0080
ENDCHAR
STARTCHAR 0157
ENCODING 343
SWIDTH 576 0
DWIDTH 16 0
BBX 16 24 0 -5
BITMAP
0F80
7FE0
FFF8
7E78
7E38
7E3C
7E3C
7F78
7FF8
7FF0
7FE0
7FF0
7FF8
7F78
7F7C
7F3C
7F3E
3F1F
3F1E
00E0
01E0
01E0
01C0
0080
ENDCHAR
STARTCHAR 0158
ENCODING 344
SWIDTH 576 0
DWIDTH 16 0
BBX 16 24 0 0
BITMAP
6380
FF00
7E00
1C00
0000
0F80
7FE0
FFF8
7E78
7E38
7E3C
7E3C
7F78
7FF8
7FF0
7FE0
7FF0
7FF8
7F78
7F7C
7F3C
7F3E
3F1F
3F1E
ENDCHAR
STARTCHAR 0159
ENCODING 345
SWIDTH 576 0
DWIDTH 16 0
BBX 16 24 0 0
BITMAP
6380
FF00
7E00
1C00
0000
0F80
7FE0
FFF8
7E78
7E38
7E3C
7E3C
7F78
7FF8
7FF0
7FE0
7FF0
7FF8
7F78
7F7C
7F3C
7F3E
3F1F
3F1E
ENDCHAR
STARTCHAR 015A
ENCODING 346
SWIDTH 504 0
DWIDTH 14 0
BBX 14 24 0 0
BITMAP
00F0
00E0
01C0
01C0
0000
0FFC
1FF8
1FF8
3FF0
3FF0
7FE0
7FE0
7C20
3F00
3FC0
1FF0
03F0
00F8
60F8
7FF8
FFF8
FFF0
7FE0
1FC0
ENDCHAR
STARTCHAR 015B
ENCODING 347
SWIDTH 504 0
DWIDTH 14 0
BBX 14 24 0 0
BITMAP
00F0
00E0
01C0
01C0
0000
0FFC
1FF8
1FF8
3FF0
3FF0
7FE0
7FE0
7C20
3F00
3FC0
1FF0
03F0
00F8
60F8
7FF8
FFF8
FFF0
7FE0
1FC0
ENDCHAR
STARTCHAR 015C
ENCODING 348
SWIDTH 504 0
DWIDTH 14 0
BBX 14 24 0 0
BITMAP
0180
07C0
0FF0
0E70
0000
0FFC
1FF8
1FF8
3FF0
3FF0
7FE0
7FE0
7C20
3F00
3FC0
1FF0
03F0
00F8
60F8
7FF8
FFF8
FFF0
7FE0
1FC0
ENDCHAR
STARTCHAR 015D
ENCODING 349
SWIDTH 504 0
DWIDTH 14 0
BBX 14 24 0 0
BITMAP
0180
07C0
0FF0
0E70
0000
0FFC
1FF8
1FF8
3FF0
3FF0
7FE0
7FE0
7C20
3F00
3FC0
1FF0
03F0
00F8
60F8
7FF8
FFF8
FFF0
7FE0
1FC0
ENDCHAR
STARTCHAR 015E
ENCODING 350
SWIDTH 504 0
DWIDTH 14 0
BBX 14 24 0 -5
BITMAP
0FFC
1FF8
1FF8
3FF0
3FF0
7FE0
7FE0
7C20
3F00
3FC0
1FF0
03F0
00F8
60F8
7FF8
FFF8
FFF0
7FE0
1FC0
0700
03C0
19C0
1FC0
0F00
ENDCHAR
STARTCHAR 015F
ENCODING 351
SWIDTH 504 0
DWIDTH 14 0
BBX 14 24 0 -5
BITMAP
0FFC
1FF8
1FF8
3FF0
3FF0
7FE0
7FE0
7C20
3F00
3FC0
1FF0
03F0
00F8
60F8
7FF8
FFF8
FFF0
7FE0
1FC0
0700
03C0
19C0
1FC0
0F00
ENDCHAR
STARTCHAR 0160
ENCODING 352
SWIDTH 504 0
DWIDTH 14 0
BBX 14 24 0 0
BITMAP
0C70
0FF0
07E0
03C0
0000
0FFC
1FF8
1FF8
3FF0
3FF0
7FE0
7FE0
7C20
3F00
3FC0
1FF0
03F0
00F8
60F8
7FF8
FFF8
FFF0
7FE0
1FC0
ENDCHAR
STARTCHAR 0161
ENCODING 353
SWIDTH 504 0
DWIDTH 14 0
BBX 14 24 0 0
BITMAP
0C70
0FF0
07E0
03C0
0000
0FFC
1FF8
1FF8
3FF0
3FF0
7FE0
7FE0
7C20
3F00
3FC0
1FF0
03F0
00F8
60F8
7FF8
FFF8
FFF0
7FE0
1FC0
ENDCHAR
STARTCHAR 0162
ENCODING 354
SWIDTH 576 0
DWIDTH 16 0
BBX 16 24 0 -5
BITMAP
3FFC
7FFE
7FFE
7FFE
7FFF
FFF8
63E0
03C0
03C0
03C0
03C0
03C0
03C0
03C0
03C0
03C0
03C0
03C0
03C0
01C0
00F0
0670
07F0
01C0
ENDCHAR
STARTCHAR 0163
ENCODING 355
SWIDTH 576 0
DWIDTH 16 0
BBX 16 24 0 -5
BITMAP
3FFC
7FFE
7FFE
7FFE
7FFF
FFF8
63E0
03C0
03C0
03C0
03C0
03C0
03C0
03C0
03C0
03C0
03C0
03C0
03C0
01C0
00F0
0670
07F0
01C0
ENDCHAR
STARTCHAR 0164
ENCODING 356
SWIDTH 576 0
DWIDTH 16 0
BBX 16 24 0 0
BITMAP
0E30
0F70
07E0
03C0
0000
3FFC
7FFE
7FFE
7FFE
7FFF
FFF8
63E0
03C0
03C0
03C0
03C0
03C0
03C0
03C0
03C0
03C0
03C0
03C0
03C0
ENDCHAR
STARTCHAR 0165
ENCODING 357
SWIDTH 576 0
DWIDTH 16 0
BBX 16 24 0 0
BITMAP
0E30
0F70
07E0
03C0
0000
3FFC
7FFE
7FFE
7FFE
7FFF
FFF8
63E0
03C0
03C0
03C0
03C0
03C0
03C0
03C0
03C0
03C0
03C0
03C0
03C0
ENDCHAR
STARTCHAR 0166
ENCODING 358
SWIDTH 576 0
DWIDTH 16 0
BBX 16 19 0 0
BITMAP
3FFC
7FFE
7FFE
7FFE
7FFF
FFF8
63E0
03C0
03C8
3FFC
3FFC
3FFC
03C0
03C0
03C0
03C0
03C0
03C0
03C0
ENDCHAR
STARTCHAR 0167
ENCODING 359
SWIDTH 576 0
DWIDTH 16 0
BBX 16 19 0 0
BITMAP
3FFC
7FFE
7FFE
7FFE
7FFF
FFF8
63E0
03C0
03C8
3FFC
3FFC
3FFC
03C0
03C0
03C0
03C0
03C0
03C0
03C0
ENDCHAR
STARTCHAR 0168
ENCODING 360
SWIDTH 540 0
DWIDTH 15 0
BBX 15 23 0 1
BITMAP
0338
07F8
07F8
06F0
0000
3C3C
3C3E
3C1E
7C3E
7C3E
7C3E
7C3E
7C3E
7C3E
FC3E
7E7E
7FFC
7FFC
7FFC
7FF8
3FF0
3FF0
0FE0
ENDCHAR
STARTCHAR 0169
ENCODING 361
SWIDTH 540 0
DWIDTH 15 0
BBX 15 23 0 1
BITMAP
0338
07F8
07F8
06F0
0000
3C3C
3C3E
3C1E
7C3E
7C3E
7C3E
7C3E
7C3E
7C3E
FC3E
7E7E
7FFC
7FFC
7FFC
7FF8
3FF0
3FF0
0FE0
ENDCHAR
STARTCHAR 016A
ENCODING 362
SWIDTH 540 0
DWIDTH 15 0
BBX 15 21 0 1
BITMAP
07F8
07F8
0000
3C3C
3C3E
3C1E
7C3E
7C3E
7C3E
7C3E
7C3E
7C3E
FC3E
7E7E
7FFC
7FFC
7FFC
7FF8
3FF0
3FF0
0FE0
ENDCHAR
STARTCHAR 016B
ENCODING 363
SWIDTH 540 0
DWIDTH 15 0
BBX 15 21 0 1
BITMAP
07F8
07F8
0000
3C3C
3C3E
3C1E
7C3E
7C3E
7C3E
7C3E
7C3E
7C3E
FC3E
7E7E
7FFC
7FFC
7FFC
7FF8
3FF0
3FF0
0FE0
ENDCHAR
STARTCHAR 016C
ENCODING 364
SWIDTH 540 0
DWIDTH 15 0
BBX 15 23 0 1
BITMAP
0618
07B8
03F0
01F0
0000
3C3C
3C3E
3C1E
7C3E
7C3E
7C3E
7C3E
7C3E
7C3E
FC3E
7E7E
7FFC
7FFC
7FFC
7FF8
3FF0
3FF0
0FE0
ENDCHAR
STARTCHAR 016D
ENCODING 365
SWIDTH 540 0
DWIDTH 15 0
BBX 15 23 0 1
BITMAP
0618
07B8
03F0
01F0
0000
3C3C
3C3E
3C1E
7C3E
7C3E
7C3E
7C3E
7C3E
7C3E
FC3E
7E7E
7FFC
7FFC
7FFC
7FF8
3FF0
3FF0
0FE0
ENDCHAR
STARTCHAR 016E
ENCODING 366
SWIDTH 540 0
DWIDTH 15 0
BBX 15 24 0 1
BITMAP
03E0
0770
0E38
0E38
07F0
03E0
3C3C
3C3E
3C1E
7C3E
7C3E
7C3E
7C3E
7C3E
7C3E
FC3E
7E7E
7FFC
7FFC
7FFC
7FF8
3FF0
3FF0
0FE0
ENDCHAR
STARTCHAR 016F
ENCODING 367
SWIDTH 540 0
DWIDTH 15 0
BBX 15 24 0 1
BITMAP
03E0
0770
0E38
0E38
07F0
03E0
3C3C
3C3E
3C1E
7C3E
7C3E
7C3E
7C3E
7C3E
7C3E
FC3E
7E7E
7FFC
7FFC
7FFC
7FF8
3FF0
3FF0
0FE0
ENDCHAR
STARTCHAR 0170
ENCODING 368
SWIDTH 540 0
DWIDTH 15 0
BBX 15 23 0 1
BITMAP
01DE
03DE
07BC
0738
0000
3C3C
3C3E
3C1E
7C3E
7C3E
7C3E
7C3E
7C3E
7C3E
FC3E
7E7E
7FFC
7FFC
7FFC
7FF8
3FF0
3FF0
0FE0
ENDCHAR
STARTCHAR 0171
ENCODING 369
SWIDTH 540 0
DWIDTH 15 0
BBX 15 23 0 1
BITMAP
01DE
03DE
07BC
0738
0000
3C3C
3C3E
3C1E
7C3E
7C3E
7C3E
7C3E
7C3E
7C3E
FC3E
7E7E
7FFC
7FFC
7FFC
7FF8
3FF0
3FF0
0FE0
ENDCHAR
STARTCHAR 0172
ENCODING 370
SWIDTH 540 0
DWIDTH 15 0
BBX 15 23 0 -5
BITMAP
3C3C
3C3E
3C1E
7C3E
7C3E
7C3E
7C3E
7C3E
7C3E
FC3E
7E7E
7FFC
7FFC
7FFC
7FF8
3FF0
3FF0
0FE0
0300
0600
0600
0FF0
07F0
ENDCHAR
STARTCHAR 0173
ENCODING 371
SWIDTH 540 0
DWIDTH 15 0
BBX 15 23 0 -5
BITMAP
3C3C
3C3E
3C1E
7C3E
7C3E
7C3E
7C3E
7C3E
7C3E
FC3E
7E7E
7FFC
7FFC
7FFC
7FF8
3FF0
3FF0
0FE0
0300
0600
0600
0FF0
07F0
ENDCHAR
STARTCHAR 0174
ENCODING 372
SWIDTH 720 0
DWIDTH 20 0
BBX 20 24 0 0
BITMAP
00E000
01F800
03FC00
039C00
000000
7801C0
7C61F0
FC73E0
7C73E0
7E73E0
7E77C0
3F7FC0
3F7FC0
3FFFC0
1FFFC0
1FFFC0
0FFF80
0FEF80
07CF80
07CF80
038F80
038780
018700
008000
ENDCHAR
STARTCHAR 0175
ENCODING 373
SWIDTH 720 0
DWIDTH 20 0
BBX 20 24 0 0
BITMAP
00E000
01F800
03FC00
039C00
000000
7801C0
7C61F0
FC73E0
7C73E0
7E73E0
7E77C0
3F7FC0
3F7FC0
3FFFC0
1FFFC0
1FFFC0
0FFF80
0FEF80
07CF80
07CF80
038F80
038780
018700
008000
ENDCHAR
STARTCHAR 0176
ENCODING 374
SWIDTH 612 0
DWIDTH 17 0
BBX 16 24 1 0
BITMAP
0380
07C0
0FE0
1C60
0000
001F
F01E
F83E
F83C
FC7C
7C78
7EF8
3EF0
3FF0
1FE0
1FE0
0FC0
07C0
07C0
07C0
07C0
07C0
07C0
03C0
ENDCHAR
STARTCHAR 0177
ENCODING 375
SWIDTH 612 0
DWIDTH 17 0
BBX 16 24 1 0
BITMAP
0380
07C0
0FE0
1C60
0000
001F
F01E
F83E
F83C
FC7C
7C78
7EF8
3EF0
3FF0
1FE0
1FE0
0FC0
07C0
07C0
07C0
07C0
07C0
07C0
03C0
ENDCHAR
STARTCHAR 0178
ENCODING 376
SWIDTH 612 0
DWIDTH 17 0
BBX 16 23 1 0
BITMAP
0040
0E60
0E60
0400
001F
F01E
F83E
F83C
FC7C
7C78
7EF8
3EF0
3FF0
1FE0
1FE0
0FC0
07C0
07C0
07C0
07C0
07C0
07C0
03C0
ENDCHAR
STARTCHAR 0179
ENCODING 377
SWIDTH 576 0
DWIDTH 16 0
BBX 16 24 0 0
BITMAP
00F0
01E0
01C0
0380
0000
07FC
3FF8
7FF8
7FF0
FFF0
01E0
03E0
03C0
03C0
07C0
0780
0780
0F80
0F00
0FFF
1FFF
1FFF
03FE
00F0
ENDCHAR
STARTCHAR 017A
ENCODING 378
SWIDTH 576 0
DWIDTH 16 0
BBX 16 24 0 0
BITMAP
00F0
01E0
01C0
0380
0000
07FC
3FF8
7FF8
7FF0
FFF0
01E0
03E0
03C0
03C0
07C0
0780
0780
0F80
0F00
0FFF
1FFF
1FFF
03FE
00F0
ENDCHAR
STARTCHAR 017B
ENCODING 379
SWIDTH 576 0
DWIDTH 16 0
BBX 16 23 0 0
BITMAP
0100
0380
0380
0000
07FC
3FF8
7FF8
7FF0
FFF0
01E0
03E0
03C0
03C0
07C0
0780
0780
0F80
0F00
0FFF
1FFF
1FFF
03FE
00F0
ENDCHAR
STARTCHAR 017C
ENCODING 380
SWIDTH 576 0
DWIDTH 16 0
BBX 16 23 0 0
BITMAP
0100
0380
0380
0000
07FC
3FF8
7FF8
7FF0
FFF0
01E0
03E0
03C0
03C0
07C0
0780
0780
0F80
0F00
0FFF
1FFF
1FFF
03FE
00F0
ENDCHAR
STARTCHAR 017D
ENCODING 381
SWIDTH 576 0
DWIDTH 16 0
BBX 16 24 0 0
BITMAP
1C60
1FE0
0FE0
0380
0000
07FC
3FF8
7FF8
7FF0
FFF0
01E0
03E0
03C0
03C0
07C0
0780
0780
0F80
0F00
0FFF
1FFF
1FFF
03FE
00F0
ENDCHAR
STARTCHAR 017E
ENCODING 382
SWIDTH 576 0
DWIDTH 16 0
BBX 16 24 0 0
BITMAP
1C60
1FE0
0FE0
0380
0000
07FC
3FF8
7FF8
7FF0
FFF0
01E0
03E0
03C0
03C0
07C0
0780
0780
0F80
0F00
0FFF
1FFF
1FFF
03FE
00F0
ENDCHAR
STARTCHAR 017F
ENCODING 383
SWIDTH 432 0
DWIDTH 12 0
BBX 12 23 0 -4
BITMAP
1FC0
3FE0
7FF0
7EF0
F840
F800
7800
7800
7800
7800
7800
7800
7C00
7800
7C00
7C00
7C00
7C00
7C00
7C00
7C00
3C00
3C00
ENDCHAR
STARTCHAR 0180
ENCODING 384
SWIDTH 504 0
DWIDTH 14 0
BBX 14 19 0 0
BITMAP
3F80
7FC0
FFE0
7FE0
7DF0
7CF0
7CE0
7CE0
7FC0
3FF0
3FF8
3E78
7F7C
FFBC
7F7C
3FFC
3FF0
3FF0
1F00
ENDCHAR
STARTCHAR 0181
ENCODING 385
SWIDTH 648 0
DWIDTH 18 0
BBX 18 19 0 0
BITMAP
0FF800
3FFE00
7FFE00
7FFF00
7FCF00
F7C700
F3C700
73EF00
73FE00
7BFF00
3BFF80
3BF7C0
03E3C0
03E7C0
03F7C0
01FFC0
01FF80
01FF00
00F000
ENDCHAR
STARTCHAR 0186
ENCODING 390
SWIDTH 468 0
DWIDTH 13 0
BBX 13 19 0 0
BITMAP
1E00
7FC0
FFE0
FFF0
7FF8
2FF8
01F8
01F8
00F8
00F8
41F8
7FF8
7FF8
7FF8
7FF0
7FF0
3FE0
3FE0
0600
ENDCHAR
STARTCHAR 0187
ENCODING 391
SWIDTH 468 0
DWIDTH 13 0
BBX 13 24 0 0
BITMAP
0078
00F8
01F8
03F8
03E0
03E0
0FF0
3FF8
3FF8
7FF8
7FC0
7E00
7C00
FC00
7C00
FE08
7FF8
7FF8
7FF8
7FF8
3FF8
3FF0
1FE0
0180
ENDCHAR
STARTCHAR 0188
ENCODING 392
SWIDTH 468 0
DWIDTH 13 0
BBX 13 24 0 0
BITMAP
0078
00F8
01F8
03F8
03E0
03E0
0FF0
3FF8
3FF8
7FF8
7FC0
7E00
7C00
FC00
7C00
FE08
7FF8
7FF8
7FF8
7FF8
3FF8
3FF0
1FE0
0180
ENDCHAR
STARTCHAR 0189
ENCODING 393
SWIDTH 468 0
DWIDTH 13 0
BBX 13 19 0 0
BITMAP
3E00
7FC0
7FE0
7FE0
7FF0
7EF8
7F38
FF38
FF78
FFF8
FEF8
3FF0
3FF0
1FE0
1FE0
1FC0
1F80
0E00
0800
ENDCHAR
STARTCHAR 018A
ENCODING 394
SWIDTH 612 0
DWIDTH 17 0
BBX 17 19 0 0
BITMAP
0FE000
3FFC00
7FFE00
7FFE00
7FFF00
F7EF80
F7C380
73C380
73E780
7BE780
3BEF80
3BFF00
03FF00
01FE00
01FC00
01FC00
01F800
00E000
008000
ENDCHAR
STARTCHAR 018F
ENCODING 399
SWIDTH 468 0
DWIDTH 13 0
BBX 12 19 1 0
BITMAP
3F00
FF80
FFC0
FFC0
63E0
01E0
00E0
FFF0
FFF0
FFF0
FFF0
F9F0
F9F0
FFF0
FFF0
FFF0
7FE0
3FC0
0780
ENDCHAR
STARTCHAR 0190
ENCODING 400
SWIDTH 468 0
DWIDTH 13 0
BBX 13 19 0 0
BITMAP
1FC0
3FE0
7FF0
7E30
FC00
F800
7C00
7C00
3FC0
1FE0
3FC0
3E00
3C00
7C00
7E38
3FF8
3FF8
1FF0
0FE0
ENDCHAR
STARTCHAR 0191
ENCODING 401
SWIDTH 504 0
DWIDTH 14 0
BBX 16 24 -2 -4
BITMAP
0018
0FFE
3FFE
3FFE
3FFF
3F00
3F00
3F00
1FE0
1FC0
1FE0
3FA0
1E00
3E00
1E00
3F00
3F00
3F00
3F00
3E00
FE00
FE00
FC00
4000
ENDCHAR
STARTCHAR 0192
ENCODING 402
SWIDTH 504 0
DWIDTH 14 0
BBX 16 24 -2 -4
BITMAP
0018
0FFE
3FFE
3FFE
3FFF
3F00
3F00
3F00
1FE0
1FC0
1FE0
3FA0
1E00
3E00
1E00
3F00
3F00
3F00
3F00
3E00
FE00
FE00
FC00
4000
ENDCHAR
STARTCHAR 0193
ENCODING 403
SWIDTH 504 0
DWIDTH 14 0
BBX 14 24 0 0
BITMAP
003C
00FC
01FC
01FC
01F0
07F0
0FF0
0FF8
1FF8
3E30
3C00
3800
7800
78FC
79F8
78F8
78F8
78F8
FFF8
FFF8
7FF8
7FE0
3F80
0C00
ENDCHAR
STARTCHAR 0194
ENCODING 404
SWIDTH 612 0
DWIDTH 17 0
BBX 16 22 1 -4
BITMAP
E000
F01C
F03F
F83E
787E
787C
7C7C
3CF8
3EF8
1EF0
1FF0
0FE0
07E0
07C0
0FE0
1FE0
1CE0
1CE0
1CE0
1FE0
0FC0
0780
ENDCHAR
STARTCHAR 0197
ENCODING 407
SWIDTH 360 0
DWIDTH 10 0
BBX 10 19 0 0
BITMAP
0F00
1F80
1F80
1F80
1F80
1F00
3F00
3F00
FFC0
FFC0
FFC0
3F00
3F00
3F00
3F00
3F00
3F00
3F00
7800
ENDCHAR
STARTCHAR 0198
ENCODING 408
SWIDTH 576 0
DWIDTH 16 0
BBX 17 19 0 0
BITMAP
7F1C00
7F3E00
7F7F00
7F7F00
7FF780
7FF700
7FE700
7FEF00
7FCE00
7FCE00
FFC000
FFE000
FFF000
FFF800
FF7800
FF7C00
7F3E00
7F3E00
7E1000
ENDCHAR
STARTCHAR 0199
ENCODING 409
SWIDTH 576 0
DWIDTH 16 0
BBX 17 19 0 0
BITMAP
7F1C00
7F3E00
7F7F00
7F7F00
7FF780
7FF700
7FE700
7FEF00
7FCE00
7FCE00
FFC000
FFE000
FFF000
FFF800
FF7800
FF7C00
7F3E00
7F3E00
7E1000
ENDCHAR
STARTCHAR 019D
ENCODING 413
SWIDTH 540 0
DWIDTH 15 0
BBX 17 23 -2 -4
BITMAP
020300
0FCF80
0FCF80
0FCF80
0FCF80
0FCF80
1FCF80
1FEF80
1FEF80
1FEF00
1FFF00
1F7F00
1F7F00
1F7F00
1F3F00
1F3F00
1F3F00
3F3F00
3E0400
FE0000
FE0000
FC0000
400000
ENDCHAR
STARTCHAR 01A0
ENCODING 416
SWIDTH 540 0
DWIDTH 15 0
BBX 15 20 0 0
BITMAP
000E
0F0E
1FCE
1FE6
3FF6
3FFE
7FFE
7FFC
7C7C
7C7C
FC7C
7C7E
7EFC
7FFC
7FFC
7FFC
3FFC
3FF8
1FF0
07E0
ENDCHAR
STARTCHAR 01A1
ENCODING 417
SWIDTH 540 0
DWIDTH 15 0
BBX 15 20 0 0
BITMAP
000E
0F0E
1FCE
1FE6
3FF6
3FFE
7FFE
7FFC
7C7C
7C7C
FC7C
7C7E
7EFC
7FFC
7FFC
7FFC
3FFC
3FF8
1FF0
07E0
ENDCHAR
STARTCHAR 01AF
ENCODING 431
SWIDTH 576 0
DWIDTH 16 0
BBX 16 20 0 0
BITMAP
0007
0033
78F3
7873
707B
787F
787F
787E
787C
787C
F87C
78FC
7FFC
7FF8
7FF8
3FF8
3FF0
1FF0
0FE0
0780
ENDCHAR
STARTCHAR 01B0
ENCODING 432
SWIDTH 576 0
DWIDTH 16 0
BBX 16 20 0 0
BITMAP
0007
0033
78F3
7873
707B
787F
787F
787E
787C
787C
F87C
78FC
7FFC
7FF8
7FF8
3FF8
3FF0
1FF0
0FE0
0780
ENDCHAR
STARTCHAR 01B1
ENCODING 433
SWIDTH 612 0
DWIDTH 17 0
BBX 17 19 0 0
BITMAP
FF3F80
FF3F80
FE3F80
7E3F80
1E1E00
3C1E00
3C0F00
780F00
780F00
780F00
780F00
7C0F00
7C1F00
7FFF00
7FFE00
3FFE00
3FFC00
1FF800
0FE000
ENDCHAR
STARTCHAR 01B2
ENCODING 434
SWIDTH 540 0
DWIDTH 15 0
BBX 15 18 0 1
BITMAP
71E0
F1F0
F8F8
78FC
787C
F83E
F83E
7C3E
7C3E
7C3E
7E7E
7FFE
3FFE
3FFE
3FFC
1FFC
0FF8
07F0
ENDCHAR
STARTCHAR 01B3
ENCODING 435
SWIDTH 648 0
DWIDTH 18 0
BBX 17 19 1 0
BITMAP
001E00
F03F00
F83F80
F87F80
FC7F80
7CFB80
7EFB80
3EF380
3FF780
1FE780
1FE700
0FC600
07C000
07C000
07C000
07C000
07C000
07C000
03C000
ENDCHAR
STARTCHAR 01B4
ENCODING 436
SWIDTH 648 0
DWIDTH 18 0
BBX 17 19 1 0
BITMAP
001E00
F03F00
F83F80
F87F80
FC7F80
7CFB80
7EFB80
3EF380
3FF780
1FE780
1FE700
0FC600
07C000
07C000
07C000
07C000
07C000
07C000
03C000
ENDCHAR
STARTCHAR 01B5
ENCODING 437
SWIDTH 576 0
DWIDTH 16 0
BBX 16 19 0 0
BITMAP
07FC
3FF8
7FF8
7FF0
FFF0
01E0
03E0
03FC
3FFC
3FFC
3FFC
0780
0F80
0F00
0FFF
1FFF
1FFF
03FE
00F0
ENDCHAR
STARTCHAR 01B6
ENCODING 438
SWIDTH 576 0
DWIDTH 16 0
BBX 16 19 0 0
BITMAP
07FC
3FF8
7FF8
7FF0
FFF0
01E0
03E0
03FC
3FFC
3FFC
3FFC
0780
0F80
0F00
0FFF
1FFF
1FFF
03FE
00F0
ENDCHAR
STARTCHAR 01B7
ENCODING 439
SWIDTH 468 0
DWIDTH 13 0
BBX 13 19 0 0
BITMAP
3FE0
7FF0
7FF0
00E0
01C0
03C0
0FC0
1FE0
3FF0
3FF8
0078
0078
0038
C038
FCF8
FFF8
7FF0
3FF0
0FC0
ENDCHAR
STARTCHAR 01BB
ENCODING 443
SWIDTH 504 0
DWIDTH 14 0
BBX 14 19 0 0
BITMAP
1F00
3FC0
7FE0
FFE0
7BE0
31E0
01E0
3FF8
3FFC
3FFC
3F80
07FC
0FFC
0FF8
1FF8
1FF8
7FF8
3FE0
0700
ENDCHAR
STARTCHAR 01C0
ENCODING 448
SWIDTH 180 0
DWIDTH 5 0
BBX 5 19 0 0
BITMAP
78
78
78
78
78
78
78
78
78
78
78
78
78
78
78
F8
78
78
78
ENDCHAR
STARTCHAR 01C1
ENCODING 449
SWIDTH 288 0
DWIDTH 8 0
BBX 8 19 0 0
BITMAP
77
77
77
77
77
77
77
77
77
77
77
77
77
77
77
F7
77
77
77
ENDCHAR
STARTCHAR 01C2
ENCODING 450
SWIDTH 324 0
DWIDTH 9 0
BBX 9 19 0 0
BITMAP
1C00
1E00
1E00
3E00
3F80
7F80
7F80
FF80
5E00
1E00
1E00
1E00
7F80
7F80
FF80
5E00
1E00
1E00
1E00
ENDCHAR
STARTCHAR 01C3
ENCODING 451
SWIDTH 180 0
DWIDTH 5 0
BBX 6 19 0 0
BITMAP
78
78
78
78
7C
78
78
78
78
78
78
78
20
00
30
F8
F8
78
30
ENDCHAR
STARTCHAR 01CA
ENCODING 458
SWIDTH 720 0
DWIDTH 20 0
BBX 20 19 0 0
BITMAP
1000F0
3DE1F0
3DE1F0
7DE1F0
7DE1F0
7DE1F0
7DE1F0
7DE1F0
7FE1F0
7FE1F0
7FC1F0
7FC1F0
7FC0F0
7BCEF0
7BCEF0
7BCFE0
7BCFE0
FBC7C0
E08380
ENDCHAR
STARTCHAR 01CB
ENCODING 459
SWIDTH 720 0
DWIDTH 20 0
BBX 20 19 0 0
BITMAP
1000F0
3DE1F0
3DE1F0
7DE1F0
7DE1F0
7DE1F0
7DE1F0
7DE1F0
7FE1F0
7FE1F0
7FC1F0
7FC1F0
7FC0F0
7BCEF0
7BCEF0
7BCFE0
7BCFE0
FBC7C0
E08380
ENDCHAR
STARTCHAR 01CC
ENCODING 460
SWIDTH 720 0
DWIDTH 20 0
BBX 20 19 0 0
BITMAP
1000F0
3DE1F0
3DE1F0
7DE1F0
7DE1F0
7DE1F0
7DE1F0
7DE1F0
7FE1F0
7FE1F0
7FC1F0
7FC1F0
7FC0F0
7BCEF0
7BCEF0
7BCFE0
7BCFE0
FBC7C0
E08380
ENDCHAR
STARTCHAR 01CD
ENCODING 461
SWIDTH 612 0
DWIDTH 17 0
BBX 16 25 1 -1
BITMAP
0E30
0FF0
07E0
03C0
0000
00C0
01C0
03C0
03E0
03E0
07E0
07E0
07F0
0FF0
0FF0
1DF8
1CF8
38F8
3FFC
7FFC
7CFE
78FE
F87E
F87F
C000
ENDCHAR
STARTCHAR 01CE
ENCODING 462
SWIDTH 612 0
DWIDTH 17 0
BBX 16 25 1 -1
BITMAP
0E30
0FF0
07E0
03C0
0000
00C0
01C0
03C0
03E0
03E0
07E0
07E0
07F0
0FF0
0FF0
1DF8
1CF8
38F8
3FFC
7FFC
7CFE
78FE
F87E
F87F
C000
ENDCHAR
STARTCHAR 01CF
ENCODING 463
SWIDTH 324 0
DWIDTH 9 0
BBX 10 24 0 0
BITMAP
39C0
3FC0
1F80
0F00
0000
1E00
3F80
1F00
3F00
3F00
3F00
3F00
3F00
3F00
3F00
3F00
3F00
3F00
3F00
3F00
3F00
7E00
7E00
F000
ENDCHAR
STARTCHAR 01D0
ENCODING 464
SWIDTH 324 0
DWIDTH 9 0
BBX 10 24 0 0
BITMAP
39C0
3FC0
1F80
0F00
0000
1E00
3F80
1F00
3F00
3F00
3F00
3F00
3F00
3F00
3F00
3F00
3F00
3F00
3F00
3F00
3F00
7E00
7E00
F000
ENDCHAR
STARTCHAR 01D1
ENCODING 465
SWIDTH 504 0
DWIDTH 14 0
BBX 15 24 0 0
BITMAP
7380
7F80
3F00
1C00
0000
0F00
1FC0
1FE0
3FF0
3FF8
7FF8
7FFC
7C7C
7C7C
FC7C
7C7E
7EFC
7FFC
7FFC
7FFC
3FFC
3FF8
1FF0
07E0
ENDCHAR
STARTCHAR 01D2
ENCODING 466
SWIDTH 504 0
DWIDTH 14 0
BBX 15 24 0 0
BITMAP
7380
7F80
3F00
1C00
0000
0F00
1FC0
1FE0
3FF0
3FF8
7FF8
7FFC
7C7C
7C7C
FC7C
7C7E
7EFC
7FFC
7FFC
7FFC
3FFC
3FF8
1FF0
07E0
ENDCHAR
STARTCHAR 01D3
ENCODING 467
SWIDTH 540 0
DWIDTH 15 0
BBX 15 23 0 1
BITMAP
0638
07F8
03F0
01E0
0000
3C3C
3C3E
3C1E
7C3E
7C3E
7C3E
7C3E
7C3E
7C3E
FC3E
7E7E
7FFC
7FFC
7FFC
7FF8
3FF0
3FF0
0FE0
ENDCHAR
STARTCHAR 01D4
ENCODING 468
SWIDTH 540 0
DWIDTH 15 0
BBX 15 23 0 1
BITMAP
0638
07F8
03F0
01E0
0000
3C3C
3C3E
3C1E
7C3E
7C3E
7C3E
7C3E
7C3E
7C3E
FC3E
7E7E
7FFC
7FFC
7FFC
7FF8
3FF0
3FF0
0FE0
ENDCHAR
STARTCHAR 01D5
ENCODING 469
SWIDTH 540 0
DWIDTH 15 0
BBX 15 24 0 1
BITMAP
07F8
07F8
0000
0730
0770
0230
3C3C
3C3E
3C1E
7C3E
7C3E
7C3E
7C3E
7C3E
7C3E
FC3E
7E7E
7FFC
7FFC
7FFC
7FF8
3FF0
3FF0
0FE0
ENDCHAR
STARTCHAR 01D6
ENCODING 470
SWIDTH 540 0
DWIDTH 15 0
BBX 15 24 0 1
BITMAP
07F8
07F8
0000
0730
0770
0230
3C3C
3C3E
3C1E
7C3E
7C3E
7C3E
7C3E
7C3E
7C3E
FC3E
7E7E
7FFC
7FFC
7FFC
7FF8
3FF0
3FF0
0FE0
ENDCHAR
STARTCHAR 01D7
ENCODING 471
SWIDTH 540 0
DWIDTH 15 0
BBX 15 24 0 1
BITMAP
0078
00F0
01C0
0730
0770
0230
3C3C
3C3E
3C1E
7C3E
7C3E
7C3E
7C3E
7C3E
7C3E
FC3E
7E7E
7FFC
7FFC
7FFC
7FF8
3FF0
3FF0
0FE0
ENDCHAR
STARTCHAR 01D8
ENCODING 472
SWIDTH 540 0
DWIDTH 15 0
BBX 15 24 0 1
BITMAP
0078
00F0
01C0
0730
0770
0230
3C3C
3C3E
3C1E
7C3E
7C3E
7C3E
7C3E
7C3E
7C3E
FC3E
7E7E
7FFC
7FFC
7FFC
7FF8
3FF0
3FF0
0FE0
ENDCHAR
STARTCHAR 01D9
ENCODING 473
SWIDTH 540 0
DWIDTH 15 0
BBX 15 24 0 1
BITMAP
0778
03F0
01C0
0730
0770
0230
3C3C
3C3E
3C1E
7C3E
7C3E
7C3E
7C3E
7C3E
7C3E
FC3E
7E7E
7FFC
7FFC
7FFC
7FF8
3FF0
3FF0
0FE0
ENDCHAR
STARTCHAR 01DA
ENCODING 474
SWIDTH 540 0
DWIDTH 15 0
BBX 15 24 0 1
BITMAP
0778
03F0
01C0
0730
0770
0230
3C3C
3C3E
3C1E
7C3E
7C3E
7C3E
7C3E
7C3E
7C3E
FC3E
7E7E
7FFC
7FFC
7FFC
7FF8
3FF0
3FF0
0FE0
ENDCHAR
STARTCHAR 01DB
ENCODING 475
SWIDTH 540 0
DWIDTH 15 0
BBX 15 24 0 1
BITMAP
0780
03C0
01C0
0730
0770
0230
3C3C
3C3E
3C1E
7C3E
7C3E
7C3E
7C3E
7C3E
7C3E
FC3E
7E7E
7FFC
7FFC
7FFC
7FF8
3FF0
3FF0
0FE0
ENDCHAR
STARTCHAR 01DC
ENCODING 476
SWIDTH 540 0
DWIDTH 15 0
BBX 15 24 0 1
BITMAP
0780
03C0
01C0
0730
0770
0230
3C3C
3C3E
3C1E
7C3E
7C3E
7C3E
7C3E
7C3E
7C3E
FC3E
7E7E
7FFC
7FFC
7FFC
7FF8
3FF0
3FF0
0FE0
ENDCHAR
STARTCHAR 01DE
ENCODING 478
SWIDTH 612 0
DWIDTH 17 0
BBX 16 26 1 -1
BITMAP
0FF8
0FF8
0000
0770
0770
0200
00C0
01C0
03C0
03E0
03E0
07E0
07E0
07F0
0FF0
0FF0
1DF8
1CF8
38F8
3FFC
7FFC
7CFE
78FE
F87E
F87F
C000
ENDCHAR
STARTCHAR 01DF
ENCODING 479
SWIDTH 612 0
DWIDTH 17 0
BBX 16 26 1 -1
BITMAP
0FF8
0FF8
0000
0770
0770
0200
00C0
01C0
03C0
03E0
03E0
07E0
07E0
07F0
0FF0
0FF0
1DF8
1CF8
38F8
3FFC
7FFC
7CFE
78FE
F87E
F87F
C000
ENDCHAR
STARTCHAR 01E0
ENCODING 480
SWIDTH 612 0
DWIDTH 17 0
BBX 16 26 1 -1
BITMAP
0FF8
0FF8
0000
01C0
01C0
0080
00C0
01C0
03C0
03E0
03E0
07E0
07E0
07F0
0FF0
0FF0
1DF8
1CF8
38F8
3FFC
7FFC
7CFE
78FE
F87E
F87F
C000
ENDCHAR
STARTCHAR 01E1
ENCODING 481
SWIDTH 612 0
DWIDTH 17 0
BBX 16 26 1 -1
BITMAP
0FF8
0FF8
0000
01C0
01C0
0080
00C0
01C0
03C0
03E0
03E0
07E0
07E0
07F0
0FF0
0FF0
1DF8
1CF8
38F8
3FFC
7FFC
7CFE
78FE
F87E
F87F
C000
ENDCHAR
STARTCHAR 01E2
ENCODING 482
SWIDTH 720 0
DWIDTH 20 0
BBX 19 22 1 -1
BITMAP
01FE00
01FF00
000000
01FF00
01FF00
03FF00
03FF00
03FF00
07FE00
07F000
0FF000
0FFE00
0FFF00
1DFF00
1CF800
38FFC0
3FFFC0
7FFFE0
7CFFE0
F8FFE0
F87F80
F87800
ENDCHAR
STARTCHAR 01E3
ENCODING 483
SWIDTH 720 0
DWIDTH 20 0
BBX 19 22 1 -1
BITMAP
01FE00
01FF00
000000
01FF00
01FF00
03FF00
03FF00
03FF00
07FE00
07F000
0FF000
0FFE00
0FFF00
1DFF00
1CF800
38FFC0
3FFFC0
7FFFE0
7CFFE0
F8FFE0
F87F80
F87800
ENDCHAR
STARTCHAR 01E4
ENCODING 484
SWIDTH 540 0
DWIDTH 15 0
BBX 15 19 0 0
BITMAP
01F0
03F8
07FC
0FFC
0F98
1E00
7F00
FF00
FF7E
FF7E
3C7E
3C7E
3E7E
3FFE
3FFE
3FFC
1FF0
0FE0
0700
ENDCHAR
STARTCHAR 01E5
ENCODING 485
SWIDTH 540 0
DWIDTH 15 0
BBX 15 19 0 0
BITMAP
01F0
03F8
07FC
0FFC
0F98
1E00
7F00
FF00
FF7E
FF7E
3C7E
3C7E
3E7E
3FFE
3FFE
3FFC
1FF0
0FE0
0700
ENDCHAR
STARTCHAR 01E6
ENCODING 486
SWIDTH 504 0
DWIDTH 14 0
BBX 14 24 0 0
BITMAP
0C70
0FF0
07E0
0380
0000
07E0
0FF0
0FF8
1FF8
3E30
3C00
3800
7800
78FC
79F8
78F8
78F8
78F8
FFF8
FFF8
7FF8
7FE0
3F80
0C00
ENDCHAR
STARTCHAR 01E7
ENCODING 487
SWIDTH 504 0
DWIDTH 14 0
BBX 14 24 0 0
BITMAP
0C70
0FF0
07E0
0380
0000
07E0
0FF0
0FF8
1FF8
3E30
3C00
3800
7800
78FC
79F8
78F8
78F8
78F8
FFF8
FFF8
7FF8
7FE0
3F80
0C00
ENDCHAR
STARTCHAR 01E8
ENCODING 488
SWIDTH 540 0
DWIDTH 15 0
BBX 15 24 0 0
BITMAP
0718
07F8
03F0
00E0
0000
7F18
7F3C
7F7E
7F7C
7FF8
7FF0
7FF0
7FE0
7FE0
7FC0
FFC0
FFE0
FFF0
FFF8
FF78
FF7C
7F3E
7F3E
7E10
ENDCHAR
STARTCHAR 01E9
ENCODING 489
SWIDTH 540 0
DWIDTH 15 0
BBX 15 24 0 0
BITMAP
0718
07F8
03F0
00E0
0000
7F18
7F3C
7F7E
7F7C
7FF8
7FF0
7FF0
7FE0
7FE0
7FC0
FFC0
FFE0
FFF0
FFF8
FF78
FF7C
7F3E
7F3E
7E10
ENDCHAR
STARTCHAR 01EA
ENCODING 490
SWIDTH 504 0
DWIDTH 14 0
BBX 15 23 0 -5
BITMAP
0F00
1FC0
1FE0
3FF0
3FF8
7FF8
7FFC
7C7C
7C7C
FC7C
7C7E
7EFC
7FFC
7FFC
7FFC
3FFC
3FF8
1FF0
07E0
0380
0380
03F8
03F8
ENDCHAR
STARTCHAR 01EB
ENCODING 491
SWIDTH 504 0
DWIDTH 14 0
BBX 15 23 0 -5
BITMAP
0F00
1FC0
1FE0
3FF0
3FF8
7FF8
7FFC
7C7C
7C7C
FC7C
7C7E
7EFC
7FFC
7FFC
7FFC
3FFC
3FF8
1FF0
07E0
0380
0380
03F8
03F8
ENDCHAR
STARTCHAR 01EC
ENCODING 492
SWIDTH 504 0
DWIDTH 14 0
BBX 15 26 0 -5
BITMAP
7F80
7F80
0000
0F00
1FC0
1FE0
3FF0
3FF8
7FF8
7FFC
7C7C
7C7C
FC7C
7C7E
7EFC
7FFC
7FFC
7FFC
3FFC
3FF8
1FF0
07E0
0380
0380
03F8
03F8
ENDCHAR
STARTCHAR 01ED
ENCODING 493
SWIDTH 504 0
DWIDTH 14 0
BBX 15 26 0 -5
BITMAP
7F80
7F80
0000
0F00
1FC0
1FE0
3FF0
3FF8
7FF8
7FFC
7C7C
7C7C
FC7C
7C7E
7EFC
7FFC
7FFC
7FFC
3FFC
3FF8
1FF0
07E0
0380
0380
03F8
03F8
ENDCHAR
STARTCHAR 01EE
ENCODING 494
SWIDTH 468 0
DWIDTH 13 0
BBX 13 24 0 0
BITMAP
18C0
3FC0
1FC0
0F00
0000
3FE0
7FF0
7FF0
00E0
01C0
03C0
0FC0
1FE0
3FF0
3FF8
0078
0078
0038
C038
FCF8
FFF8
7FF0
3FF0
0FC0
ENDCHAR
STARTCHAR 01EF
ENCODING 495
SWIDTH 468 0
DWIDTH 13 0
BBX 13 24 0 0
BITMAP
18C0
3FC0
1FC0
0F00
0000
3FE0
7FF0
7FF0
00E0
01C0
03C0
0FC0
1FE0
3FF0
3FF8
0078
0078
0038
C038
FCF8
FFF8
7FF0
3FF0
0FC0
ENDCHAR
STARTCHAR 01F0
ENCODING 496
SWIDTH 432 0
DWIDTH 12 0
BBX 13 24 0 0
BITMAP
0638
0778
03F0
01E0
0000
03F0
03F0
03F0
07F0
07F0
07F0
07F0
07F0
07F0
07F0
03F0
03F0
03F0
FBF0
7BF0
7FE0
7FE0
3FC0
0F80
ENDCHAR
STARTCHAR 01F4
ENCODING 500
SWIDTH 504 0
DWIDTH 14 0
BBX 14 24 0 0
BITMAP
00F0
01E0
01C0
0380
0000
07E0
0FF0
0FF8
1FF8
3E30
3C00
3800
7800
78FC
79F8
78F8
78F8
78F8
FFF8
FFF8
7FF8
7FE0
3F80
0C00
ENDCHAR
STARTCHAR 01F5
ENCODING 501
SWIDTH 504 0
DWIDTH 14 0
BBX 14 24 0 0
BITMAP
00F0
01E0
01C0
0380
0000
07E0
0FF0
0FF8
1FF8
3E30
3C00
3800
7800
78FC
79F8
78F8
78F8
78F8
FFF8
FFF8
7FF8
7FE0
3F80
0C00
ENDCHAR
STARTCHAR 01F8
ENCODING 504
SWIDTH 540 0
DWIDTH 15 0
BBX 14 24 1 0
BITMAP
0E00
0F00
0780
0380
0000
1018
7E7C
7E7C
7E7C
7E7C
7E7C
FE7C
FF7C
FF7C
FF78
FFF8
FBF8
FBF8
FBF8
F9F8
F9F8
F9F8
F9F8
E020
ENDCHAR
STARTCHAR 01F9
ENCODING 505
SWIDTH 540 0
DWIDTH 15 0
BBX 14 24 1 0
BITMAP
0E00
0F00
0780
0380
0000
1018
7E7C
7E7C
7E7C
7E7C
7E7C
FE7C
FF7C
FF7C
FF78
FFF8
FBF8
FBF8
FBF8
F9F8
F9F8
F9F8
F9F8
E020
ENDCHAR
STARTCHAR 01FE
ENCODING 510
SWIDTH 504 0
DWIDTH 14 0
BBX 15 24 0 0
BITMAP
03C0
0380
0700
0700
001E
0F3E
1FFC
1FFC
3FF8
3FF8
7FF8
7FFC
7BFC
7BFC
F7BC
773E
7F7C
7FFC
7FFC
7FFC
3FFC
7FF8
FFF0
E7E0
ENDCHAR
STARTCHAR 01FF
ENCODING 511
SWIDTH 504 0
DWIDTH 14 0
BBX 15 24 0 0
BITMAP
03C0
0380
0700
0700
001E
0F3E
1FFC
1FFC
3FF8
3FF8
7FF8
7FFC
7BFC
7BFC
F7BC
773E
7F7C
7FFC
7FFC
7FFC
3FFC
7FF8
FFF0
E7E0
ENDCHAR
STARTCHAR 0218
ENCODING 536
SWIDTH 504 0
DWIDTH 14 0
BBX 14 24 0 -5
BITMAP
0FFC
1FF8
1FF8
3FF0
3FF0
7FE0
7FE0
7C20
3F00
3FC0
1FF0
03F0
00F8
60F8
7FF8
FFF8
FFF0
7FE0
1FC0
0600
0F00
0F00
0E00
0400
ENDCHAR
STARTCHAR 0219
ENCODING 537
SWIDTH 504 0
DWIDTH 14 0
BBX 14 24 0 -5
BITMAP
0FFC
1FF8
1FF8
3FF0
3FF0
7FE0
7FE0
7C20
3F00
3FC0
1FF0
03F0
00F8
60F8
7FF8
FFF8
FFF0
7FE0
1FC0
0600
0F00
0F00
0E00
0400
ENDCHAR
STARTCHAR 021A
ENCODING 538
SWIDTH 576 0
DWIDTH 16 0
BBX 16 24 0 -5
BITMAP
3FFC
7FFE
7FFE
7FFE
7FFF
FFF8
63E0
03C0
03C0
03C0
03C0
03C0
03C0
03C0
03C0
03C0
03C0
03C0
03C0
0180
03C0
03C0
0380
0100
ENDCHAR
STARTCHAR 021B
ENCODING 539
SWIDTH 576 0
DWIDTH 16 0
BBX 16 24 0 -5
BITMAP
3FFC
7FFE
7FFE
7FFE
7FFF
FFF8
63E0
03C0
03C0
03C0
03C0
03C0
03C0
03C0
03C0
03C0
03C0
03C0
03C0
0180
03C0
03C0
0380
0100
ENDCHAR
STARTCHAR 021E
ENCODING 542
SWIDTH 540 0
DWIDTH 15 0
BBX 14 24 1 0
BITMAP
0638
0778
03F0
01E0
0000
1E00
7E3C
7E7C
7E7C
7E7C
7E7C
7E7C
7FFC
7FFC
7FFC
7FFC
FFFC
FFFC
FCFC
FCFC
FCFC
FCF8
FCF8
1880
ENDCHAR
STARTCHAR 021F
ENCODING 543
SWIDTH 540 0
DWIDTH 15 0
BBX 14 24 1 0
BITMAP
0638
0778
03F0
01E0
0000
1E00
7E3C
7E7C
7E7C
7E7C
7E7C
7E7C
7FFC
7FFC
7FFC
7FFC
FFFC
FFFC
FCFC
FCFC
FCFC
FCF8
FCF8
1880
ENDCHAR
STARTCHAR 0224
ENCODING 548
SWIDTH 576 0
DWIDTH 16 0
BBX 16 23 0 -4
BITMAP
07FC
3FF8
7FF8
7FF0
FFF0
01E0
03E0
03C0
03C0
07C0
0780
0780
0F80
0F00
0FFF
1FFF
1FFF
1FFF
001F
007F
007E
007C
0060
ENDCHAR
STARTCHAR 0225
ENCODING 549
SWIDTH 576 0
DWIDTH 16 0
BBX 16 23 0 -4
BITMAP
07FC
3FF8
7FF8
7FF0
FFF0
01E0
03E0
03C0
03C0
07C0
0780
0780
0F80
0F00
0FFF
1FFF
1FFF
1FFF
001F
007F
007E
007C
0060
ENDCHAR
STARTCHAR 0226
ENCODING 550
SWIDTH 612 0
DWIDTH 17 0
BBX 16 23 1 -1
BITMAP
01C0
01C0
0080
00C0
01C0
03C0
03E0
03E0
07E0
07E0
07F0
0FF0
0FF0
1DF8
1CF8
38F8
3FFC
7FFC
7CFE
78FE
F87E
F87F
C000
ENDCHAR
STARTCHAR 0227
ENCODING 551
SWIDTH 612 0
DWIDTH 17 0
BBX 16 23 1 -1
BITMAP
01C0
01C0
0080
00C0
01C0
03C0
03E0
03E0
07E0
07E0
07F0
0FF0
0FF0
1DF8
1CF8
38F8
3FFC
7FFC
7CFE
78FE
F87E
F87F
C000
ENDCHAR
STARTCHAR 0228
ENCODING 552
SWIDTH 468 0
DWIDTH 13 0
BBX 13 24 0 -5
BITMAP
7FE0
FFC0
7FC0
7FC0
7FC0
3F00
3C00
3E40
3FC0
3FC0
3F00
1E00
1FF0
1FF8
1FF8
1FF8
1FF8
1FE0
0FC0
01C0
00F0
0670
07F0
01C0
ENDCHAR
STARTCHAR 0229
ENCODING 553
SWIDTH 468 0
DWIDTH 13 0
BBX 13 24 0 -5
BITMAP
7FE0
FFC0
7FC0
7FC0
7FC0
3F00
3C00
3E40
3FC0
3FC0
3F00
1E00
1FF0
1FF8
1FF8
1FF8
1FF8
1FE0
0FC0
01C0
00F0
0670
07F0
01C0
ENDCHAR
STARTCHAR 022A
ENCODING 554
SWIDTH 504 0
DWIDTH 14 0
BBX 15 25 0 0
BITMAP
3FC0
7FC0
0000
3180
3B80
1100
0F00
1FC0
1FE0
3FF0
3FF8
7FF8
7FFC
7C7C
7C7C
FC7C
7C7E
7EFC
7FFC
7FFC
7FFC
3FFC
3FF8
1FF0
07E0
ENDCHAR
STARTCHAR 022B
ENCODING 555
SWIDTH 504 0
DWIDTH 14 0
BBX 15 25 0 0
BITMAP
3FC0
7FC0
0000
3180
3B80
1100
0F00
1FC0
1FE0
3FF0
3FF8
7FF8
7FFC
7C7C
7C7C
FC7C
7C7E
7EFC
7FFC
7FFC
7FFC
3FFC
3FF8
1FF0
07E0
ENDCHAR
STARTCHAR 022C
ENCODING 556
SWIDTH 504 0
DWIDTH 14 0
BBX 15 25 0 0
BITMAP
7F80
7FC0
0000
3F80
7F80
0000
0F00
1FC0
1FE0
3FF0
3FF8
7FF8
7FFC
7C7C
7C7C
FC7C
7C7E
7EFC
7FFC
7FFC
7FFC
3FFC
3FF8
1FF0
07E0
ENDCHAR
STARTCHAR 022D
ENCODING 557
SWIDTH 504 0
DWIDTH 14 0
BBX 15 25 0 0
BITMAP
7F80
7FC0
0000
3F80
7F80
0000
0F00
1FC0
1FE0
3FF0
3FF8
7FF8
7FFC
7C7C
7C7C
FC7C
7C7E
7EFC
7FFC
7FFC
7FFC
3FFC
3FF8
1FF0
07E0
ENDCHAR
STARTCHAR 022E
ENCODING 558
SWIDTH 504 0
DWIDTH 14 0
BBX 15 23 0 0
BITMAP
0C00
0E00
0C00
0000
0F00
1FC0
1FE0
3FF0
3FF8
7FF8
7FFC
7C7C
7C7C
FC7C
7C7E
7EFC
7FFC
7FFC
7FFC
3FFC
3FF8
1FF0
07E0
ENDCHAR
STARTCHAR 022F
ENCODING 559
SWIDTH 504 0
DWIDTH 14 0
BBX 15 23 0 0
BITMAP
0C00
0E00
0C00
0000
0F00
1FC0
1FE0
3FF0
3FF8
7FF8
7FFC
7C7C
7C7C
FC7C
7C7E
7EFC
7FFC
7FFC
7FFC
3FFC
3FF8
1FF0
07E0
ENDCHAR
STARTCHAR 0230
ENCODING 560
SWIDTH 504 0
DWIDTH 14 0
BBX 15 25 0 0
BITMAP
7F80
7FC0
0400
0E00
0E00
0000
0F00
1FC0
1FE0
3FF0
3FF8
7FF8
7FFC
7C7C
7C7C
FC7C
7C7E
7EFC
7FFC
7FFC
7FFC
3FFC
3FF8
1FF0
07E0
ENDCHAR
STARTCHAR 0231
ENCODING 561
SWIDTH 504 0
DWIDTH 14 0
BBX 15 25 0 0
BITMAP
7F80
7FC0
0400
0E00
0E00
0000
0F00
1FC0
1FE0
3FF0
3FF8
7FF8
7FFC
7C7C
7C7C
FC7C
7C7E
7EFC
7FFC
7FFC
7FFC
3FFC
3FF8
1FF0
07E0
ENDCHAR
STARTCHAR 0232
ENCODING 562
SWIDTH 612 0
DWIDTH 17 0
BBX 16 22 1 0
BITMAP
0FF0
0FF0
0000
001F
F01E
F83E
F83C
FC7C
7C78
7EF8
3EF0
3FF0
1FE0
1FE0
0FC0
07C0
07C0
07C0
07C0
07C0
07C0
03C0
ENDCHAR
STARTCHAR 0233
ENCODING 563
SWIDTH 612 0
DWIDTH 17 0
BBX 16 22 1 0
BITMAP
0FF0
0FF0
0000
001F
F01E
F83E
F83C
FC7C
7C78
7EF8
3EF0
3FF0
1FE0
1FE0
0FC0
07C0
07C0
07C0
07C0
07C0
07C0
03C0
ENDCHAR
STARTCHAR 0241
ENCODING 577
SWIDTH 432 0
DWIDTH 12 0
BBX 11 19 1 0
BITMAP
7FC0
FFE0
FFE0
FFE0
E1E0
01E0
01E0
01E0
03E0
0FE0
1F80
3F00
3E00
3E00
3E00
3E00
3E00
3E00
1E00
ENDCHAR
STARTCHAR 0242
ENCODING 578
SWIDTH 432 0
DWIDTH 12 0
BBX 11 19 1 0
BITMAP
7FC0
FFE0
FFE0
FFE0
E1E0
01E0
01E0
01E0
03E0
0FE0
1F80
3F00
3E00
3E00
3E00
3E00
3E00
3E00
1E00
ENDCHAR
STARTCHAR 0243
ENCODING 579
SWIDTH 504 0
DWIDTH 14 0
BBX 14 19 0 0
BITMAP
3F80
7FC0
FFE0
7FE0
7DF0
7CF0
7CE0
7CE0
7FC0
3FF0
3FF8
3E78
7F7C
FFBC
7F7C
3FFC
3FF0
3FF0
1F00
ENDCHAR
STARTCHAR 0244
ENCODING 580
SWIDTH 576 0
DWIDTH 16 0
BBX 16 18 0 1
BITMAP
1C1E
3E1E
3C1E
3C1E
7FFF
7FFF
FFFF
FFFE
7C3E
7E3E
7E3E
7FFE
7FFC
7FFC
3FFC
3FF8
1FF0
0FE0
ENDCHAR
STARTCHAR 0253
ENCODING 595
SWIDTH 648 0
DWIDTH 18 0
BBX 18 19 0 0
BITMAP
0FF800
3FFE00
7FFE00
7FFF00
7FCF00
F7C700
F3C700
73EF00
73FE00
7BFF00
3BFF80
3BF7C0
03E3C0
03E7C0
03F7C0
01FFC0
01FF80
01FF00
00F000
ENDCHAR
STARTCHAR 0254
ENCODING 596
SWIDTH 468 0
DWIDTH 13 0
BBX 13 19 0 0
BITMAP
1E00
7FC0
FFE0
FFF0
7FF8
2FF8
01F8
01F8
00F8
00F8
41F8
7FF8
7FF8
7FF8
7FF0
7FF0
3FE0
3FE0
0600
ENDCHAR
STARTCHAR 0256
ENCODING 598
SWIDTH 468 0
DWIDTH 13 0
BBX 13 19 0 0
BITMAP
3E00
7FC0
7FE0
7FE0
7FF0
7EF8
7F38
FF38
FF78
FFF8
FEF8
3FF0
3FF0
1FE0
1FE0
1FC0
1F80
0E00
0800
ENDCHAR
STARTCHAR 0257
ENCODING 599
SWIDTH 612 0
DWIDTH 17 0
BBX 17 19 0 0
BITMAP
0FE000
3FFC00
7FFE00
7FFE00
7FFF00
F7EF80
F7C380
73C380
73E780
7BE780
3BEF80
3BFF00
03FF00
01FE00
01FC00
01FC00
01F800
00E000
008000
ENDCHAR
STARTCHAR 0259
ENCODING 601
SWIDTH 468 0
DWIDTH 13 0
BBX 12 19 1 0
BITMAP
3F00
FF80
FFC0
FFC0
63E0
01E0
00E0
FFF0
FFF0
FFF0
FFF0
F9F0
F9F0
FFF0
FFF0
FFF0
7FE0
3FC0
0780
ENDCHAR
STARTCHAR 025B
ENCODING 603
SWIDTH 468 0
DWIDTH 13 0
BBX 13 19 0 0
BITMAP
1FC0
3FE0
7FF0
7E30
FC00
F800
7C00
7C00
3FC0
1FE0
3FC0
3E00
3C00
7C00
7E38
3FF8
3FF8
1FF0
0FE0
ENDCHAR
STARTCHAR 0260
ENCODING 608
SWIDTH 504 0
DWIDTH 14 0
BBX 14 24 0 0
BITMAP
003C
00FC
01FC
01FC
01F0
07F0
0FF0
0FF8
1FF8
3E30
3C00
3800
7800
78FC
79F8
78F8
78F8
78F8
FFF8
FFF8
7FF8
7FE0
3F80
0C00
ENDCHAR
STARTCHAR 0263
ENCODING 611
SWIDTH 612 0
DWIDTH 17 0
BBX 16 22 1 -4
BITMAP
E000
F01C
F03F
F83E
787E
787C
7C7C
3CF8
3EF8
1EF0
1FF0
0FE0
07E0
07C0
0FE0
1FE0
1CE0
1CE0
1CE0
1FE0
0FC0
0780
ENDCHAR
STARTCHAR 0268
ENCODING 616
SWIDTH 360 0
DWIDTH 10 0
BBX 10 19 0 0
BITMAP
0F00
1F80
1F80
1F80
1F80
1F00
3F00
3F00
FFC0
FFC0
FFC0
3F00
3F00
3F00
3F00
3F00
3F00
3F00
7800
ENDCHAR
STARTCHAR 0272
ENCODING 626
SWIDTH 540 0
DWIDTH 15 0
BBX 17 23 -2 -4
BITMAP
020300
0FCF80
0FCF80
0FCF80
0FCF80
0FCF80
1FCF80
1FEF80
1FEF80
1FEF00
1FFF00
1F7F00
1F7F00
1F7F00
1F3F00
1F3F00
1F3F00
3F3F00
3E0400
FE0000
FE0000
FC0000
400000
ENDCHAR
STARTCHAR 0278
ENCODING 632
SWIDTH 648 0
DWIDTH 18 0
BBX 18 22 0 -1
BITMAP
01C000
01F000
01F000
1FFF00
3FFF80
7FFF80
7FFF80
7FFFC0
7DFFC0
79F7C0
F9F7C0
F9F7C0
F9E7C0
7DE7C0
7FEF80
7FFF80
7FFF00
7FFF00
3FFE00
03DC00
03C000
03C000
ENDCHAR
STARTCHAR 0289
ENCODING 649
SWIDTH 576 0
DWIDTH 16 0
BBX 16 18 0 1
BITMAP
1C1E
3E1E
3C1E
3C1E
7FFF
7FFF
FFFF
FFFE
7C3E
7E3E
7E3E
7FFE
7FFC
7FFC
3FFC
3FF8
1FF0
0FE0
ENDCHAR
STARTCHAR 028B
ENCODING 651
SWIDTH 540 0
DWIDTH 15 0
BBX 15 18 0 1
BITMAP
71E0
F1F0
F8F8
78FC
787C
F83E
F83E
7C3E
7C3E
7C3E
7E7E
7FFE
3FFE
3FFE
3FFC
1FFC
0FF8
07F0
ENDCHAR
STARTCHAR 0292
ENCODING 658
SWIDTH 468 0
DWIDTH 13 0
BBX 13 19 0 0
BITMAP
3FE0
7FF0
7FF0
00E0
01C0
03C0
0FC0
1FE0
3FF0
3FF8
0078
0078
0038
C038
FCF8
FFF8
7FF0
3FF0
0FC0
ENDCHAR
STARTCHAR 0294
ENCODING 660
SWIDTH 432 0
DWIDTH 12 0
BBX 11 19 1 0
BITMAP
7FC0
FFE0
FFE0
FFE0
E1E0
01E0
01E0
01E0
03E0
0FE0
1F80
3F00
3E00
3E00
3E00
3E00
3E00
3E00
1E00
ENDCHAR
STARTCHAR 0295
ENCODING 661
SWIDTH 432 0
DWIDTH 12 0
BBX 12 19 0 0
BITMAP
3FE0
7FF0
7FF0
FFF0
F870
F800
7800
7800
7C00
7E00
1F80
0F80
07C0
0780
0780
0780
0780
0780
0780
ENDCHAR
STARTCHAR 0296
ENCODING 662
SWIDTH 432 0
DWIDTH 12 0
BBX 12 19 0 0
BITMAP
1F00
1F00
1F00
1F00
1F00
1F00
1F80
0FC0
0FE0
03F0
00F0
00F0
00F0
60F0
F9F0
7FF0
7FF0
7FF0
1F80
ENDCHAR
STARTCHAR 02B9
ENCODING 697
SWIDTH 180 0
DWIDTH 5 0
BBX 4 10 1 10
BITMAP
70
70
70
F0
E0
E0
E0
C0
C0
C0
ENDCHAR
STARTCHAR 02BA
ENCODING 698
SWIDTH 396 0
DWIDTH 11 0
BBX 10 10 1 10
BITMAP
73C0
73C0
7380
F380
E780
E700
E700
C700
C600
C600
ENDCHAR
STARTCHAR 02BB
ENCODING 699
SWIDTH 180 0
DWIDTH 5 0
BBX 5 10 0 10
BITMAP
38
38
78
78
78
78
F8
F8
78
70
ENDCHAR
STARTCHAR 02BC
ENCODING 700
SWIDTH 180 0
DWIDTH 5 0
BBX 5 10 0 10
BITMAP
78
78
78
78
78
78
78
F0
70
20
ENDCHAR
STARTCHAR 02BD
ENCODING 701
SWIDTH 180 0
DWIDTH 5 0
BBX 5 10 0 10
BITMAP
78
F8
F8
78
78
78
78
38
38
10
ENDCHAR
STARTCHAR 02C6
ENCODING 710
SWIDTH 324 0
DWIDTH 9 0
BBX 9 4 0 20
BITMAP
1C00
3E00
7F00
F380
ENDCHAR
STARTCHAR 02C7
ENCODING 711
SWIDTH 324 0
DWIDTH 9 0
BBX 8 4 1 20
BITMAP
C7
FF
7E
38
ENDCHAR
STARTCHAR 02C8
ENCODING 712
SWIDTH 108 0
DWIDTH 3 0
BBX 3 4 0 20
BITMAP
E0
60
E0
E0
ENDCHAR
STARTCHAR 02C9
ENCODING 713
SWIDTH 324 0
DWIDTH 9 0
BBX 9 2 0 20
BITMAP
7F80
FF80
ENDCHAR
STARTCHAR 02CA
ENCODING 714
SWIDTH 216 0
DWIDTH 6 0
BBX 5 4 1 20
BITMAP
78
70
E0
E0
ENDCHAR
STARTCHAR 02CB
ENCODING 715
SWIDTH 216 0
DWIDTH 6 0
BBX 6 4 0 20
BITMAP
F0
78
3C
1C
ENDCHAR
STARTCHAR 02CC
ENCODING 716
SWIDTH 108 0
DWIDTH 3 0
BBX 3 5 0 -5
BITMAP
60
E0
E0
E0
60
ENDCHAR
STARTCHAR 02CD
ENCODING 717
SWIDTH 324 0
DWIDTH 9 0
BBX 9 3 0 -4
BITMAP
FF80
7F80
7F00
ENDCHAR
STARTCHAR 02D0
ENCODING 720
SWIDTH 180 0
DWIDTH 5 0
BBX 5 14 0 0
BITMAP
78
F8
78
78
30
20
00
00
00
30
70
78
78
78
ENDCHAR
STARTCHAR 02D1
ENCODING 721
SWIDTH 180 0
DWIDTH 5 0
BBX 5 6 0 8
BITMAP
78
F8
78
78
30
20
ENDCHAR
STARTCHAR 02D8
ENCODING 728
SWIDTH 324 0
DWIDTH 9 0
BBX 9 4 0 20
BITMAP
E380
7780
7F00
3E00
ENDCHAR
STARTCHAR 02D9
ENCODING 729
SWIDTH 108 0
DWIDTH 3 0
BBX 3 2 0 19
BITMAP
60
E0
ENDCHAR
STARTCHAR 02DA
ENCODING 730
SWIDTH 324 0
DWIDTH 9 0
BBX 9 7 0 17
BITMAP
3E00
7F00
6300
E380
6380
7F00
3E00
ENDCHAR
STARTCHAR 02DB
ENCODING 731
SWIDTH 288 0
DWIDTH 8 0
BBX 8 7 0 -5
BITMAP
10
30
70
60
FF
7F
1C
ENDCHAR
STARTCHAR 02DC
ENCODING 732
SWIDTH 324 0
DWIDTH 9 0
BBX 9 4 0 20
BITMAP
3380
7F80
FF00
EF00
ENDCHAR
STARTCHAR 02DD
ENCODING 733
SWIDTH 396 0
DWIDTH 11 0
BBX 10 4 1 20
BITMAP
7BC0
7380
E700
E600
ENDCHAR
STARTCHAR 0300
ENCODING 768
SWIDTH 0 0
DWIDTH 0 0
BBX 5 4 -11 20
BITMAP
E0
F0
78
38
ENDCHAR
STARTCHAR 0301
ENCODING 769
SWIDTH 0 0
DWIDTH 0 0
BBX 6 4 -8 20
BITMAP
3C
78
70
E0
ENDCHAR
STARTCHAR 0302
ENCODING 770
SWIDTH 0 0
DWIDTH 0 0
BBX 9 4 -12 20
BITMAP
1C00
3E00
7F00
F780
ENDCHAR
STARTCHAR 0303
ENCODING 771
SWIDTH 0 0
DWIDTH 0 0
BBX 8 4 -12 20
BITMAP
23
7F
FF
FE
ENDCHAR
STARTCHAR 0304
ENCODING 772
SWIDTH 0 0
DWIDTH 0 0
BBX 8 2 -12 20
BITMAP
FF
FF
ENDCHAR
STARTCHAR 0305
ENCODING 773
SWIDTH 0 0
DWIDTH 0 0
BBX 10 4 -13 19
BITMAP
FFC0
FFC0
FFC0
4000
ENDCHAR
STARTCHAR 0306
ENCODING 774
SWIDTH 0 0
DWIDTH 0 0
BBX 8 4 -12 20
BITMAP
E3
F7
7F
3E
ENDCHAR
STARTCHAR 0307
ENCODING 775
SWIDTH 0 0
DWIDTH 0 0
BBX 3 3 -9 19
BITMAP
E0
E0
40
ENDCHAR
STARTCHAR 0308
ENCODING 776
SWIDTH 0 0
DWIDTH 0 0
BBX 8 4 -12 19
BITMAP
20
E7
67
02
ENDCHAR
STARTCHAR 030A
ENCODING 778
SWIDTH 0 0
DWIDTH 0 0
BBX 8 6 -12 19
BITMAP
3E
77
E3
E3
7F
3E
ENDCHAR
STARTCHAR 030B
ENCODING 779
SWIDTH 0 0
DWIDTH 0 0
BBX 11 4 -11 20
BITMAP
3DE0
7BC0
7780
E700
ENDCHAR
STARTCHAR 030C
ENCODING 780
SWIDTH 0 0
DWIDTH 0 0
BBX 8 4 -12 20
BITMAP
E3
FF
7E
1C
ENDCHAR
STARTCHAR 030D
ENCODING 781
SWIDTH 0 0
DWIDTH 0 0
BBX 3 4 -9 20
BITMAP
E0
E0
C0
C0
ENDCHAR
STARTCHAR 0311
ENCODING 785
SWIDTH 0 0
DWIDTH 0 0
BBX 8 4 -12 20
BITMAP
1C
7E
7F
E3
ENDCHAR
STARTCHAR 0323
ENCODING 803
SWIDTH 0 0
DWIDTH 0 0
BBX 3 3 -9 -4
BITMAP
40
E0
E0
ENDCHAR
STARTCHAR 0326
ENCODING 806
SWIDTH 0 0
DWIDTH 0 0
BBX 4 5 -10 -5
BITMAP
70
F0
F0
E0
40
ENDCHAR
STARTCHAR 0327
ENCODING 807
SWIDTH 0 0
DWIDTH 0 0
BBX 8 7 -12 -5
BITMAP
38
38
3C
1E
CF
FF
38
ENDCHAR
STARTCHAR 0328
ENCODING 808
SWIDTH 0 0
DWIDTH 0 0
BBX 7 7 -11 -5
BITMAP
20
70
60
E0
FE
FE
08
ENDCHAR
STARTCHAR 0329
ENCODING 809
SWIDTH 0 0
DWIDTH 0 0
BBX 3 5 -9 -5
BITMAP
C0
C0
C0
E0
C0
ENDCHAR
STARTCHAR 0331
ENCODING 817
SWIDTH 0 0
DWIDTH 0 0
BBX 8 3 -12 -4
BITMAP
FF
FF
6E
ENDCHAR
STARTCHAR 0342
ENCODING 834
SWIDTH 0 0
DWIDTH 0 0
BBX 8 4 -12 20
BITMAP
23
7F
FF
FE
ENDCHAR
STARTCHAR 0344
ENCODING 836
SWIDTH 0 0
DWIDTH 0 0
BBX 7 6 -11 19
BITMAP
1C
18
30
CE
CE
40
ENDCHAR
STARTCHAR 0345
ENCODING 837
SWIDTH 0 0
DWIDTH 0 0
BBX 5 5 -9 -5
BITMAP
C0
C0
E0
F8
38
ENDCHAR
STARTCHAR 0374
ENCODING 884
SWIDTH 180 0
DWIDTH 5 0
BBX 4 5 1 15
BITMAP
70
70
E0
C0
40
ENDCHAR
STARTCHAR 0375
ENCODING 885
SWIDTH 180 0
DWIDTH 5 0
BBX 4 5 1 -5
BITMAP
30
70
F0
E0
E0
ENDCHAR
STARTCHAR 037A
ENCODING 890
SWIDTH 180 0
DWIDTH 5 0
BBX 5 5 0 -5
BITMAP
E0
E0
60
78
38
ENDCHAR
STARTCHAR 037B
ENCODING 891
SWIDTH 468 0
DWIDTH 13 0
BBX 13 19 0 0
BITMAP
1E00
7FC0
FFE0
FFF0
7FF8
2FF8
01F8
01F8
00F8
00F8
41F8
7FF8
7FF8
7FF8
7FF0
7FF0
3FE0
3FE0
0600
ENDCHAR
STARTCHAR 037E
ENCODING 894
SWIDTH 180 0
DWIDTH 5 0
BBX 5 19 0 -5
BITMAP
30
78
78
F8
78
00
00
00
00
78
78
78
78
78
78
78
F0
70
20
ENDCHAR
STARTCHAR 037F
ENCODING 895
SWIDTH 432 0
DWIDTH 12 0
BBX 12 19 0 0
BITMAP
03F0
03F0
03F0
07F0
07F0
07F0
07F0
07F0
07F0
07F0
03F0
03F0
03F0
FBF0
7BF0
7FE0
7FE0
3FC0
0F80
ENDCHAR
STARTCHAR 0384
ENCODING 900
SWIDTH 144 0
DWIDTH 4 0
BBX 3 4 1 16
BITMAP
60
E0
C0
C0
ENDCHAR
STARTCHAR 0385
ENCODING 901
SWIDTH 288 0
DWIDTH 8 0
BBX 8 6 0 19
BITMAP
0E
0C
18
67
E7
20
ENDCHAR
STARTCHAR 0386
ENCODING 902
SWIDTH 612 0
DWIDTH 17 0
BBX 16 21 1 -1
BITMAP
1C00
1CC0
39C0
33C0
03E0
03E0
07E0
07E0
07F0
0FF0
0FF0
1DF8
1CF8
38F8
3FFC
7FFC
7CFE
78FE
F87E
F87F
C000
ENDCHAR
STARTCHAR 0387
ENCODING 903
SWIDTH 180 0
DWIDTH 5 0
BBX 5 5 0 9
BITMAP
30
78
78
F8
78
ENDCHAR
STARTCHAR 0388
ENCODING 904
SWIDTH 576 0
DWIDTH 16 0
BBX 16 20 0 0
BITMAP
7000
7FF8
FFF8
CFF8
0FF8
0FF8
0FF0
0F80
0F90
07F0
07F0
07E0
07C0
07FE
07FE
07FE
03FF
03FF
03FC
0380
ENDCHAR
STARTCHAR 0389
ENCODING 905
SWIDTH 576 0
DWIDTH 16 0
BBX 16 20 0 0
BITMAP
7000
7380
FF8F
CF8F
0F8F
0F9F
1F9F
1F9F
1FFF
1FFF
1FFF
1FFF
1FFF
1FFF
1F9F
1F9F
3F3F
3FBF
3F1F
0A20
ENDCHAR
STARTCHAR 038A
ENCODING 906
SWIDTH 360 0
DWIDTH 10 0
BBX 10 20 0 0
BITMAP
7000
7F80
EFC0
CFC0
0FC0
0F80
1F80
1F80
1F80
1F80
1F80
1F80
1F80
1F80
1F80
1F80
1F80
1F80
3F80
3C00
ENDCHAR
STARTCHAR 038C
ENCODING 908
SWIDTH 540 0
DWIDTH 15 0
BBX 15 20 0 0
BITMAP
7000
7700
EFC0
DFF0
1FF0
3FF8
3FFC
3FFC
7E7C
7C3E
7C3E
7C7E
7E7E
7FFE
3FFE
3FFC
3FFC
1FFC
0FF8
03E0
ENDCHAR
STARTCHAR 038E
ENCODING 910
SWIDTH 684 0
DWIDTH 19 0
BBX 19 20 0 0
BITMAP
700000
7003E0
EE03C0
DF07C0
1F8780
0F8F80
0F8F00
07DF00
07DE00
03FE00
03FC00
01FC00
01FC00
00F800
00F800
007800
007800
007800
007800
007800
ENDCHAR
STARTCHAR 038F
ENCODING 911
SWIDTH 612 0
DWIDTH 17 0
BBX 18 20 0 0
BITMAP
700000
7FF800
FFFC00
DFFE00
3FFF00
3FFF00
3F1F80
3E0F80
3C0780
3C0780
3C0780
3C0780
3C0780
1E0700
1E0F00
0F1E00
7F1FC0
7F1FC0
7F1F80
7F1F80
ENDCHAR
STARTCHAR 0390
ENCODING 912
SWIDTH 324 0
DWIDTH 9 0
BBX 10 25 0 0
BITMAP
0380
0700
0600
39C0
39C0
0000
1E00
3F80
1F00
3F00
3F00
3F00
3F00
3F00
3F00
3F00
3F00
3F00
3F00
3F00
3F00
3F00
7E00
7E00
F000
ENDCHAR
STARTCHAR 0391
ENCODING 913
SWIDTH 612 0
DWIDTH 17 0
BBX 16 20 1 -1
BITMAP
00C0
01C0
03C0
03E0
03E0
07E0
07E0
07F0
0FF0
0FF0
1DF8
1CF8
38F8
3FFC
7FFC
7CFE
78FE
F87E
F87F
C000
ENDCHAR
STARTCHAR 0392
ENCODING 914
SWIDTH 504 0
DWIDTH 14 0
BBX 14 19 0 0
BITMAP
3F80
7FC0
FFE0
7FE0
7DF0
7CF0
7CE0
7CE0
7FC0
3FF0
3FF8
3E78
3E7C
3E7C
3EFC
3FFC
3FF0
3FF0
1F00
ENDCHAR
STARTCHAR 0393
ENCODING 915
SWIDTH 504 0
DWIDTH 14 0
BBX 14 20 0 0
BITMAP
0060
3FF8
FFF8
FFF8
FFFC
FC00
FC00
FC00
7800
7800
7800
F800
7800
F800
F800
7800
7800
7C00
7C00
7800
ENDCHAR
STARTCHAR 0394
ENCODING 916
SWIDTH 576 0
DWIDTH 16 0
BBX 16 18 0 1
BITMAP
01F0
03F0
03F0
07F0
07F8
0FF8
0FF8
1FFC
1F7C
3F7C
3E7C
3E3E
7E3E
7C3E
7FFF
FFFF
FFFF
FFFF
ENDCHAR
STARTCHAR 0395
ENCODING 917
SWIDTH 468 0
DWIDTH 13 0
BBX 13 19 0 0
BITMAP
7FE0
FFC0
7FC0
7FC0
7FC0
3F00
3C00
3E40
3FC0
3FC0
3F00
1E00
1FF0
1FF8
1FF8
1FF8
1FF8
1FE0
0E00
ENDCHAR
STARTCHAR 0396
ENCODING 918
SWIDTH 576 0
DWIDTH 16 0
BBX 16 19 0 0
BITMAP
07FC
3FF8
7FF8
7FF0
FFF0
01E0
03E0
03C0
03C0
07C0
0780
0780
0F80
0F00
0FFF
1FFF
1FFF
03FE
00F0
ENDCHAR
STARTCHAR 0397
ENCODING 919
SWIDTH 540 0
DWIDTH 15 0
BBX 14 19 1 0
BITMAP
1E00
7E3C
7E7C
7E7C
7E7C
7E7C
7E7C
7FFC
7FFC
7FFC
7FFC
FFFC
FFFC
FCFC
FCFC
FCFC
FCF8
FCF8
1880
ENDCHAR
STARTCHAR 0398
ENCODING 920
SWIDTH 504 0
DWIDTH 14 0
BBX 15 19 0 0
BITMAP
0FC0
3FF0
3FF8
7FF8
7FFC
7FFC
7FFC
FC7C
FFFC
7FFE
7FFC
7C7C
7EFC
7FFC
3FFC
3FF8
1FF8
0FF0
03E0
ENDCHAR
STARTCHAR 0399
ENCODING 921
SWIDTH 324 0
DWIDTH 9 0
BBX 9 19 0 0
BITMAP
1E00
3F80
1F00
3F00
3F00
3F00
3F00
3F00
3F00
3F00
3F00
3F00
3F00
3F00
3F00
3F00
7E00
7E00
F000
ENDCHAR
STARTCHAR 039A
ENCODING 922
SWIDTH 540 0
DWIDTH 15 0
BBX 15 19 0 0
BITMAP
7F18
7F3C
7F7E
7F7C
7FF8
7FF0
7FF0
7FE0
7FE0
7FC0
FFC0
FFE0
FFF0
FFF8
FF78
FF7C
7F3E
7F3E
7E10
ENDCHAR
STARTCHAR 039B
ENCODING 923
SWIDTH 576 0
DWIDTH 16 0
BBX 16 19 0 0
BITMAP
0600
0F00
0F00
1F80
1FC0
1FC0
1FE0
1FE0
3FF0
3FF8
3EF8
3EFC
7EFC
7CFE
7C7E
7C7F
7C7F
FC0F
7000
ENDCHAR
STARTCHAR 039C
ENCODING 924
SWIDTH 648 0
DWIDTH 18 0
BBX 17 19 1 0
BITMAP
200400
300C00
381E00
3C1E00
3C3E00
7E3E00
7E7E00
7FFE00
7FFE00
7FFE00
7FFF00
FCFF00
FCBF00
FC3F00
F83F00
F83F00
F83F00
F03F80
F00000
ENDCHAR
STARTCHAR 039D
ENCODING 925
SWIDTH 540 0
DWIDTH 15 0
BBX 14 19 1 0
BITMAP
1018
7E7C
7E7C
7E7C
7E7C
7E7C
FE7C
FF7C
FF7C
FF78
FFF8
FBF8
FBF8
FBF8
F9F8
F9F8
F9F8
F9F8
E020
ENDCHAR
STARTCHAR 039E
ENCODING 926
SWIDTH 468 0
DWIDTH 13 0
BBX 13 19 0 0
BITMAP
7F00
7FF8
7FF8
FFF8
5FF8
0000
0000
3FE0
3FE0
3FE0
3FE0
0000
0000
0000
FFF8
FFF8
FFF8
FFF8
03F8
ENDCHAR
STARTCHAR 039F
ENCODING 927
SWIDTH 504 0
DWIDTH 14 0
BBX 15 19 0 0
BITMAP
0F00
1FC0
1FE0
3FF0
3FF8
7FF8
7FFC
7C7C
7C7C
FC7C
7C7E
7EFC
7FFC
7FFC
7FFC
3FFC
3FF8
1FF0
07E0
ENDCHAR
STARTCHAR 03A0
ENCODING 928
SWIDTH 540 0
DWIDTH 15 0
BBX 15 19 0 0
BITMAP
7FFE
FFFE
FFFE
FFFE
7FFE
783E
783E
783E
7C3E
7C3E
7C3E
7C3E
7C3E
7C3E
7C3E
7C3E
7C3E
7C3E
7C3E
ENDCHAR
STARTCHAR 03A1
ENCODING 929
SWIDTH 468 0
DWIDTH 13 0
BBX 13 19 0 0
BITMAP
1F80
3FE0
7FF0
7FF0
7CF8
7C78
7C78
7E78
7EF8
7FF8
7FF0
7FC0
7E00
7E00
FE00
FE00
FE00
FF00
7F00
ENDCHAR
STARTCHAR 03A3
ENCODING 931
SWIDTH 468 0
DWIDTH 13 0
BBX 13 19 0 0
BITMAP
7FF8
7FF8
7FF8
7FF8
FF00
7E00
3F00
0FC0
07E0
03E0
03E0
07C0
1F80
3F00
7FD0
7FF8
7FF8
7FF8
7FF8
ENDCHAR
STARTCHAR 03A4
ENCODING 932
SWIDTH 576 0
DWIDTH 16 0
BBX 16 19 0 0
BITMAP
3FFC
7FFE
7FFE
7FFE
7FFF
FFF8
63E0
03C0
03C0
03C0
03C0
03C0
03C0
03C0
03C0
03C0
03C0
03C0
03C0
ENDCHAR
STARTCHAR 03A5
ENCODING 933
SWIDTH 612 0
DWIDTH 17 0
BBX 16 19 1 0
BITMAP
001F
F01E
F83E
F83C
FC7C
7C78
7EF8
3EF0
3FF0
1FE0
1FE0
0FC0
07C0
07C0
07C0
07C0
07C0
07C0
03C0
ENDCHAR
STARTCHAR 03A6
ENCODING 934
SWIDTH 648 0
DWIDTH 18 0
BBX 18 22 0 -1
BITMAP
01C000
01F000
01F000
1FFF00
3FFF80
7FFF80
7FFF80
7FFFC0
7DFFC0
79F7C0
F9F7C0
F9F7C0
F9E7C0
7DE7C0
7FEF80
7FFF80
7FFF00
7FFF00
3FFE00
03DC00
03C000
03C000
ENDCHAR
STARTCHAR 03A7
ENCODING 935
SWIDTH 576 0
DWIDTH 16 0
BBX 16 18 0 0
BITMAP
001E
7C1F
FC3E
7E3E
7E7C
7F7C
3FF8
1FF8
0FF8
0FF0
07F0
0FF0
0FF0
1FF8
1F78
3E7C
3E3C
3E10
ENDCHAR
STARTCHAR 03A8
ENCODING 936
SWIDTH 720 0
DWIDTH 20 0
BBX 20 19 0 0
BITMAP
7000E0
F8F1F0
F8F1F0
F8F1F0
78F1E0
78F1E0
78F1E0
78F1E0
78F3E0
7EF7E0
3FFFC0
3FFFC0
1FFF80
0FFF00
01FC00
00F000
00F000
00F000
00F800
ENDCHAR
STARTCHAR 03A9
ENCODING 937
SWIDTH 612 0
DWIDTH 17 0
BBX 17 19 0 0
BITMAP
0FF000
3FFC00
3FFC00
7FFE00
7FFF00
7E3F00
7C1F00
780F00
780F00
780F00
780F00
780F00
3C0F00
3C1E00
1E3C00
FE3F80
FE3F80
FF3F80
FF3F80
ENDCHAR
STARTCHAR 03AA
ENCODING 938
SWIDTH 324 0
DWIDTH 9 0
BBX 10 23 0 0
BITMAP
0080
39C0
39C0
0000
1E00
3F80
1F00
3F00
3F00
3F00
3F00
3F00
3F00
3F00
3F00
3F00
3F00
3F00
3F00
3F00
7E00
7E00
F000
ENDCHAR
STARTCHAR 03AB
ENCODING 939
SWIDTH 612 0
DWIDTH 17 0
BBX 16 23 1 0
BITMAP
0040
0E60
0E60
0400
001F
F01E
F83E
F83C
FC7C
7C78
7EF8
3EF0
3FF0
1FE0
1FE0
0FC0
07C0
07C0
07C0
07C0
07C0
07C0
03C0
ENDCHAR
STARTCHAR 03AC
ENCODING 940
SWIDTH 612 0
DWIDTH 17 0
BBX 16 21 1 -1
BITMAP
1C00
1CC0
39C0
33C0
03E0
03E0
07E0
07E0
07F0
0FF0
0FF0
1DF8
1CF8
38F8
3FFC
7FFC
7CFE
78FE
F87E
F87F
C000
ENDCHAR
STARTCHAR 03AD
ENCODING 941
SWIDTH 576 0
DWIDTH 16 0
BBX 16 20 0 0
BITMAP
7000
7FF8
FFF8
CFF8
0FF8
0FF8
0FF0
0F80
0F90
07F0
07F0
07E0
07C0
07FE
07FE
07FE
03FF
03FF
03FC
0380
ENDCHAR
STARTCHAR 03AE
ENCODING 942
SWIDTH 576 0
DWIDTH 16 0
BBX 16 20 0 0
BITMAP
7000
7380
FF8F
CF8F
0F8F
0F9F
1F9F
1F9F
1FFF
1FFF
1FFF
1FFF
1FFF
1FFF
1F9F
1F9F
3F3F
3FBF
3F1F
0A20
ENDCHAR
STARTCHAR 03AF
ENCODING 943
SWIDTH 360 0
DWIDTH 10 0
BBX 10 20 0 0
BITMAP
7000
7F80
EFC0
CFC0
0FC0
0F80
1F80
1F80
1F80
1F80
1F80
1F80
1F80
1F80
1F80
1F80
1F80
1F80
3F80
3C00
ENDCHAR
STARTCHAR 03B0
ENCODING 944
SWIDTH 612 0
DWIDTH 17 0
BBX 16 25 1 0
BITMAP
00C0
01C0
0180
0E60
0E60
0400
001F
F01E
F83E
F83C
FC7C
7C78
7EF8
3EF0
3FF0
1FE0
1FE0
0FC0
07C0
07C0
07C0
07C0
07C0
07C0
03C0
ENDCHAR
STARTCHAR 03B1
ENCODING 945
SWIDTH 612 0
DWIDTH 17 0
BBX 16 20 1 -1
BITMAP
00C0
01C0
03C0
03E0
03E0
07E0
07E0
07F0
0FF0
0FF0
1DF8
1CF8
38F8
3FFC
7FFC
7CFE
78FE
F87E
F87F
C000
ENDCHAR
STARTCHAR 03B2
ENCODING 946
SWIDTH 504 0
DWIDTH 14 0
BBX 14 19 0 0
BITMAP
3F80
7FC0
FFE0
7FE0
7DF0
7CF0
7CE0
7CE0
7FC0
3FF0
3FF8
3E78
3E7C
3E7C
3EFC
3FFC
3FF0
3FF0
1F00
ENDCHAR
STARTCHAR 03B3
ENCODING 947
SWIDTH 504 0
DWIDTH 14 0
BBX 14 20 0 0
BITMAP
0060
3FF8
FFF8
FFF8
FFFC
FC00
FC00
FC00
7800
7800
7800
F800
7800
F800
F800
7800
7800
7C00
7C00
7800
ENDCHAR
STARTCHAR 03B4
ENCODING 948
SWIDTH 576 0
DWIDTH 16 0
BBX 16 18 0 1
BITMAP
01F0
03F0
03F0
07F0
07F8
0FF8
0FF8
1FFC
1F7C
3F7C
3E7C
3E3E
7E3E
7C3E
7FFF
FFFF
FFFF
FFFF
ENDCHAR
STARTCHAR 03B5
ENCODING 949
SWIDTH 468 0
DWIDTH 13 0
BBX 13 19 0 0
BITMAP
7FE0
FFC0
7FC0
7FC0
7FC0
3F00
3C00
3E40
3FC0
3FC0
3F00
1E00
1FF0
1FF8
1FF8
1FF8
1FF8
1FE0
0E00
ENDCHAR
STARTCHAR 03B6
ENCODING 950
SWIDTH 576 0
DWIDTH 16 0
BBX 16 19 0 0
BITMAP
07FC
3FF8
7FF8
7FF0
FFF0
01E0
03E0
03C0
03C0
07C0
0780
0780
0F80
0F00
0FFF
1FFF
1FFF
03FE
00F0
ENDCHAR
STARTCHAR 03B7
ENCODING 951
SWIDTH 540 0
DWIDTH 15 0
BBX 14 19 1 0
BITMAP
1E00
7E3C
7E7C
7E7C
7E7C
7E7C
7E7C
7FFC
7FFC
7FFC
7FFC
FFFC
FFFC
FCFC
FCFC
FCFC
FCF8
FCF8
1880
ENDCHAR
STARTCHAR 03B8
ENCODING 952
SWIDTH 504 0
DWIDTH 14 0
BBX 15 19 0 0
BITMAP
0FC0
3FF0
3FF8
7FF8
7FFC
7FFC
7FFC
FC7C
FFFC
7FFE
7FFC
7C7C
7EFC
7FFC
3FFC
3FF8
1FF8
0FF0
03E0
ENDCHAR
STARTCHAR 03B9
ENCODING 953
SWIDTH 324 0
DWIDTH 9 0
BBX 9 19 0 0
BITMAP
1E00
3F80
1F00
3F00
3F00
3F00
3F00
3F00
3F00
3F00
3F00
3F00
3F00
3F00
3F00
3F00
7E00
7E00
F000
ENDCHAR
STARTCHAR 03BA
ENCODING 954
SWIDTH 540 0
DWIDTH 15 0
BBX 15 19 0 0
BITMAP
7F18
7F3C
7F7E
7F7C
7FF8
7FF0
7FF0
7FE0
7FE0
7FC0
FFC0
FFE0
FFF0
FFF8
FF78
FF7C
7F3E
7F3E
7E10
ENDCHAR
STARTCHAR 03BB
ENCODING 955
SWIDTH 576 0
DWIDTH 16 0
BBX 16 19 0 0
BITMAP
0600
0F00
0F00
1F80
1FC0
1FC0
1FE0
1FE0
3FF0
3FF8
3EF8
3EFC
7EFC
7CFE
7C7E
7C7F
7C7F
FC0F
7000
ENDCHAR
STARTCHAR 03BC
ENCODING 956
SWIDTH 648 0
DWIDTH 18 0
BBX 17 19 1 0
BITMAP
200400
300C00
381E00
3C1E00
3C3E00
7E3E00
7E7E00
7FFE00
7FFE00
7FFE00
7FFF00
FCFF00
FCBF00
FC3F00
F83F00
F83F00
F83F00
F03F80
F00000
ENDCHAR
STARTCHAR 03BD
ENCODING 957
SWIDTH 540 0
DWIDTH 15 0
BBX 14 19 1 0
BITMAP
1018
7E7C
7E7C
7E7C
7E7C
7E7C
FE7C
FF7C
FF7C
FF78
FFF8
FBF8
FBF8
FBF8
F9F8
F9F8
F9F8
F9F8
E020
ENDCHAR
STARTCHAR 03BE
ENCODING 958
SWIDTH 468 0
DWIDTH 13 0
BBX 13 19 0 0
BITMAP
7F00
7FF8
7FF8
FFF8
5FF8
0000
0000
3FE0
3FE0
3FE0
3FE0
0000
0000
0000
FFF8
FFF8
FFF8
FFF8
03F8
ENDCHAR
STARTCHAR 03BF
ENCODING 959
SWIDTH 504 0
DWIDTH 14 0
BBX 15 19 0 0
BITMAP
0F00
1FC0
1FE0
3FF0
3FF8
7FF8
7FFC
7C7C
7C7C
FC7C
7C7E
7EFC
7FFC
7FFC
7FFC
3FFC
3FF8
1FF0
07E0
ENDCHAR
STARTCHAR 03C0
ENCODING 960
SWIDTH 540 0
DWIDTH 15 0
BBX 15 19 0 0
BITMAP
7FFE
FFFE
FFFE
FFFE
7FFE
783E
783E
783E
7C3E
7C3E
7C3E
7C3E
7C3E
7C3E
7C3E
7C3E
7C3E
7C3E
7C3E
ENDCHAR
STARTCHAR 03C1
ENCODING 961
SWIDTH 468 0
DWIDTH 13 0
BBX 13 19 0 0
BITMAP
1F80
3FE0
7FF0
7FF0
7CF8
7C78
7C78
7E78
7EF8
7FF8
7FF0
7FC0
7E00
7E00
FE00
FE00
FE00
FF00
7F00
ENDCHAR
STARTCHAR 03C2
ENCODING 962
SWIDTH 468 0
DWIDTH 13 0
BBX 13 23 0 -4
BITMAP
01C0
0FF0
1FF8
3FF8
7FF8
7FF8
7C00
F800
F800
F800
F800
7C00
7F00
7FE0
3FF8
1FF8
0FF8
00F8
00F8
03F8
03F0
03E0
03C0
ENDCHAR
STARTCHAR 03C3
ENCODING 963
SWIDTH 468 0
DWIDTH 13 0
BBX 13 19 0 0
BITMAP
7FF8
7FF8
7FF8
7FF8
FF00
7E00
3F00
0FC0
07E0
03E0
03E0
07C0
1F80
3F00
7FD0
7FF8
7FF8
7FF8
7FF8
ENDCHAR
STARTCHAR 03C4
ENCODING 964
SWIDTH 576 0
DWIDTH 16 0
BBX 16 19 0 0
BITMAP
3FFC
7FFE
7FFE
7FFE
7FFF
FFF8
63E0
03C0
03C0
03C0
03C0
03C0
03C0
03C0
03C0
03C0
03C0
03C0
03C0
ENDCHAR
STARTCHAR 03C5
ENCODING 965
SWIDTH 612 0
DWIDTH 17 0
BBX 16 19 1 0
BITMAP
001F
F01E
F83E
F83C
FC7C
7C78
7EF8
3EF0
3FF0
1FE0
1FE0
0FC0
07C0
07C0
07C0
07C0
07C0
07C0
03C0
ENDCHAR
STARTCHAR 03C6
ENCODING 966
SWIDTH 648 0
DWIDTH 18 0
BBX 18 22 0 -1
BITMAP
01C000
01F000
01F000
1FFF00
3FFF80
7FFF80
7FFF80
7FFFC0
7DFFC0
79F7C0
F9F7C0
F9F7C0
F9E7C0
7DE7C0
7FEF80
7FFF80
7FFF00
7FFF00
3FFE00
03DC00
03C000
03C000
ENDCHAR
STARTCHAR 03C7
ENCODING 967
SWIDTH 576 0
DWIDTH 16 0
BBX 16 18 0 0
BITMAP
001E
7C1F
FC3E
7E3E
7E7C
7F7C
3FF8
1FF8
0FF8
0FF0
07F0
0FF0
0FF0
1FF8
1F78
3E7C
3E3C
3E10
ENDCHAR
STARTCHAR 03C8
ENCODING 968
SWIDTH 720 0
DWIDTH 20 0
BBX 20 19 0 0
BITMAP
7000E0
F8F1F0
F8F1F0
F8F1F0
78F1E0
78F1E0
78F1E0
78F1E0
78F3E0
7EF7E0
3FFFC0
3FFFC0
1FFF80
0FFF00
01FC00
00F000
00F000
00F000
00F800
ENDCHAR
STARTCHAR 03C9
ENCODING 969
SWIDTH 612 0
DWIDTH 17 0
BBX 17 19 0 0
BITMAP
0FF000
3FFC00
3FFC00
7FFE00
7FFF00
7E3F00
7C1F00
780F00
780F00
780F00
780F00
780F00
3C0F00
3C1E00
1E3C00
FE3F80
FE3F80
FF3F80
FF3F80
ENDCHAR
STARTCHAR 03CA
ENCODING 970
SWIDTH 324 0
DWIDTH 9 0
BBX 10 23 0 0
BITMAP
0080
39C0
39C0
0000
1E00
3F80
1F00
3F00
3F00
3F00
3F00
3F00
3F00
3F00
3F00
3F00
3F00
3F00
3F00
3F00
7E00
7E00
F000
ENDCHAR
STARTCHAR 03CB
ENCODING 971
SWIDTH 612 0
DWIDTH 17 0
BBX 16 23 1 0
BITMAP
0040
0E60
0E60
0400
001F
F01E
F83E
F83C
FC7C
7C78
7EF8
3EF0
3FF0
1FE0
1FE0
0FC0
07C0
07C0
07C0
07C0
07C0
07C0
03C0
ENDCHAR
STARTCHAR 03CC
ENCODING 972
SWIDTH 540 0
DWIDTH 15 0
BBX 15 20 0 0
BITMAP
7000
7700
EFC0
DFF0
1FF0
3FF8
3FFC
3FFC
7E7C
7C3E
7C3E
7C7E
7E7E
7FFE
3FFE
3FFC
3FFC
1FFC
0FF8
03E0
ENDCHAR
STARTCHAR 03CD
ENCODING 973
SWIDTH 684 0
DWIDTH 19 0
BBX 19 20 0 0
BITMAP
700000
7003E0
EE03C0
DF07C0
1F8780
0F8F80
0F8F00
07DF00
07DE00
03FE00
03FC00
01FC00
01FC00
00F800
00F800
007800
007800
007800
007800
007800
ENDCHAR
STARTCHAR 03CE
ENCODING 974
SWIDTH 612 0
DWIDTH 17 0
BBX 18 20 0 0
BITMAP
700000
7FF800
FFFC00
DFFE00
3FFF00
3FFF00
3F1F80
3E0F80
3C0780
3C0780
3C0780
3C0780
3C0780
1E0700
1E0F00
0F1E00
7F1FC0
7F1FC0
7F1F80
7F1F80
ENDCHAR
STARTCHAR 03D2
ENCODING 978
SWIDTH 612 0
DWIDTH 17 0
BBX 16 19 1 0
BITMAP
C00C
F01F
F83F
FC3F
FC7F
1EFF
1EF2
0EE0
0EE0
0FC0
0FC0
0FC0
07C0
0780
0780
0780
0780
07C0
0780
ENDCHAR
STARTCHAR 03D3
ENCODING 979
SWIDTH 720 0
DWIDTH 20 0
BBX 20 20 0 0
BITMAP
700000
6C00C0
EF01E0
CF83F0
0FC7F0
0FC7F0
01EFE0
01EE40
01EE00
00FE00
00FC00
00FC00
00F800
00F800
007800
007800
007800
007800
007800
007800
ENDCHAR
STARTCHAR 03D4
ENCODING 980
SWIDTH 612 0
DWIDTH 17 0
BBX 16 23 1 0
BITMAP
0040
0E60
0E60
0400
C00C
F01F
F83F
FC3F
FC7F
1EFF
1EF2
0EE0
0EE0
0FC0
0FC0
0FC0
07C0
0780
0780
0780
0780
07C0
0780
ENDCHAR
STARTCHAR 03D5
ENCODING 981
SWIDTH 648 0
DWIDTH 18 0
BBX 18 22 0 -1
BITMAP
01C000
01F000
01F000
1FFF00
3FFF80
7FFF80
7FFF80
7FFFC0
7DFFC0
79F7C0
F9F7C0
F9F7C0
F9E7C0
7DE7C0
7FEF80
7FFF80
7FFF00
7FFF00
3FFE00
03DC00
03C000
03C000
ENDCHAR
STARTCHAR 03D8
ENCODING 984
SWIDTH 504 0
DWIDTH 14 0
BBX 15 22 0 -4
BITMAP
07F0
0FF0
1FF8
3FF8
3FFC
7FFC
7CFC
7C7C
783C
F83E
FC3C
7C7C
7FFC
7FFC
7FF8
7FF8
3FF0
1FE0
0FC0
0780
0780
0780
ENDCHAR
STARTCHAR 03D9
ENCODING 985
SWIDTH 504 0
DWIDTH 14 0
BBX 15 22 0 -4
BITMAP
07F0
0FF0
1FF8
3FF8
3FFC
7FFC
7CFC
7C7C
783C
F83E
FC3C
7C7C
7FFC
7FFC
7FF8
7FF8
3FF0
1FE0
0FC0
0780
0780
0780
ENDCHAR
STARTCHAR 03DA
ENCODING 986
SWIDTH 468 0
DWIDTH 13 0
BBX 14 23 0 -4
BITMAP
07FC
1FF8
3FF8
3FF8
7FF8
7E00
F800
F800
F800
F800
F800
F800
7C00
7F80
7FF0
3FF8
1FF8
07F8
00F8
03F8
03F0
03F0
03C0
ENDCHAR
STARTCHAR 03DB
ENCODING 987
SWIDTH 468 0
DWIDTH 13 0
BBX 14 23 0 -4
BITMAP
07FC
1FF8
3FF8
3FF8
7FF8
7E00
F800
F800
F800
F800
F800
F800
7C00
7F80
7FF0
3FF8
1FF8
07F8
00F8
03F8
03F0
03F0
03C0
ENDCHAR
STARTCHAR 03F2
ENCODING 1010
SWIDTH 468 0
DWIDTH 13 0
BBX 13 19 0 0
BITMAP
03C0
0FF0
3FF8
3FF8
7FF8
7FC0
7E00
7C00
FC00
7C00
FE08
7FF8
7FF8
7FF8
7FF8
3FF8
3FF0
1FE0
0180
ENDCHAR
STARTCHAR 03F3
ENCODING 1011
SWIDTH 432 0
DWIDTH 12 0
BBX 12 19 0 0
BITMAP
03F0
03F0
03F0
07F0
07F0
07F0
07F0
07F0
07F0
07F0
03F0
03F0
03F0
FBF0
7BF0
7FE0
7FE0
3FC0
0F80
ENDCHAR
STARTCHAR 03F4
ENCODING 1012
SWIDTH 504 0
DWIDTH 14 0
BBX 15 19 0 0
BITMAP
1FC0
3FE0
3FF0
3FF8
7FF8
7FFC
7CFC
7C7C
FFFC
FFFC
7E7E
7C7C
7FFC
7FFC
7FFC
3FFC
3FF8
0FF0
07E0
ENDCHAR
STARTCHAR 03F7
ENCODING 1015
SWIDTH 504 0
DWIDTH 14 0
BBX 14 19 0 0
BITMAP
F800
F800
FE00
7FC0
7FE0
7FF0
7DF0
7C78
7C78
7C78
7C78
7CF8
7FFC
7FF8
7FF0
7E00
7E00
7E00
7E00
ENDCHAR
STARTCHAR 03F8
ENCODING 1016
SWIDTH 504 0
DWIDTH 14 0
BBX 14 19 0 0
BITMAP
F800
F800
FE00
7FC0
7FE0
7FF0
7DF0
7C78
7C78
7C78
7C78
7CF8
7FFC
7FF8
7FF0
7E00
7E00
7E00
7E00
ENDCHAR
STARTCHAR 03F9
ENCODING 1017
SWIDTH 468 0
DWIDTH 13 0
BBX 13 19 0 0
BITMAP
03C0
0FF0
3FF8
3FF8
7FF8
7FC0
7E00
7C00
FC00
7C00
FE08
7FF8
7FF8
7FF8
7FF8
3FF8
3FF0
1FE0
0180
ENDCHAR
STARTCHAR 03FA
ENCODING 1018
SWIDTH 612 0
DWIDTH 17 0
BBX 17 19 0 0
BITMAP
200C00
701C00
7C7C00
7EFE00
7FFE00
7FFE00
7FFE00
7DBE00
7C3E00
7C3F00
7C1F00
7C1F00
7C1F00
7C1F00
7C1F00
7E0F00
FE0F80
FC0F80
740D80
ENDCHAR
STARTCHAR 03FB
ENCODING 1019
SWIDTH 612 0
DWIDTH 17 0
BBX 17 19 0 0
BITMAP
200C00
701C00
7C7C00
7EFE00
7FFE00
7FFE00
7FFE00
7DBE00
7C3E00
7C3F00
7C1F00
7C1F00
7C1F00
7C1F00
7C1F00
7E0F00
FE0F80
FC0F80
740D80
ENDCHAR
STARTCHAR 03FD
ENCODING 1021
SWIDTH 468 0
DWIDTH 13 0
BBX 13 19 0 0
BITMAP
1E00
7FC0
FFE0
FFF0
7FF8
2FF8
01F8
01F8
00F8
00F8
41F8
7FF8
7FF8
7FF8
7FF0
7FF0
3FE0
3FE0
0600
ENDCHAR
STARTCHAR 0400
ENCODING 1024
SWIDTH 468 0
DWIDTH 13 0
BBX 13 24 0 0
BITMAP
F000
7800
3C00
1C00
0000
7FE0
FFC0
7FC0
7FC0
7FC0
3F00
3C00
3E40
3FC0
3FC0
3F00
1E00
1FF0
1FF8
1FF8
1FF8
1FF8
1FE0
0E00
ENDCHAR
STARTCHAR 0401
ENCODING 1025
SWIDTH 468 0
DWIDTH 13 0
BBX 13 23 0 0
BITMAP
0300
7700
7300
2000
7FE0
FFC0
7FC0
7FC0
7FC0
3F00
3C00
3E40
3FC0
3FC0
3F00
1E00
1FF0
1FF8
1FF8
1FF8
1FF8
1FE0
0E00
ENDCHAR
STARTCHAR 0402
ENCODING 1026
SWIDTH 648 0
DWIDTH 18 0
BBX 18 22 0 -3
BITMAP
7FFE00
FFFE00
FFFE00
FFFE00
03C000
03E000
03FE00
03FF00
03FF80
03FFC0
03E7C0
03C3C0
03C3C0
03C3C0
03C3C0
03C3C0
03C3C0
03C3C0
03C3C0
000FC0
000FC0
000F80
ENDCHAR
STARTCHAR 0403
ENCODING 1027
SWIDTH 504 0
DWIDTH 14 0
BBX 14 24 0 0
BITMAP
01E0
03C0
0380
0700
0060
3FF8
FFF8
FFF8
FFFC
FC00
FC00
FC00
7800
7800
7800
F800
7800
F800
F800
7800
7800
7C00
7C00
7800
ENDCHAR
STARTCHAR 0404
ENCODING 1028
SWIDTH 468 0
DWIDTH 13 0
BBX 13 19 0 0
BITMAP
07C0
1FF0
1FF8
3FF8
7FF8
7FF8
7CF8
7808
FFE0
FFE0
FFE0
FFE0
7C00
7FF8
7FF8
3FF8
1FF8
0FF0
01C0
ENDCHAR
STARTCHAR 0405
ENCODING 1029
SWIDTH 504 0
DWIDTH 14 0
BBX 14 19 0 0
BITMAP
0FFC
1FF8
1FF8
3FF0
3FF0
7FE0
7FE0
7C20
3F00
3FC0
1FF0
03F0
00F8
60F8
7FF8
FFF8
FFF0
7FE0
1FC0
ENDCHAR
STARTCHAR 0406
ENCODING 1030
SWIDTH 324 0
DWIDTH 9 0
BBX 9 19 0 0
BITMAP
1E00
3F80
1F00
3F00
3F00
3F00
3F00
3F00
3F00
3F00
3F00
3F00
3F00
3F00
3F00
3F00
7E00
7E00
F000
ENDCHAR
STARTCHAR 0407
ENCODING 1031
SWIDTH 324 0
DWIDTH 9 0
BBX 10 23 0 0
BITMAP
0080
39C0
39C0
0000
1E00
3F80
1F00
3F00
3F00
3F00
3F00
3F00
3F00
3F00
3F00
3F00
3F00
3F00
3F00
3F00
7E00
7E00
F000
ENDCHAR
STARTCHAR 0408
ENCODING 1032
SWIDTH 432 0
DWIDTH 12 0
BBX 12 19 0 0
BITMAP
03F0
03F0
03F0
07F0
07F0
07F0
07F0
07F0
07F0
07F0
03F0
03F0
03F0
FBF0
7BF0
7FE0
7FE0
3FC0
0F80
ENDCHAR
STARTCHAR 0409
ENCODING 1033
SWIDTH 720 0
DWIDTH 20 0
BBX 20 19 0 0
BITMAP
01F000
07FC00
07FC00
07FC00
0FFC00
0FF800
0FFC00
1FFF80
1F7FC0
1F7FE0
3E79E0
3E78E0
3E78F0
7E78F0
7C78F0
7C79F0
7C7FE0
FC7FE0
707FC0
ENDCHAR
STARTCHAR 040A
ENCODING 1034
SWIDTH 720 0
DWIDTH 20 0
BBX 19 19 1 0
BITMAP
1CE000
7CF800
7CF800
7CF800
7CF800
7CF000
7CF800
7FFF00
7FFF80
7FFFC0
FFF3C0
FFF1C0
FFF1E0
FCF1E0
FCF1E0
F8F3E0
FCFFC0
FCFFC0
18FF80
ENDCHAR
STARTCHAR 040B
ENCODING 1035
SWIDTH 648 0
DWIDTH 18 0
BBX 18 19 0 0
BITMAP
7FFE00
FFFE00
FFFE00
FFFE00
03C000
03E000
03FE00
03FF00
03FF80
03FFC0
03E7C0
03C7C0
03C3C0
03C3C0
03C3C0
03C3C0
03C3C0
03C3C0
03C3C0
ENDCHAR
STARTCHAR 040C
ENCODING 1036
SWIDTH 540 0
DWIDTH 15 0
BBX 15 24 0 0
BITMAP
003C
0078
00F0
00E0
0000
7F18
7F3C
7F7E
7F7C
7FF8
7FF0
7FF0
7FE0
7FE0
7FC0
FFC0
FFE0
FFF0
FFF8
FF78
FF7C
7F3E
7F3E
7E10
ENDCHAR
STARTCHAR 040D
ENCODING 1037
SWIDTH 540 0
DWIDTH 15 0
BBX 14 24 1 0
BITMAP
7800
3C00
1C00
0E00
0000
2060
F9F0
F9F8
F9F8
F9F8
F9F8
F9F8
FBF8
FBF8
FFF8
FFF8
FFF8
7F7C
7E7C
7E7C
7C7C
7C7C
7C7C
101C
ENDCHAR
STARTCHAR 040E
ENCODING 1038
SWIDTH 504 0
DWIDTH 14 0
BBX 13 24 1 0
BITMAP
31C0
3BC0
3F80
1F00
0000
F9F8
F9F0
F9F0
F9F0
7DF0
7DE0
3DE0
3FE0
1FE0
1FE0
0FE0
0FC0
0FC0
FFC0
FFC0
FFC0
FF80
FF00
F000
ENDCHAR
STARTCHAR 040F
ENCODING 1039
SWIDTH 504 0
DWIDTH 14 0
BBX 14 21 0 -4
BITMAP
787C
787C
787C
787C
787C
787C
787C
787C
787C
F87C
F87C
F87C
F87C
FFFC
FFFC
FFFC
FFFC
1FC0
0780
0780
0780
ENDCHAR
STARTCHAR 0410
ENCODING 1040
SWIDTH 612 0
DWIDTH 17 0
BBX 16 20 1 -1
BITMAP
00C0
01C0
03C0
03E0
03E0
07E0
07E0
07F0
0FF0
0FF0
1DF8
1CF8
38F8
3FFC
7FFC
7CFE
78FE
F87E
F87F
C000
ENDCHAR
STARTCHAR 0411
ENCODING 1041
SWIDTH 468 0
DWIDTH 13 0
BBX 12 19 1 0
BITMAP
FFC0
FFF0
FFF0
FFF0
FFF0
F800
F800
FF80
FFE0
FFF0
FFF0
F8F0
FC70
FCF0
FCF0
FFE0
FFE0
FFC0
3E00
ENDCHAR
STARTCHAR 0412
ENCODING 1042
SWIDTH 504 0
DWIDTH 14 0
BBX 14 19 0 0
BITMAP
3F80
7FC0
FFE0
7FE0
7DF0
7CF0
7CE0
7CE0
7FC0
3FF0
3FF8
3E78
3E7C
3E7C
3EFC
3FFC
3FF0
3FF0
1F00
ENDCHAR
STARTCHAR 0413
ENCODING 1043
SWIDTH 504 0
DWIDTH 14 0
BBX 14 20 0 0
BITMAP
0060
3FF8
FFF8
FFF8
FFFC
FC00
FC00
FC00
7800
7800
7800
F800
7800
F800
F800
7800
7800
7C00
7C00
7800
ENDCHAR
STARTCHAR 0414
ENCODING 1044
SWIDTH 576 0
DWIDTH 16 0
BBX 16 22 0 -3
BITMAP
01E0
01F0
03F0
03F0
07F0
07F0
0FF8
0FF8
0F78
1F78
1F7C
1E7C
3E3C
3E3E
7FFE
FFFF
7FFF
7FFF
780F
780E
7C1E
3C18
ENDCHAR
STARTCHAR 0415
ENCODING 1045
SWIDTH 468 0
DWIDTH 13 0
BBX 13 19 0 0
BITMAP
7FE0
FFC0
7FC0
7FC0
7FC0
3F00
3C00
3E40
3FC0
3FC0
3F00
1E00
1FF0
1FF8
1FF8
1FF8
1FF8
1FE0
0E00
ENDCHAR
STARTCHAR 0416
ENCODING 1046
SWIDTH 684 0
DWIDTH 19 0
BBX 19 19 0 0
BITMAP
0040C0
FDE3C0
7DE7C0
7DE7C0
7FF7C0
3FFF80
3FFF80
1FFF80
1FFF00
1FFF00
1FFF00
1FFF80
3FFFC0
3EF7E0
7EF7E0
7EFBE0
7EFBE0
7CF980
183000
ENDCHAR
STARTCHAR 0417
ENCODING 1047
SWIDTH 468 0
DWIDTH 13 0
BBX 13 19 0 0
BITMAP
7FC0
7FE0
FFF0
FFF0
E1F0
00F0
01F0
03F0
1FE0
1FE0
1FF0
00F8
00F8
00F8
3FF8
3FF8
3FF0
3FE0
1FC0
ENDCHAR
STARTCHAR 0418
ENCODING 1048
SWIDTH 540 0
DWIDTH 15 0
BBX 14 19 1 0
BITMAP
2060
F9F0
F9F8
F9F8
F9F8
F9F8
F9F8
FBF8
FBF8
FFF8
FFF8
FFF8
7F7C
7E7C
7E7C
7C7C
7C7C
7C7C
101C
ENDCHAR
STARTCHAR 0419
ENCODING 1049
SWIDTH 540 0
DWIDTH 15 0
BBX 14 24 1 0
BITMAP
31C0
3BC0
3F80
1F00
0000
2060
F9F0
F9F8
F9F8
F9F8
F9F8
F9F8
FBF8
FBF8
FFF8
FFF8
FFF8
7F7C
7E7C
7E7C
7C7C
7C7C
7C7C
101C
ENDCHAR
STARTCHAR 041A
ENCODING 1050
SWIDTH 540 0
DWIDTH 15 0
BBX 15 19 0 0
BITMAP
7F18
7F3C
7F7E
7F7C
7FF8
7FF0
7FF0
7FE0
7FE0
7FC0
FFC0
FFE0
FFF0
FFF8
FF78
FF7C
7F3E
7F3E
7E10
ENDCHAR
STARTCHAR 041B
ENCODING 1051
SWIDTH 576 0
DWIDTH 16 0
BBX 16 19 0 0
BITMAP
0600
0F00
0F00
1F80
1FC0
1FC0
1FE0
1FE0
3FF0
3FF8
3EF8
3EFC
7EFC
7CFE
7C7E
7C7F
7C7F
FC0F
7000
ENDCHAR
STARTCHAR 041C
ENCODING 1052
SWIDTH 648 0
DWIDTH 18 0
BBX 17 19 1 0
BITMAP
200400
300C00
381E00
3C1E00
3C3E00
7E3E00
7E7E00
7FFE00
7FFE00
7FFE00
7FFF00
FCFF00
FCBF00
FC3F00
F83F00
F83F00
F83F00
F03F80
F00000
ENDCHAR
STARTCHAR 041D
ENCODING 1053
SWIDTH 540 0
DWIDTH 15 0
BBX 14 19 1 0
BITMAP
1E00
7E3C
7E7C
7E7C
7E7C
7E7C
7E7C
7FFC
7FFC
7FFC
7FFC
FFFC
FFFC
FCFC
FCFC
FCFC
FCF8
FCF8
1880
ENDCHAR
STARTCHAR 041E
ENCODING 1054
SWIDTH 504 0
DWIDTH 14 0
BBX 15 19 0 0
BITMAP
0F00
1FC0
1FE0
3FF0
3FF8
7FF8
7FFC
7C7C
7C7C
FC7C
7C7E
7EFC
7FFC
7FFC
7FFC
3FFC
3FF8
1FF0
07E0
ENDCHAR
STARTCHAR 041F
ENCODING 1055
SWIDTH 540 0
DWIDTH 15 0
BBX 15 19 0 0
BITMAP
7FFE
FFFE
FFFE
FFFE
7FFE
783E
783E
783E
7C3E
7C3E
7C3E
7C3E
7C3E
7C3E
7C3E
7C3E
7C3E
7C3E
7C3E
ENDCHAR
STARTCHAR 0420
ENCODING 1056
SWIDTH 468 0
DWIDTH 13 0
BBX 13 19 0 0
BITMAP
1F80
3FE0
7FF0
7FF0
7CF8
7C78
7C78
7E78
7EF8
7FF8
7FF0
7FC0
7E00
7E00
FE00
FE00
FE00
FF00
7F00
ENDCHAR
STARTCHAR 0421
ENCODING 1057
SWIDTH 468 0
DWIDTH 13 0
BBX 13 19 0 0
BITMAP
03C0
0FF0
3FF8
3FF8
7FF8
7FC0
7E00
7C00
FC00
7C00
FE08
7FF8
7FF8
7FF8
7FF8
3FF8
3FF0
1FE0
0180
ENDCHAR
STARTCHAR 0422
ENCODING 1058
SWIDTH 576 0
DWIDTH 16 0
BBX 16 19 0 0
BITMAP
3FFC
7FFE
7FFE
7FFE
7FFF
FFF8
63E0
03C0
03C0
03C0
03C0
03C0
03C0
03C0
03C0
03C0
03C0
03C0
03C0
ENDCHAR
STARTCHAR 0423
ENCODING 1059
SWIDTH 504 0
DWIDTH 14 0
BBX 13 19 1 0
BITMAP
F9F8
F9F0
F9F0
F9F0
7DF0
7DE0
3DE0
3FE0
1FE0
1FE0
0FE0
0FC0
0FC0
FFC0
FFC0
FFC0
FF80
FF00
F000
ENDCHAR
STARTCHAR 0424
ENCODING 1060
SWIDTH 648 0
DWIDTH 18 0
BBX 18 22 0 -1
BITMAP
01C000
01F000
01F000
1FFF00
3FFF80
7FFF80
7FFF80
7FFFC0
7DFFC0
79F7C0
F9F7C0
F9F7C0
F9E7C0
7DE7C0
7FEF80
7FFF80
7FFF00
7FFF00
3FFE00
03DC00
03C000
03C000
ENDCHAR
STARTCHAR 0425
ENCODING 1061
SWIDTH 576 0
DWIDTH 16 0
BBX 16 18 0 0
BITMAP
001E
7C1F
FC3E
7E3E
7E7C
7F7C
3FF8
1FF8
0FF8
0FF0
07F0
0FF0
0FF0
1FF8
1F78
3E7C
3E3C
3E10
ENDCHAR
STARTCHAR 0426
ENCODING 1062
SWIDTH 504 0
DWIDTH 14 0
BBX 14 22 0 -4
BITMAP
7C3C
7C3C
7C7C
7C3C
7C7C
7C7C
783C
783C
783C
783C
783C
783C
783C
FFFC
FFFC
FFFC
7FFC
003C
003C
003C
003C
0004
ENDCHAR
STARTCHAR 0427
ENCODING 1063
SWIDTH 504 0
DWIDTH 14 0
BBX 14 18 0 0
BITMAP
F8F8
F8F8
78F8
7878
7878
7878
78F8
7CF8
7FF8
7FF8
3FF8
1FF8
0078
0078
007C
007C
007C
0030
ENDCHAR
STARTCHAR 0428
ENCODING 1064
SWIDTH 720 0
DWIDTH 20 0
BBX 20 19 0 0
BITMAP
7000F0
F8F9F0
F8F9F0
F8F9F0
78F9F0
78F9F0
78F9F0
78F9F0
78F9F0
78F9F0
7CF9F0
7CF9F0
7CF9F0
7FFFF0
7FFFF0
3FFFF0
3FFFF0
3FFFF0
3FFFE0
ENDCHAR
STARTCHAR 0429
ENCODING 1065
SWIDTH 720 0
DWIDTH 20 0
BBX 20 23 0 -4
BITMAP
7801C0
7C71F0
FC71E0
FC71E0
7C71E0
7C71E0
7C71F0
7C71E0
7C79E0
7C79E0
7C79E0
7C79E0
7E79E0
7FFFE0
7FFFE0
7FFFE0
3FFFE0
3FFFE0
3FFFE0
0001E0
0001E0
0003E0
0001E0
ENDCHAR
STARTCHAR 042A
ENCODING 1066
SWIDTH 612 0
DWIDTH 17 0
BBX 16 19 1 0
BITMAP
FE00
FE00
FE00
FE00
FF00
0F00
0FF0
0FFC
0FFE
0FFE
0F9F
0F0F
0F0F
0F8F
0F8F
0FFF
0FFE
0FFC
07C0
ENDCHAR
STARTCHAR 042B
ENCODING 1067
SWIDTH 648 0
DWIDTH 18 0
BBX 18 18 0 0
BITMAP
F801C0
7803C0
F803C0
7803C0
7803C0
7803C0
7F83C0
7FE3C0
7FF3C0
7FF3C0
7C7BC0
7C7BC0
7C7BC0
7C7BC0
7CFBC0
7FFBC0
7FF3C0
7FE3C0
ENDCHAR
STARTCHAR 042C
ENCODING 1068
SWIDTH 468 0
DWIDTH 13 0
BBX 13 19 0 0
BITMAP
F800
F800
F800
7800
7800
7800
7F80
7FE0
7FF0
7FF0
7CF8
7C78
7C78
7C78
7C78
7DF8
7FF8
7FF0
7FE0
ENDCHAR
STARTCHAR 042D
ENCODING 1069
SWIDTH 468 0
DWIDTH 13 0
BBX 14 19 0 0
BITMAP
0F80
3FC0
7FE0
7FF0
7FF8
7FF8
7DF8
40F8
1FFC
1FFC
1FFC
1FFC
00F8
7FF8
7FF8
FFF0
7FE0
3FC0
0E00
ENDCHAR
STARTCHAR 042E
ENCODING 1070
SWIDTH 648 0
DWIDTH 18 0
BBX 18 20 0 0
BITMAP
001800
1C3E00
3E7F00
3E7F80
3E7F80
3E7F80
3EFFC0
3EFFC0
3FF3C0
7FF3C0
7FF3C0
7FF3C0
7FF3C0
7EF3C0
7E7FC0
7E7FC0
7E3FC0
FE3F80
7F1F80
000600
ENDCHAR
STARTCHAR 042F
ENCODING 1071
SWIDTH 504 0
DWIDTH 14 0
BBX 13 20 1 -1
BITMAP
0FF0
3FF0
7FF0
F3F0
E3F8
E3F8
E3F8
F3F8
FFF8
7FF8
1FF8
1FF8
3FF8
3DF8
79F8
79F8
79F8
F9F8
F1F0
7000
ENDCHAR
STARTCHAR 0430
ENCODING 1072
SWIDTH 612 0
DWIDTH 17 0
BBX 16 20 1 -1
BITMAP
00C0
01C0
03C0
03E0
03E0
07E0
07E0
07F0
0FF0
0FF0
1DF8
1CF8
38F8
3FFC
7FFC
7CFE
78FE
F87E
F87F
C000
ENDCHAR
STARTCHAR 0431
ENCODING 1073
SWIDTH 468 0
DWIDTH 13 0
BBX 12 19 1 0
BITMAP
FFC0
FFF0
FFF0
FFF0
FFF0
F800
F800
FF80
FFE0
FFF0
FFF0
F8F0
FC70
FCF0
FCF0
FFE0
FFE0
FFC0
3E00
ENDCHAR
STARTCHAR 0432
ENCODING 1074
SWIDTH 504 0
DWIDTH 14 0
BBX 14 19 0 0
BITMAP
3F80
7FC0
FFE0
7FE0
7DF0
7CF0
7CE0
7CE0
7FC0
3FF0
3FF8
3E78
3E7C
3E7C
3EFC
3FFC
3FF0
3FF0
1F00
ENDCHAR
STARTCHAR 0433
ENCODING 1075
SWIDTH 504 0
DWIDTH 14 0
BBX 14 20 0 0
BITMAP
0060
3FF8
FFF8
FFF8
FFFC
FC00
FC00
FC00
7800
7800
7800
F800
7800
F800
F800
7800
7800
7C00
7C00
7800
ENDCHAR
STARTCHAR 0434
ENCODING 1076
SWIDTH 576 0
DWIDTH 16 0
BBX 16 22 0 -3
BITMAP
01E0
01F0
03F0
03F0
07F0
07F0
0FF8
0FF8
0F78
1F78
1F7C
1E7C
3E3C
3E3E
7FFE
FFFF
7FFF
7FFF
780F
780E
7C1E
3C18
ENDCHAR
STARTCHAR 0435
ENCODING 1077
SWIDTH 468 0
DWIDTH 13 0
BBX 13 19 0 0
BITMAP
7FE0
FFC0
7FC0
7FC0
7FC0
3F00
3C00
3E40
3FC0
3FC0
3F00
1E00
1FF0
1FF8
1FF8
1FF8
1FF8
1FE0
0E00
ENDCHAR
STARTCHAR 0436
ENCODING 1078
SWIDTH 684 0
DWIDTH 19 0
BBX 19 19 0 0
BITMAP
0040C0
FDE3C0
7DE7C0
7DE7C0
7FF7C0
3FFF80
3FFF80
1FFF80
1FFF00
1FFF00
1FFF00
1FFF80
3FFFC0
3EF7E0
7EF7E0
7EFBE0
7EFBE0
7CF980
183000
ENDCHAR
STARTCHAR 0437
ENCODING 1079
SWIDTH 468 0
DWIDTH 13 0
BBX 13 19 0 0
BITMAP
7FC0
7FE0
FFF0
FFF0
E1F0
00F0
01F0
03F0
1FE0
1FE0
1FF0
00F8
00F8
00F8
3FF8
3FF8
3FF0
3FE0
1FC0
ENDCHAR
STARTCHAR 0438
ENCODING 1080
SWIDTH 540 0
DWIDTH 15 0
BBX 14 19 1 0
BITMAP
2060
F9F0
F9F8
F9F8
F9F8
F9F8
F9F8
FBF8
FBF8
FFF8
FFF8
FFF8
7F7C
7E7C
7E7C
7C7C
7C7C
7C7C
101C
ENDCHAR
STARTCHAR 0439
ENCODING 1081
SWIDTH 540 0
DWIDTH 15 0
BBX 14 24 1 0
BITMAP
31C0
3BC0
3F80
1F00
0000
2060
F9F0
F9F8
F9F8
F9F8
F9F8
F9F8
FBF8
FBF8
FFF8
FFF8
FFF8
7F7C
7E7C
7E7C
7C7C
7C7C
7C7C
101C
ENDCHAR
STARTCHAR 043A
ENCODING 1082
SWIDTH 540 0
DWIDTH 15 0
BBX 15 19 0 0
BITMAP
7F18
7F3C
7F7E
7F7C
7FF8
7FF0
7FF0
7FE0
7FE0
7FC0
FFC0
FFE0
FFF0
FFF8
FF78
FF7C
7F3E
7F3E
7E10
ENDCHAR
STARTCHAR 043B
ENCODING 1083
SWIDTH 576 0
DWIDTH 16 0
BBX 16 19 0 0
BITMAP
0600
0F00
0F00
1F80
1FC0
1FC0
1FE0
1FE0
3FF0
3FF8
3EF8
3EFC
7EFC
7CFE
7C7E
7C7F
7C7F
FC0F
7000
ENDCHAR
STARTCHAR 043C
ENCODING 1084
SWIDTH 648 0
DWIDTH 18 0
BBX 17 19 1 0
BITMAP
200400
300C00
381E00
3C1E00
3C3E00
7E3E00
7E7E00
7FFE00
7FFE00
7FFE00
7FFF00
FCFF00
FCBF00
FC3F00
F83F00
F83F00
F83F00
F03F80
F00000
ENDCHAR
STARTCHAR 043D
ENCODING 1085
SWIDTH 540 0
DWIDTH 15 0
BBX 14 19 1 0
BITMAP
1E00
7E3C
7E7C
7E7C
7E7C
7E7C
7E7C
7FFC
7FFC
7FFC
7FFC
FFFC
FFFC
FCFC
FCFC
FCFC
FCF8
FCF8
1880
ENDCHAR
STARTCHAR 043E
ENCODING 1086
SWIDTH 504 0
DWIDTH 14 0
BBX 15 19 0 0
BITMAP
0F00
1FC0
1FE0
3FF0
3FF8
7FF8
7FFC
7C7C
7C7C
FC7C
7C7E
7EFC
7FFC
7FFC
7FFC
3FFC
3FF8
1FF0
07E0
ENDCHAR
STARTCHAR 043F
ENCODING 1087
SWIDTH 540 0
DWIDTH 15 0
BBX 15 19 0 0
BITMAP
7FFE
FFFE
FFFE
FFFE
7FFE
783E
783E
783E
7C3E
7C3E
7C3E
7C3E
7C3E
7C3E
7C3E
7C3E
7C3E
7C3E
7C3E
ENDCHAR
STARTCHAR 0440
ENCODING 1088
SWIDTH 468 0
DWIDTH 13 0
BBX 13 19 0 0
BITMAP
1F80
3FE0
7FF0
7FF0
7CF8
7C78
7C78
7E78
7EF8
7FF8
7FF0
7FC0
7E00
7E00
FE00
FE00
FE00
FF00
7F00
ENDCHAR
STARTCHAR 0441
ENCODING 1089
SWIDTH 468 0
DWIDTH 13 0
BBX 13 19 0 0
BITMAP
03C0
0FF0
3FF8
3FF8
7FF8
7FC0
7E00
7C00
FC00
7C00
FE08
7FF8
7FF8
7FF8
7FF8
3FF8
3FF0
1FE0
0180
ENDCHAR
STARTCHAR 0442
ENCODING 1090
SWIDTH 576 0
DWIDTH 16 0
BBX 16 19 0 0
BITMAP
3FFC
7FFE
7FFE
7FFE
7FFF
FFF8
63E0
03C0
03C0
03C0
03C0
03C0
03C0
03C0
03C0
03C0
03C0
03C0
03C0
ENDCHAR
STARTCHAR 0443
ENCODING 1091
SWIDTH 504 0
DWIDTH 14 0
BBX 13 19 1 0
BITMAP
F9F8
F9F0
F9F0
F9F0
7DF0
7DE0
3DE0
3FE0
1FE0
1FE0
0FE0
0FC0
0FC0
FFC0
FFC0
FFC0
FF80
FF00
F000
ENDCHAR
STARTCHAR 0444
ENCODING 1092
SWIDTH 648 0
DWIDTH 18 0
BBX 18 22 0 -1
BITMAP
01C000
01F000
01F000
1FFF00
3FFF80
7FFF80
7FFF80
7FFFC0
7DFFC0
79F7C0
F9F7C0
F9F7C0
F9E7C0
7DE7C0
7FEF80
7FFF80
7FFF00
7FFF00
3FFE00
03DC00
03C000
03C000
ENDCHAR
STARTCHAR 0445
ENCODING 1093
SWIDTH 576 0
DWIDTH 16 0
BBX 16 18 0 0
BITMAP
001E
7C1F
FC3E
7E3E
7E7C
7F7C
3FF8
1FF8
0FF8
0FF0
07F0
0FF0
0FF0
1FF8
1F78
3E7C
3E3C
3E10
ENDCHAR
STARTCHAR 0446
ENCODING 1094
SWIDTH 504 0
DWIDTH 14 0
BBX 14 22 0 -4
BITMAP
7C3C
7C3C
7C7C
7C3C
7C7C
7C7C
783C
783C
783C
783C
783C
783C
783C
FFFC
FFFC
FFFC
7FFC
003C
003C
003C
003C
0004
ENDCHAR
STARTCHAR 0447
ENCODING 1095
SWIDTH 504 0
DWIDTH 14 0
BBX 14 18 0 0
BITMAP
F8F8
F8F8
78F8
7878
7878
7878
78F8
7CF8
7FF8
7FF8
3FF8
1FF8
0078
0078
007C
007C
007C
0030
ENDCHAR
STARTCHAR 0448
ENCODING 1096
SWIDTH 720 0
DWIDTH 20 0
BBX 20 19 0 0
BITMAP
7000F0
F8F9F0
F8F9F0
F8F9F0
78F9F0
78F9F0
78F9F0
78F9F0
78F9F0
78F9F0
7CF9F0
7CF9F0
7CF9F0
7FFFF0
7FFFF0
3FFFF0
3FFFF0
3FFFF0
3FFFE0
ENDCHAR
STARTCHAR 0449
ENCODING 1097
SWIDTH 720 0
DWIDTH 20 0
BBX 20 23 0 -4
BITMAP
7801C0
7C71F0
FC71E0
FC71E0
7C71E0
7C71E0
7C71F0
7C71E0
7C79E0
7C79E0
7C79E0
7C79E0
7E79E0
7FFFE0
7FFFE0
7FFFE0
3FFFE0
3FFFE0
3FFFE0
0001E0
0001E0
0003E0
0001E0
ENDCHAR
STARTCHAR 044A
ENCODING 1098
SWIDTH 612 0
DWIDTH 17 0
BBX 16 19 1 0
BITMAP
FE00
FE00
FE00
FE00
FF00
0F00
0FF0
0FFC
0FFE
0FFE
0F9F
0F0F
0F0F
0F8F
0F8F
0FFF
0FFE
0FFC
07C0
ENDCHAR
STARTCHAR 044B
ENCODING 1099
SWIDTH 648 0
DWIDTH 18 0
BBX 18 18 0 0
BITMAP
F801C0
7803C0
F803C0
7803C0
7803C0
7803C0
7F83C0
7FE3C0
7FF3C0
7FF3C0
7C7BC0
7C7BC0
7C7BC0
7C7BC0
7CFBC0
7FFBC0
7FF3C0
7FE3C0
ENDCHAR
STARTCHAR 044C
ENCODING 1100
SWIDTH 468 0
DWIDTH 13 0
BBX 13 19 0 0
BITMAP
F800
F800
F800
7800
7800
7800
7F80
7FE0
7FF0
7FF0
7CF8
7C78
7C78
7C78
7C78
7DF8
7FF8
7FF0
7FE0
ENDCHAR
STARTCHAR 044D
ENCODING 1101
SWIDTH 468 0
DWIDTH 13 0
BBX 14 19 0 0
BITMAP
0F80
3FC0
7FE0
7FF0
7FF8
7FF8
7DF8
40F8
1FFC
1FFC
1FFC
1FFC
00F8
7FF8
7FF8
FFF0
7FE0
3FC0
0E00
ENDCHAR
STARTCHAR 044E
ENCODING 1102
SWIDTH 648 0
DWIDTH 18 0
BBX 18 20 0 0
BITMAP
001800
1C3E00
3E7F00
3E7F80
3E7F80
3E7F80
3EFFC0
3EFFC0
3FF3C0
7FF3C0
7FF3C0
7FF3C0
7FF3C0
7EF3C0
7E7FC0
7E7FC0
7E3FC0
FE3F80
7F1F80
000600
ENDCHAR
STARTCHAR 044F
ENCODING 1103
SWIDTH 504 0
DWIDTH 14 0
BBX 13 20 1 -1
BITMAP
0FF0
3FF0
7FF0
F3F0
E3F8
E3F8
E3F8
F3F8
FFF8
7FF8
1FF8
1FF8
3FF8
3DF8
79F8
79F8
79F8
F9F8
F1F0
7000
ENDCHAR
STARTCHAR 0450
ENCODING 1104
SWIDTH 468 0
DWIDTH 13 0
BBX 13 24 0 0
BITMAP
F000
7800
3C00
1C00
0000
7FE0
FFC0
7FC0
7FC0
7FC0
3F00
3C00
3E40
3FC0
3FC0
3F00
1E00
1FF0
1FF8
1FF8
1FF8
1FF8
1FE0
0E00
ENDCHAR
STARTCHAR 0451
ENCODING 1105
SWIDTH 468 0
DWIDTH 13 0
BBX 13 23 0 0
BITMAP
0300
7700
7300
2000
7FE0
FFC0
7FC0
7FC0
7FC0
3F00
3C00
3E40
3FC0
3FC0
3F00
1E00
1FF0
1FF8
1FF8
1FF8
1FF8
1FE0
0E00
ENDCHAR
STARTCHAR 0452
ENCODING 1106
SWIDTH 648 0
DWIDTH 18 0
BBX 18 22 0 -3
BITMAP
7FFE00
FFFE00
FFFE00
FFFE00
03C000
03E000
03FE00
03FF00
03FF80
03FFC0
03E7C0
03C3C0
03C3C0
03C3C0
03C3C0
03C3C0
03C3C0
03C3C0
03C3C0
000FC0
000FC0
000F80
ENDCHAR
STARTCHAR 0453
ENCODING 1107
SWIDTH 504 0
DWIDTH 14 0
BBX 14 24 0 0
BITMAP
01E0
03C0
0380
0700
0060
3FF8
FFF8
FFF8
FFFC
FC00
FC00
FC00
7800
7800
7800
F800
7800
F800
F800
7800
7800
7C00
7C00
7800
ENDCHAR
STARTCHAR 0454
ENCODING 1108
SWIDTH 468 0
DWIDTH 13 0
BBX 13 19 0 0
BITMAP
07C0
1FF0
1FF8
3FF8
7FF8
7FF8
7CF8
7808
FFE0
FFE0
FFE0
FFE0
7C00
7FF8
7FF8
3FF8
1FF8
0FF0
01C0
ENDCHAR
STARTCHAR 0455
ENCODING 1109
SWIDTH 504 0
DWIDTH 14 0
BBX 14 19 0 0
BITMAP
0FFC
1FF8
1FF8
3FF0
3FF0
7FE0
7FE0
7C20
3F00
3FC0
1FF0
03F0
00F8
60F8
7FF8
FFF8
FFF0
7FE0
1FC0
ENDCHAR
STARTCHAR 0456
ENCODING 1110
SWIDTH 324 0
DWIDTH 9 0
BBX 9 19 0 0
BITMAP
1E00
3F80
1F00
3F00
3F00
3F00
3F00
3F00
3F00
3F00
3F00
3F00
3F00
3F00
3F00
3F00
7E00
7E00
F000
ENDCHAR
STARTCHAR 0457
ENCODING 1111
SWIDTH 324 0
DWIDTH 9 0
BBX 10 23 0 0
BITMAP
0080
39C0
39C0
0000
1E00
3F80
1F00
3F00
3F00
3F00
3F00
3F00
3F00
3F00
3F00
3F00
3F00
3F00
3F00
3F00
7E00
7E00
F000
ENDCHAR
STARTCHAR 0458
ENCODING 1112
SWIDTH 432 0
DWIDTH 12 0
BBX 12 19 0 0
BITMAP
03F0
03F0
03F0
07F0
07F0
07F0
07F0
07F0
07F0
07F0
03F0
03F0
03F0
FBF0
7BF0
7FE0
7FE0
3FC0
0F80
ENDCHAR
STARTCHAR 0459
ENCODING 1113
SWIDTH 720 0
DWIDTH 20 0
BBX 20 19 0 0
BITMAP
01F000
07FC00
07FC00
07FC00
0FFC00
0FF800
0FFC00
1FFF80
1F7FC0
1F7FE0
3E79E0
3E78E0
3E78F0
7E78F0
7C78F0
7C79F0
7C7FE0
FC7FE0
707FC0
ENDCHAR
STARTCHAR 045A
ENCODING 1114
SWIDTH 720 0
DWIDTH 20 0
BBX 19 19 1 0
BITMAP
1CE000
7CF800
7CF800
7CF800
7CF800
7CF000
7CF800
7FFF00
7FFF80
7FFFC0
FFF3C0
FFF1C0
FFF1E0
FCF1E0
FCF1E0
F8F3E0
FCFFC0
FCFFC0
18FF80
ENDCHAR
STARTCHAR 045B
ENCODING 1115
SWIDTH 648 0
DWIDTH 18 0
BBX 18 19 0 0
BITMAP
7FFE00
FFFE00
FFFE00
FFFE00
03C000
03E000
03FE00
03FF00
03FF80
03FFC0
03E7C0
03C7C0
03C3C0
03C3C0
03C3C0
03C3C0
03C3C0
03C3C0
03C3C0
ENDCHAR
STARTCHAR 045C
ENCODING 1116
SWIDTH 540 0
DWIDTH 15 0
BBX 15 24 0 0
BITMAP
003C
0078
00F0
00E0
0000
7F18
7F3C
7F7E
7F7C
7FF8
7FF0
7FF0
7FE0
7FE0
7FC0
FFC0
FFE0
FFF0
FFF8
FF78
FF7C
7F3E
7F3E
7E10
ENDCHAR
STARTCHAR 045D
ENCODING 1117
SWIDTH 540 0
DWIDTH 15 0
BBX 14 24 1 0
BITMAP
7800
3C00
1C00
0E00
0000
2060
F9F0
F9F8
F9F8
F9F8
F9F8
F9F8
FBF8
FBF8
FFF8
FFF8
FFF8
7F7C
7E7C
7E7C
7C7C
7C7C
7C7C
101C
ENDCHAR
STARTCHAR 045E
ENCODING 1118
SWIDTH 504 0
DWIDTH 14 0
BBX 13 24 1 0
BITMAP
31C0
3BC0
3F80
1F00
0000
F9F8
F9F0
F9F0
F9F0
7DF0
7DE0
3DE0
3FE0
1FE0
1FE0
0FE0
0FC0
0FC0
FFC0
FFC0
FFC0
FF80
FF00
F000
ENDCHAR
STARTCHAR 045F
ENCODING 1119
SWIDTH 504 0
DWIDTH 14 0
BBX 14 21 0 -4
BITMAP
787C
787C
787C
787C
787C
787C
787C
787C
787C
F87C
F87C
F87C
F87C
FFFC
FFFC
FFFC
FFFC
1FC0
0780
0780
0780
ENDCHAR
STARTCHAR 0462
ENCODING 1122
SWIDTH 612 0
DWIDTH 17 0
BBX 17 19 0 0
BITMAP
0F8000
0F8000
7FFC00
7FFC00
FFFC00
0F8000
07F000
07FE00
07FE00
07FF00
078F00
078780
07C780
07C780
07CF80
07DF80
07FF80
07FF00
07FE00
ENDCHAR
STARTCHAR 0463
ENCODING 1123
SWIDTH 612 0
DWIDTH 17 0
BBX 17 19 0 0
BITMAP
0F8000
0F8000
7FFC00
7FFC00
FFFC00
0F8000
07F000
07FE00
07FE00
07FF00
078F00
078780
07C780
07C780
07CF80
07DF80
07FF80
07FF00
07FE00
ENDCHAR
STARTCHAR 0474
ENCODING 1140
SWIDTH 576 0
DWIDTH 16 0
BBX 16 19 0 0
BITMAP
0006
F83F
787F
7C7E
7C7E
7CFE
3CF0
3CF0
3EF0
1FF0
1FE0
1FE0
1FE0
0FC0
0FC0
0FC0
0780
0780
0300
ENDCHAR
STARTCHAR 0475
ENCODING 1141
SWIDTH 576 0
DWIDTH 16 0
BBX 16 19 0 0
BITMAP
0006
F83F
787F
7C7E
7C7E
7CFE
3CF0
3CF0
3EF0
1FF0
1FE0
1FE0
1FE0
0FC0
0FC0
0FC0
0780
0780
0300
ENDCHAR
STARTCHAR 0476
ENCODING 1142
SWIDTH 576 0
DWIDTH 16 0
BBX 16 24 0 0
BITMAP
7780
7BC0
3DE0
1CE0
0000
0006
F83F
787F
7C7E
7C7E
7CFE
3CF0
3CF0
3EF0
1FF0
1FE0
1FE0
1FE0
0FC0
0FC0
0FC0
0780
0780
0300
ENDCHAR
STARTCHAR 0477
ENCODING 1143
SWIDTH 576 0
DWIDTH 16 0
BBX 16 24 0 0
BITMAP
7780
7BC0
3DE0
1CE0
0000
0006
F83F
787F
7C7E
7C7E
7CFE
3CF0
3CF0
3EF0
1FF0
1FE0
1FE0
1FE0
0FC0
0FC0
0FC0
0780
0780
0300
ENDCHAR
STARTCHAR 0480
ENCODING 1152
SWIDTH 504 0
DWIDTH 14 0
BBX 14 23 0 -4
BITMAP
07FC
1FF8
3FF8
3FF8
7FF8
7E00
FC00
F800
F800
F800
F800
F800
F800
7800
7FF8
7FFC
3FFC
1FFC
07FC
007C
007C
007C
007C
ENDCHAR
STARTCHAR 0481
ENCODING 1153
SWIDTH 504 0
DWIDTH 14 0
BBX 14 23 0 -4
BITMAP
07FC
1FF8
3FF8
3FF8
7FF8
7E00
FC00
F800
F800
F800
F800
F800
F800
7800
7FF8
7FFC
3FFC
1FFC
07FC
007C
007C
007C
007C
ENDCHAR
STARTCHAR 048C
ENCODING 1164
SWIDTH 540 0
DWIDTH 15 0
BBX 15 19 0 0
BITMAP
3E00
3E00
7F80
7F80
FF80
3E00
3FC0
3FF0
3FF8
3FFC
1E3C
1E1C
1E1E
1E1E
1E3E
1F7E
1FFC
1FF8
1FF8
ENDCHAR
STARTCHAR 048D
ENCODING 1165
SWIDTH 540 0
DWIDTH 15 0
BBX 15 19 0 0
BITMAP
3E00
3E00
7F80
7F80
FF80
3E00
3FC0
3FF0
3FF8
3FFC
1E3C
1E1C
1E1E
1E1E
1E3E
1F7E
1FFC
1FF8
1FF8
ENDCHAR
STARTCHAR 0490
ENCODING 1168
SWIDTH 504 0
DWIDTH 14 0
BBX 14 24 0 0
BITMAP
0078
0078
007C
007C
007C
3FFC
FFFC
FFFC
FFFC
FC00
FC00
FC00
7800
7800
7800
F800
7800
F800
F800
7800
7800
7C00
7C00
7800
ENDCHAR
STARTCHAR 0491
ENCODING 1169
SWIDTH 504 0
DWIDTH 14 0
BBX 14 24 0 0
BITMAP
0078
0078
007C
007C
007C
3FFC
FFFC
FFFC
FFFC
FC00
FC00
FC00
7800
7800
7800
F800
7800
F800
F800
7800
7800
7C00
7C00
7800
ENDCHAR
STARTCHAR 0492
ENCODING 1170
SWIDTH 540 0
DWIDTH 15 0
BBX 15 20 0 0
BITMAP
0020
1FFC
3FFE
3FFE
3FFE
3E00
3E00
3E00
3E00
3E40
FFE0
FFE0
FFE0
3E00
3E00
3E00
3E00
3E00
3E00
3C00
ENDCHAR
STARTCHAR 0493
ENCODING 1171
SWIDTH 540 0
DWIDTH 15 0
BBX 15 20 0 0
BITMAP
0020
1FFC
3FFE
3FFE
3FFE
3E00
3E00
3E00
3E00
3E40
FFE0
FFE0
FFE0
3E00
3E00
3E00
3E00
3E00
3E00
3C00
ENDCHAR
STARTCHAR 0496
ENCODING 1174
SWIDTH 684 0
DWIDTH 19 0
BBX 19 22 0 -4
BITMAP
004180
F9E7C0
7DE780
7DEF80
7DEF80
3FEF80
3FFF00
1FFF00
1FFE00
1FFE00
1FFF00
1FFF80
3FFF80
3EF7C0
7EF7E0
7EF7E0
7CF3E0
7CF1E0
1861E0
0001E0
0001E0
0001E0
ENDCHAR
STARTCHAR 0497
ENCODING 1175
SWIDTH 684 0
DWIDTH 19 0
BBX 19 22 0 -4
BITMAP
004180
F9E7C0
7DE780
7DEF80
7DEF80
3FEF80
3FFF00
1FFF00
1FFE00
1FFE00
1FFF00
1FFF80
3FFF80
3EF7C0
7EF7E0
7EF7E0
7CF3E0
7CF1E0
1861E0
0001E0
0001E0
0001E0
ENDCHAR
STARTCHAR 0498
ENCODING 1176
SWIDTH 468 0
DWIDTH 13 0
BBX 13 24 0 -5
BITMAP
7FC0
7FE0
FFF0
FFF0
E1F0
00F0
01F0
03F0
1FE0
1FE0
1FF0
00F8
00F8
00F8
3FF8
3FF8
3FF0
3FE0
1FC0
03C0
01E0
0CF0
0FE0
0380
ENDCHAR
STARTCHAR 0499
ENCODING 1177
SWIDTH 468 0
DWIDTH 13 0
BBX 13 24 0 -5
BITMAP
7FC0
7FE0
FFF0
FFF0
E1F0
00F0
01F0
03F0
1FE0
1FE0
1FF0
00F8
00F8
00F8
3FF8
3FF8
3FF0
3FE0
1FC0
03C0
01E0
0CF0
0FE0
0380
ENDCHAR
STARTCHAR 049A
ENCODING 1178
SWIDTH 540 0
DWIDTH 15 0
BBX 15 22 0 -4
BITMAP
7F30
7F38
7F7C
7FF8
7FF8
7FF0
7FE0
7FE0
7FC0
7FC0
FFC0
FFE0
FFE0
FFF0
FEF8
FE7E
7E7E
7F3E
7E3E
001E
001E
001C
ENDCHAR
STARTCHAR 049B
ENCODING 1179
SWIDTH 540 0
DWIDTH 15 0
BBX 15 22 0 -4
BITMAP
7F30
7F38
7F7C
7FF8
7FF8
7FF0
7FE0
7FE0
7FC0
7FC0
FFC0
FFE0
FFE0
FFF0
FEF8
FE7E
7E7E
7F3E
7E3E
001E
001E
001C
ENDCHAR
STARTCHAR 04A0
ENCODING 1184
SWIDTH 612 0
DWIDTH 17 0
BBX 17 19 0 0
BITMAP
FFC600
FFCF00
FFCF80
FFDF00
FFDE00
1FFE00
1FFC00
1FF800
1FF800
1FF000
1FF000
1FF800
1FFC00
1FFE00
1FDF00
1FDF00
1FCF80
1FC780
1F8400
ENDCHAR
STARTCHAR 04A1
ENCODING 1185
SWIDTH 612 0
DWIDTH 17 0
BBX 17 19 0 0
BITMAP
FFC600
FFCF00
FFCF80
FFDF00
FFDE00
1FFE00
1FFC00
1FF800
1FF800
1FF000
1FF000
1FF800
1FFC00
1FFE00
1FDF00
1FDF00
1FCF80
1FC780
1F8400
ENDCHAR
STARTCHAR 04A2
ENCODING 1186
SWIDTH 540 0
DWIDTH 15 0
BBX 14 22 1 -4
BITMAP
1E00
7E7C
7E7C
7E7C
7C78
7C78
7C78
7FF8
7FF8
7FF8
7FF8
FFF8
FFF8
FCF8
FCF8
FCFC
FCFC
FCFC
183C
003C
003C
003C
ENDCHAR
STARTCHAR 04A3
ENCODING 1187
SWIDTH 540 0
DWIDTH 15 0
BBX 14 22 1 -4
BITMAP
1E00
7E7C
7E7C
7E7C
7C78
7C78
7C78
7FF8
7FF8
7FF8
7FF8
FFF8
FFF8
FCF8
FCF8
FCFC
FCFC
FCFC
183C
003C
003C
003C
ENDCHAR
STARTCHAR 04A4
ENCODING 1188
SWIDTH 648 0
DWIDTH 18 0
BBX 17 19 1 0
BITMAP
1E0000
7E7F80
7E7F80
7E7F80
7E7F80
7E7F00
7E7C00
7FFC00
7FFC00
7FFC00
7FFC00
FFFC00
FFFC00
FCFC00
FCFC00
FCFC00
FCF800
FCF800
188000
ENDCHAR
STARTCHAR 04A5
ENCODING 1189
SWIDTH 648 0
DWIDTH 18 0
BBX 17 19 1 0
BITMAP
1E0000
7E7F80
7E7F80
7E7F80
7E7F80
7E7F00
7E7C00
7FFC00
7FFC00
7FFC00
7FFC00
FFFC00
FFFC00
FCFC00
FCFC00
FCFC00
FCF800
FCF800
188000
ENDCHAR
STARTCHAR 04AA
ENCODING 1194
SWIDTH 468 0
DWIDTH 13 0
BBX 13 24 0 -5
BITMAP
03C0
0FF0
3FF8
3FF8
7FF8
7FC0
7E00
7C00
FC00
7C00
FE08
7FF8
7FF8
7FF8
7FF8
3FF8
3FF0
1FE0
0780
0700
03C0
19C0
1FC0
0F00
ENDCHAR
STARTCHAR 04AB
ENCODING 1195
SWIDTH 468 0
DWIDTH 13 0
BBX 13 24 0 -5
BITMAP
03C0
0FF0
3FF8
3FF8
7FF8
7FC0
7E00
7C00
FC00
7C00
FE08
7FF8
7FF8
7FF8
7FF8
3FF8
3FF0
1FE0
0780
0700
03C0
19C0
1FC0
0F00
ENDCHAR
STARTCHAR 04AC
ENCODING 1196
SWIDTH 576 0
DWIDTH 16 0
BBX 16 22 0 -4
BITMAP
3FFC
7FFE
7FFE
7FFE
7FFF
FFF8
63E0
03C0
03C0
03C0
03C0
03C0
03C0
03C0
03C0
03F0
03F0
03F0
03F0
00F0
00F0
00F0
ENDCHAR
STARTCHAR 04AD
ENCODING 1197
SWIDTH 576 0
DWIDTH 16 0
BBX 16 22 0 -4
BITMAP
3FFC
7FFE
7FFE
7FFE
7FFF
FFF8
63E0
03C0
03C0
03C0
03C0
03C0
03C0
03C0
03C0
03F0
03F0
03F0
03F0
00F0
00F0
00F0
ENDCHAR
STARTCHAR 04AE
ENCODING 1198
SWIDTH 612 0
DWIDTH 17 0
BBX 16 19 1 0
BITMAP
001F
F01E
F83E
F83C
FC7C
7C78
7EF8
3EF0
3FF0
1FE0
1FE0
0FC0
07C0
07C0
07C0
07C0
07C0
07C0
03C0
ENDCHAR
STARTCHAR 04AF
ENCODING 1199
SWIDTH 612 0
DWIDTH 17 0
BBX 16 19 1 0
BITMAP
001F
F01E
F83E
F83C
FC7C
7C78
7EF8
3EF0
3FF0
1FE0
1FE0
0FC0
07C0
07C0
07C0
07C0
07C0
07C0
03C0
ENDCHAR
STARTCHAR 04B0
ENCODING 1200
SWIDTH 612 0
DWIDTH 17 0
BBX 16 19 1 0
BITMAP
001F
F01E
F83E
F83C
FC7C
7C78
7EF8
3EF0
3FF0
1FE0
1FE0
0FC0
07C0
7FF8
7FFC
7FFC
3FC0
07C0
03C0
ENDCHAR
STARTCHAR 04B1
ENCODING 1201
SWIDTH 612 0
DWIDTH 17 0
BBX 16 19 1 0
BITMAP
001F
F01E
F83E
F83C
FC7C
7C78
7EF8
3EF0
3FF0
1FE0
1FE0
0FC0
07C0
7FF8
7FFC
7FFC
3FC0
07C0
03C0
ENDCHAR
STARTCHAR 04B2
ENCODING 1202
SWIDTH 576 0
DWIDTH 16 0
BBX 16 22 0 -4
BITMAP
001E
783E
FC3E
7C7C
7E7C
7EF8
3FF8
1FF8
0FF0
0FF0
07E0
0FF0
0FF0
1FF0
1EF8
3E7F
3E3F
3E3F
000E
000E
000E
001E
ENDCHAR
STARTCHAR 04B3
ENCODING 1203
SWIDTH 576 0
DWIDTH 16 0
BBX 16 22 0 -4
BITMAP
001E
783E
FC3E
7C7C
7E7C
7EF8
3FF8
1FF8
0FF0
0FF0
07E0
0FF0
0FF0
1FF0
1EF8
3E7F
3E3F
3E3F
000E
000E
000E
001E
ENDCHAR
STARTCHAR 04B6
ENCODING 1206
SWIDTH 504 0
DWIDTH 14 0
BBX 14 21 0 -4
BITMAP
F8F0
F8F0
78F0
78F0
78F0
78F0
78F8
7CF8
7FF8
7FF8
3FF8
1FF8
00F8
0078
007C
007C
007C
003C
003C
003C
003C
ENDCHAR
STARTCHAR 04B7
ENCODING 1207
SWIDTH 504 0
DWIDTH 14 0
BBX 14 21 0 -4
BITMAP
F8F0
F8F0
78F0
78F0
78F0
78F0
78F8
7CF8
7FF8
7FF8
3FF8
1FF8
00F8
0078
007C
007C
007C
003C
003C
003C
003C
ENDCHAR
STARTCHAR 04B8
ENCODING 1208
SWIDTH 504 0
DWIDTH 14 0
BBX 14 18 0 0
BITMAP
F8F8
F8F8
78F8
7878
7B78
7B78
7BF8
7FF8
7FF8
7FF8
3FF8
1FF8
0378
0378
007C
007C
007C
0030
ENDCHAR
STARTCHAR 04B9
ENCODING 1209
SWIDTH 504 0
DWIDTH 14 0
BBX 14 18 0 0
BITMAP
F8F8
F8F8
78F8
7878
7B78
7B78
7BF8
7FF8
7FF8
7FF8
3FF8
1FF8
0378
0378
007C
007C
007C
0030
ENDCHAR
STARTCHAR 04BA
ENCODING 1210
SWIDTH 504 0
DWIDTH 14 0
BBX 13 18 1 0
BITMAP
F000
F800
F800
F800
F800
FFC0
FFE0
FFF0
FFF0
F8F8
78F8
78F8
78F8
78F8
7878
7878
7878
7800
ENDCHAR
STARTCHAR 04BB
ENCODING 1211
SWIDTH 504 0
DWIDTH 14 0
BBX 13 18 1 0
BITMAP
F000
F800
F800
F800
F800
FFC0
FFE0
FFF0
FFF0
F8F8
78F8
78F8
78F8
78F8
7878
7878
7878
7800
ENDCHAR
STARTCHAR 04BC
ENCODING 1212
SWIDTH 540 0
DWIDTH 15 0
BBX 15 19 0 0
BITMAP
07E0
0FF8
1FFC
1FFE
1FFE
1FFE
1E3E
1E3E
FFFE
FFFE
FFFE
1E00
1E00
0F00
0FFE
07FE
07FE
03FC
01F0
ENDCHAR
STARTCHAR 04BD
ENCODING 1213
SWIDTH 540 0
DWIDTH 15 0
BBX 15 19 0 0
BITMAP
07E0
0FF8
1FFC
1FFE
1FFE
1FFE
1E3E
1E3E
FFFE
FFFE
FFFE
1E00
1E00
0F00
0FFE
07FE
07FE
03FC
01F0
ENDCHAR
STARTCHAR 04BE
ENCODING 1214
SWIDTH 540 0
DWIDTH 15 0
BBX 15 23 0 -4
BITMAP
07E0
0FF8
1FFC
1FFE
1FFE
1FFE
1E3E
1E3E
FFFE
FFFE
FFFE
1E00
1E00
0F00
0FFE
07FE
07FE
03FC
01F0
01E0
01E0
01E0
0020
ENDCHAR
STARTCHAR 04BF
ENCODING 1215
SWIDTH 540 0
DWIDTH 15 0
BBX 15 23 0 -4
BITMAP
07E0
0FF8
1FFC
1FFE
1FFE
1FFE
1E3E
1E3E
FFFE
FFFE
FFFE
1E00
1E00
0F00
0FFE
07FE
07FE
03FC
01F0
01E0
01E0
01E0
0020
ENDCHAR
STARTCHAR 04C0
ENCODING 1216
SWIDTH 180 0
DWIDTH 5 0
BBX 5 19 0 0
BITMAP
78
78
78
F8
78
78
78
78
78
78
78
78
78
78
78
78
78
78
78
ENDCHAR
STARTCHAR 04C1
ENCODING 1217
SWIDTH 684 0
DWIDTH 19 0
BBX 19 24 0 0
BITMAP
0E3800
077000
07F000
03E000
000000
0040C0
FDE3C0
7DE7C0
7DE7C0
7FF7C0
3FFF80
3FFF80
1FFF80
1FFF00
1FFF00
1FFF00
1FFF80
3FFFC0
3EF7E0
7EF7E0
7EFBE0
7EFBE0
7CF980
183000
ENDCHAR
STARTCHAR 04C2
ENCODING 1218
SWIDTH 684 0
DWIDTH 19 0
BBX 19 24 0 0
BITMAP
0E3800
077000
07F000
03E000
000000
0040C0
FDE3C0
7DE7C0
7DE7C0
7FF7C0
3FFF80
3FFF80
1FFF80
1FFF00
1FFF00
1FFF00
1FFF80
3FFFC0
3EF7E0
7EF7E0
7EFBE0
7EFBE0
7CF980
183000
ENDCHAR
STARTCHAR 04CB
ENCODING 1227
SWIDTH 504 0
DWIDTH 14 0
BBX 14 22 0 -4
BITMAP
F8F8
F8F8
78F8
7878
7878
7878
78F8
7CF8
7FF8
7FF8
3FF8
1FF8
0078
0078
01FC
01FC
00FC
00F0
00E0
00F0
00F0
0010
ENDCHAR
STARTCHAR 04CC
ENCODING 1228
SWIDTH 504 0
DWIDTH 14 0
BBX 14 22 0 -4
BITMAP
F8F8
F8F8
78F8
7878
7878
7878
78F8
7CF8
7FF8
7FF8
3FF8
1FF8
0078
0078
01FC
01FC
00FC
00F0
00E0
00F0
00F0
0010
ENDCHAR
STARTCHAR 04CF
ENCODING 1231
SWIDTH 180 0
DWIDTH 5 0
BBX 5 19 0 0
BITMAP
78
78
78
F8
78
78
78
78
78
78
78
78
78
78
78
78
78
78
78
ENDCHAR
STARTCHAR 04D0
ENCODING 1232
SWIDTH 612 0
DWIDTH 17 0
BBX 16 25 1 -1
BITMAP
0C30
0E70
07F0
03E0
0000
00C0
01C0
03C0
03E0
03E0
07E0
07E0
07F0
0FF0
0FF0
1DF8
1CF8
38F8
3FFC
7FFC
7CFE
78FE
F87E
F87F
C000
ENDCHAR
STARTCHAR 04D1
ENCODING 1233
SWIDTH 612 0
DWIDTH 17 0
BBX 16 25 1 -1
BITMAP
0C30
0E70
07F0
03E0
0000
00C0
01C0
03C0
03E0
03E0
07E0
07E0
07F0
0FF0
0FF0
1DF8
1CF8
38F8
3FFC
7FFC
7CFE
78FE
F87E
F87F
C000
ENDCHAR
STARTCHAR 04D2
ENCODING 1234
SWIDTH 612 0
DWIDTH 17 0
BBX 16 24 1 -1
BITMAP
0020
0770
0770
0200
00C0
01C0
03C0
03E0
03E0
07E0
07E0
07F0
0FF0
0FF0
1DF8
1CF8
38F8
3FFC
7FFC
7CFE
78FE
F87E
F87F
C000
ENDCHAR
STARTCHAR 04D3
ENCODING 1235
SWIDTH 612 0
DWIDTH 17 0
BBX 16 24 1 -1
BITMAP
0020
0770
0770
0200
00C0
01C0
03C0
03E0
03E0
07E0
07E0
07F0
0FF0
0FF0
1DF8
1CF8
38F8
3FFC
7FFC
7CFE
78FE
F87E
F87F
C000
ENDCHAR
STARTCHAR 04D4
ENCODING 1236
SWIDTH 720 0
DWIDTH 20 0
BBX 19 19 1 -1
BITMAP
01FF00
01FF00
03FF00
03FF00
03FF00
07FE00
07F000
0FF000
0FFE00
0FFF00
1DFF00
1CF800
38FFC0
3FFFC0
7FFFE0
7CFFE0
F8FFE0
F87F80
F87800
ENDCHAR
STARTCHAR 04D5
ENCODING 1237
SWIDTH 720 0
DWIDTH 20 0
BBX 19 19 1 -1
BITMAP
01FF00
01FF00
03FF00
03FF00
03FF00
07FE00
07F000
0FF000
0FFE00
0FFF00
1DFF00
1CF800
38FFC0
3FFFC0
7FFFE0
7CFFE0
F8FFE0
F87F80
F87800
ENDCHAR
STARTCHAR 04D6
ENCODING 1238
SWIDTH 468 0
DWIDTH 13 0
BBX 13 25 0 0
BITMAP
0080
E380
7F00
7F00
3E00
0000
7FE0
FFC0
7FC0
7FC0
7FC0
3F00
3C00
3E40
3FC0
3FC0
3F00
1E00
1FF0
1FF8
1FF8
1FF8
1FF8
1FE0
0E00
ENDCHAR
STARTCHAR 04D7
ENCODING 1239
SWIDTH 468 0
DWIDTH 13 0
BBX 13 25 0 0
BITMAP
0080
E380
7F00
7F00
3E00
0000
7FE0
FFC0
7FC0
7FC0
7FC0
3F00
3C00
3E40
3FC0
3FC0
3F00
1E00
1FF0
1FF8
1FF8
1FF8
1FF8
1FE0
0E00
ENDCHAR
STARTCHAR 04D8
ENCODING 1240
SWIDTH 468 0
DWIDTH 13 0
BBX 12 19 1 0
BITMAP
3F00
FF80
FFC0
FFC0
63E0
01E0
00E0
FFF0
FFF0
FFF0
FFF0
F9F0
F9F0
FFF0
FFF0
FFF0
7FE0
3FC0
0780
ENDCHAR
STARTCHAR 04D9
ENCODING 1241
SWIDTH 468 0
DWIDTH 13 0
BBX 12 19 1 0
BITMAP
3F00
FF80
FFC0
FFC0
63E0
01E0
00E0
FFF0
FFF0
FFF0
FFF0
F9F0
F9F0
FFF0
FFF0
FFF0
7FE0
3FC0
0780
ENDCHAR
STARTCHAR 04DA
ENCODING 1242
SWIDTH 468 0
DWIDTH 13 0
BBX 12 23 1 0
BITMAP
0200
7700
7700
2000
3F00
FF80
FFC0
FFC0
63E0
01E0
00E0
FFF0
FFF0
FFF0
FFF0
F9F0
F9F0
FFF0
FFF0
FFF0
7FE0
3FC0
0780
ENDCHAR
STARTCHAR 04DB
ENCODING 1243
SWIDTH 468 0
DWIDTH 13 0
BBX 12 23 1 0
BITMAP
0200
7700
7700
2000
3F00
FF80
FFC0
FFC0
63E0
01E0
00E0
FFF0
FFF0
FFF0
FFF0
F9F0
F9F0
FFF0
FFF0
FFF0
7FE0
3FC0
0780
ENDCHAR
STARTCHAR 04DC
ENCODING 1244
SWIDTH 684 0
DWIDTH 19 0
BBX 19 23 0 0
BITMAP
020000
073000
073800
000000
0040C0
FDE3C0
7DE7C0
7DE7C0
7FF7C0
3FFF80
3FFF80
1FFF80
1FFF00
1FFF00
1FFF00
1FFF80
3FFFC0
3EF7E0
7EF7E0
7EFBE0
7EFBE0
7CF980
183000
ENDCHAR
STARTCHAR 04DD
ENCODING 1245
SWIDTH 684 0
DWIDTH 19 0
BBX 19 23 0 0
BITMAP
020000
073000
073800
000000
0040C0
FDE3C0
7DE7C0
7DE7C0
7FF7C0
3FFF80
3FFF80
1FFF80
1FFF00
1FFF00
1FFF00
1FFF80
3FFFC0
3EF7E0
7EF7E0
7EFBE0
7EFBE0
7CF980
183000
ENDCHAR
STARTCHAR 04DE
ENCODING 1246
SWIDTH 468 0
DWIDTH 13 0
BBX 13 23 0 0
BITMAP
0100
3980
3980
1000
7FC0
7FE0
FFF0
FFF0
E1F0
00F0
01F0
03F0
1FE0
1FE0
1FF0
00F8
00F8
00F8
3FF8
3FF8
3FF0
3FE0
1FC0
ENDCHAR
STARTCHAR 04DF
ENCODING 1247
SWIDTH 468 0
DWIDTH 13 0
BBX 13 23 0 0
BITMAP
0100
3980
3980
1000
7FC0
7FE0
FFF0
FFF0
E1F0
00F0
01F0
03F0
1FE0
1FE0
1FF0
00F8
00F8
00F8
3FF8
3FF8
3FF0
3FE0
1FC0
ENDCHAR
STARTCHAR 04E0
ENCODING 1248
SWIDTH 468 0
DWIDTH 13 0
BBX 13 19 0 0
BITMAP
3FE0
7FF0
7FF0
00E0
01C0
03C0
0FC0
1FE0
3FF0
3FF8
0078
0078
0038
C038
FCF8
FFF8
7FF0
3FF0
0FC0
ENDCHAR
STARTCHAR 04E1
ENCODING 1249
SWIDTH 468 0
DWIDTH 13 0
BBX 13 19 0 0
BITMAP
3FE0
7FF0
7FF0
00E0
01C0
03C0
0FC0
1FE0
3FF0
3FF8
0078
0078
0038
C038
FCF8
FFF8
7FF0
3FF0
0FC0
ENDCHAR
STARTCHAR 04E2
ENCODING 1250
SWIDTH 540 0
DWIDTH 15 0
BBX 14 22 1 0
BITMAP
3FC0
3FC0
0000
2060
F9F0
F9F8
F9F8
F9F8
F9F8
F9F8
FBF8
FBF8
FFF8
FFF8
FFF8
7F7C
7E7C
7E7C
7C7C
7C7C
7C7C
101C
ENDCHAR
STARTCHAR 04E3
ENCODING 1251
SWIDTH 540 0
DWIDTH 15 0
BBX 14 22 1 0
BITMAP
3FC0
3FC0
0000
2060
F9F0
F9F8
F9F8
F9F8
F9F8
F9F8
FBF8
FBF8
FFF8
FFF8
FFF8
7F7C
7E7C
7E7C
7C7C
7C7C
7C7C
101C
ENDCHAR
STARTCHAR 04E4
ENCODING 1252
SWIDTH 540 0
DWIDTH 15 0
BBX 14 23 1 0
BITMAP
1000
3980
39C0
0000
2060
F9F0
F9F8
F9F8
F9F8
F9F8
F9F8
FBF8
FBF8
FFF8
FFF8
FFF8
7F7C
7E7C
7E7C
7C7C
7C7C
7C7C
101C
ENDCHAR
STARTCHAR 04E5
ENCODING 1253
SWIDTH 540 0
DWIDTH 15 0
BBX 14 23 1 0
BITMAP
1000
3980
39C0
0000
2060
F9F0
F9F8
F9F8
F9F8
F9F8
F9F8
FBF8
FBF8
FFF8
FFF8
FFF8
7F7C
7E7C
7E7C
7C7C
7C7C
7C7C
101C
ENDCHAR
STARTCHAR 04E6
ENCODING 1254
SWIDTH 504 0
DWIDTH 14 0
BBX 15 23 0 0
BITMAP
0100
3380
3380
1000
0F00
1FC0
1FE0
3FF0
3FF8
7FF8
7FFC
7C7C
7C7C
FC7C
7C7E
7EFC
7FFC
7FFC
7FFC
3FFC
3FF8
1FF0
07E0
ENDCHAR
STARTCHAR 04E7
ENCODING 1255
SWIDTH 504 0
DWIDTH 14 0
BBX 15 23 0 0
BITMAP
0100
3380
3380
1000
0F00
1FC0
1FE0
3FF0
3FF8
7FF8
7FFC
7C7C
7C7C
FC7C
7C7E
7EFC
7FFC
7FFC
7FFC
3FFC
3FF8
1FF0
07E0
ENDCHAR
STARTCHAR 04E8
ENCODING 1256
SWIDTH 504 0
DWIDTH 14 0
BBX 15 19 0 0
BITMAP
0FC0
3FF0
3FF8
7FF8
7FFC
7FFC
7FFC
FC7C
FFFC
7FFE
7FFC
7C7C
7EFC
7FFC
3FFC
3FF8
1FF8
0FF0
03E0
ENDCHAR
STARTCHAR 04E9
ENCODING 1257
SWIDTH 504 0
DWIDTH 14 0
BBX 15 19 0 0
BITMAP
0FC0
3FF0
3FF8
7FF8
7FFC
7FFC
7FFC
FC7C
FFFC
7FFE
7FFC
7C7C
7EFC
7FFC
3FFC
3FF8
1FF8
0FF0
03E0
ENDCHAR
STARTCHAR 04EA
ENCODING 1258
SWIDTH 504 0
DWIDTH 14 0
BBX 15 23 0 0
BITMAP
0080
1DC0
1CC0
0800
0FC0
3FF0
3FF8
7FF8
7FFC
7FFC
7FFC
FC7C
FFFC
7FFE
7FFC
7C7C
7EFC
7FFC
3FFC
3FF8
1FF8
0FF0
03E0
ENDCHAR
STARTCHAR 04EB
ENCODING 1259
SWIDTH 504 0
DWIDTH 14 0
BBX 15 23 0 0
BITMAP
0080
1DC0
1CC0
0800
0FC0
3FF0
3FF8
7FF8
7FFC
7FFC
7FFC
FC7C
FFFC
7FFE
7FFC
7C7C
7EFC
7FFC
3FFC
3FF8
1FF8
0FF0
03E0
ENDCHAR
STARTCHAR 04EC
ENCODING 1260
SWIDTH 468 0
DWIDTH 13 0
BBX 14 23 0 0
BITMAP
0100
3380
3380
1000
0F80
3FC0
7FE0
7FF0
7FF8
7FF8
7DF8
40F8
1FFC
1FFC
1FFC
1FFC
00F8
7FF8
7FF8
FFF0
7FE0
3FC0
0E00
ENDCHAR
STARTCHAR 04ED
ENCODING 1261
SWIDTH 468 0
DWIDTH 13 0
BBX 14 23 0 0
BITMAP
0100
3380
3380
1000
0F80
3FC0
7FE0
7FF0
7FF8
7FF8
7DF8
40F8
1FFC
1FFC
1FFC
1FFC
00F8
7FF8
7FF8
FFF0
7FE0
3FC0
0E00
ENDCHAR
STARTCHAR 04EE
ENCODING 1262
SWIDTH 504 0
DWIDTH 14 0
BBX 13 22 1 0
BITMAP
3FC0
3FC0
0000
F9F8
F9F0
F9F0
F9F0
7DF0
7DE0
3DE0
3FE0
1FE0
1FE0
0FE0
0FC0
0FC0
FFC0
FFC0
FFC0
FF80
FF00
F000
ENDCHAR
STARTCHAR 04EF
ENCODING 1263
SWIDTH 504 0
DWIDTH 14 0
BBX 13 22 1 0
BITMAP
3FC0
3FC0
0000
F9F8
F9F0
F9F0
F9F0
7DF0
7DE0
3DE0
3FE0
1FE0
1FE0
0FE0
0FC0
0FC0
FFC0
FFC0
FFC0
FF80
FF00
F000
ENDCHAR
STARTCHAR 04F0
ENCODING 1264
SWIDTH 504 0
DWIDTH 14 0
BBX 13 23 1 0
BITMAP
0100
39C0
3980
1000
F9F8
F9F0
F9F0
F9F0
7DF0
7DE0
3DE0
3FE0
1FE0
1FE0
0FE0
0FC0
0FC0
FFC0
FFC0
FFC0
FF80
FF00
F000
ENDCHAR
STARTCHAR 04F1
ENCODING 1265
SWIDTH 504 0
DWIDTH 14 0
BBX 13 23 1 0
BITMAP
0100
39C0
3980
1000
F9F8
F9F0
F9F0
F9F0
7DF0
7DE0
3DE0
3FE0
1FE0
1FE0
0FE0
0FC0
0FC0
FFC0
FFC0
FFC0
FF80
FF00
F000
ENDCHAR
STARTCHAR 04F2
ENCODING 1266
SWIDTH 504 0
DWIDTH 14 0
BBX 13 24 1 0
BITMAP
0F78
0E70
1EE0
1CE0
0000
F9F8
F9F0
F9F0
F9F0
7DF0
7DE0
3DE0
3FE0
1FE0
1FE0
0FE0
0FC0
0FC0
FFC0
FFC0
FFC0
FF80
FF00
F000
ENDCHAR
STARTCHAR 04F3
ENCODING 1267
SWIDTH 504 0
DWIDTH 14 0
BBX 13 24 1 0
BITMAP
0F78
0E70
1EE0
1CE0
0000
F9F8
F9F0
F9F0
F9F0
7DF0
7DE0
3DE0
3FE0
1FE0
1FE0
0FE0
0FC0
0FC0
FFC0
FFC0
FFC0
FF80
FF00
F000
ENDCHAR
STARTCHAR 04F4
ENCODING 1268
SWIDTH 504 0
DWIDTH 14 0
BBX 14 23 0 0
BITMAP
0080
1DC0
1DC0
0800
0000
F8F8
F8F8
78F8
7878
7878
7878
78F8
7CF8
7FF8
7FF8
3FF8
1FF8
0078
0078
007C
007C
007C
0030
ENDCHAR
STARTCHAR 04F5
ENCODING 1269
SWIDTH 504 0
DWIDTH 14 0
BBX 14 23 0 0
BITMAP
0080
1DC0
1DC0
0800
0000
F8F8
F8F8
78F8
7878
7878
7878
78F8
7CF8
7FF8
7FF8
3FF8
1FF8
0078
0078
007C
007C
007C
0030
ENDCHAR
STARTCHAR 04F6
ENCODING 1270
SWIDTH 504 0
DWIDTH 14 0
BBX 14 23 0 -4
BITMAP
0060
3FF8
FFF8
FFF8
FFFC
FC00
FC00
FC00
7800
7800
7800
F800
7800
F800
F800
7800
7F00
7F00
7F00
7F00
0E00
0E00
0E00
ENDCHAR
STARTCHAR 04F7
ENCODING 1271
SWIDTH 504 0
DWIDTH 14 0
BBX 14 23 0 -4
BITMAP
0060
3FF8
FFF8
FFF8
FFFC
FC00
FC00
FC00
7800
7800
7800
F800
7800
F800
F800
7800
7F00
7F00
7F00
7F00
0E00
0E00
0E00
ENDCHAR
STARTCHAR 04F8
ENCODING 1272
SWIDTH 648 0
DWIDTH 18 0
BBX 18 22 0 0
BITMAP
001000
039C00
039800
010000
F801C0
7803C0
F803C0
7803C0
7803C0
7803C0
7F83C0
7FE3C0
7FF3C0
7FF3C0
7C7BC0
7C7BC0
7C7BC0
7C7BC0
7CFBC0
7FFBC0
7FF3C0
7FE3C0
ENDCHAR
STARTCHAR 04F9
ENCODING 1273
SWIDTH 648 0
DWIDTH 18 0
BBX 18 22 0 0
BITMAP
001000
039C00
039800
010000
F801C0
7803C0
F803C0
7803C0
7803C0
7803C0
7F83C0
7FE3C0
7FF3C0
7FF3C0
7C7BC0
7C7BC0
7C7BC0
7C7BC0
7CFBC0
7FFBC0
7FF3C0
7FE3C0
ENDCHAR
STARTCHAR 0500
ENCODING 1280
SWIDTH 468 0
DWIDTH 13 0
BBX 13 19 0 0
BITMAP
0078
00F8
00F8
00F8
00F8
00F8
07F8
1FF8
3FF8
3FF8
78F8
78F8
78F8
78F8
F8F8
7DF8
7FF8
3FF0
1FF0
ENDCHAR
STARTCHAR 0501
ENCODING 1281
SWIDTH 468 0
DWIDTH 13 0
BBX 13 19 0 0
BITMAP
0078
00F8
00F8
00F8
00F8
00F8
07F8
1FF8
3FF8
3FF8
78F8
78F8
78F8
78F8
F8F8
7DF8
7FF8
3FF0
1FF0
ENDCHAR
STARTCHAR 0510
ENCODING 1296
SWIDTH 468 0
DWIDTH 13 0
BBX 13 19 0 0
BITMAP
0FF0
1FF8
3FF8
3FF8
7E18
7C00
3C00
3E00
3FE0
3FC0
7FC0
7C00
7800
FC00
7FF0
7FF0
7FF0
3FE0
0FC0
ENDCHAR
STARTCHAR 0511
ENCODING 1297
SWIDTH 468 0
DWIDTH 13 0
BBX 13 19 0 0
BITMAP
0FF0
1FF8
3FF8
3FF8
7E18
7C00
3C00
3E00
3FE0
3FC0
7FC0
7C00
7800
FC00
7FF0
7FF0
7FF0
3FE0
0FC0
ENDCHAR
STARTCHAR 0524
ENCODING 1316
SWIDTH 540 0
DWIDTH 15 0
BBX 15 22 0 -4
BITMAP
7FFC
FFFC
FFFC
FFFC
7FFC
783C
787C
787C
787C
787C
7C7C
7C7C
7C7C
7C7C
7C7C
7C7E
7C3E
7C3E
7C1E
001E
001E
001C
ENDCHAR
STARTCHAR 0525
ENCODING 1317
SWIDTH 540 0
DWIDTH 15 0
BBX 15 22 0 -4
BITMAP
7FFC
FFFC
FFFC
FFFC
7FFC
783C
787C
787C
787C
787C
7C7C
7C7C
7C7C
7C7C
7C7C
7C7E
7C3E
7C3E
7C1E
001E
001E
001C
ENDCHAR
STARTCHAR 0526
ENCODING 1318
SWIDTH 504 0
DWIDTH 14 0
BBX 13 21 1 -4
BITMAP
F000
F000
F000
F000
F800
FFC0
FFE0
FFF0
FFF0
F9F0
F8F0
78F0
78F0
78F0
78F8
78F8
78F8
7878
0078
0078
0078
ENDCHAR
STARTCHAR 0527
ENCODING 1319
SWIDTH 504 0
DWIDTH 14 0
BBX 13 21 1 -4
BITMAP
F000
F000
F000
F000
F800
FFC0
FFE0
FFF0
FFF0
F9F0
F8F0
78F0
78F0
78F0
78F8
78F8
78F8
7878
0078
0078
0078
ENDCHAR
STARTCHAR 052E
ENCODING 1326
SWIDTH 576 0
DWIDTH 16 0
BBX 16 22 0 -4
BITMAP
0600
0E00
1F00
1F80
1F80
1FC0
1FC0
3FE0
3FF0
3FF0
3FF8
3CF8
7CFC
7CFC
7CFE
7CFF
7CFF
FC1F
600F
000F
000F
000F
ENDCHAR
STARTCHAR 052F
ENCODING 1327
SWIDTH 576 0
DWIDTH 16 0
BBX 16 22 0 -4
BITMAP
0600
0E00
1F00
1F80
1F80
1FC0
1FC0
3FE0
3FF0
3FF0
3FF8
3CF8
7CFC
7CFC
7CFE
7CFF
7CFF
FC1F
600F
000F
000F
000F
ENDCHAR
STARTCHAR 058F
ENCODING 1423
SWIDTH 540 0
DWIDTH 15 0
BBX 15 19 0 0
BITMAP
1F80
3FC0
7FE0
7FE0
79F0
79F0
F9F0
71F0
77FE
07FE
07FE
01F0
01F0
07FE
07FE
01F0
01F0
00F0
00F0
ENDCHAR
STARTCHAR 1E02
ENCODING 7682
SWIDTH 504 0
DWIDTH 14 0
BBX 14 22 0 0
BITMAP
1800
3800
0800
3F80
7FC0
FFE0
7FE0
7DF0
7CF0
7CE0
7CE0
7FC0
3FF0
3FF8
3E78
3E7C
3E7C
3EFC
3FFC
3FF0
3FF0
1F00
ENDCHAR
STARTCHAR 1E03
ENCODING 7683
SWIDTH 504 0
DWIDTH 14 0
BBX 14 22 0 0
BITMAP
1800
3800
0800
3F80
7FC0
FFE0
7FE0
7DF0
7CF0
7CE0
7CE0
7FC0
3FF0
3FF8
3E78
3E7C
3E7C
3EFC
3FFC
3FF0
3FF0
1F00
ENDCHAR
STARTCHAR 1E06
ENCODING 7686
SWIDTH 504 0
DWIDTH 14 0
BBX 14 23 0 -4
BITMAP
3F80
7FC0
FFE0
7FE0
7DF0
7CF0
7CE0
7CE0
7FC0
3FF0
3FF8
3E78
3E7C
3E7C
3EFC
3FFC
3FF0
3FF0
1F00
0000
0FF0
0FF0
0FE0
ENDCHAR
STARTCHAR 1E07
ENCODING 7687
SWIDTH 504 0
DWIDTH 14 0
BBX 14 23 0 -4
BITMAP
3F80
7FC0
FFE0
7FE0
7DF0
7CF0
7CE0
7CE0
7FC0
3FF0
3FF8
3E78
3E7C
3E7C
3EFC
3FFC
3FF0
3FF0
1F00
0000
0FF0
0FF0
0FE0
ENDCHAR
STARTCHAR 1E08
ENCODING 7688
SWIDTH 468 0
DWIDTH 13 0
BBX 13 29 0 -5
BITMAP
0078
00F0
00E0
01C0
0000
03C0
0FF0
3FF8
3FF8
7FF8
7FC0
7E00
7C00
FC00
7C00
FE08
7FF8
7FF8
7FF8
7FF8
3FF8
3FF0
1FE0
0780
0700
03C0
19C0
1FC0
0F00
ENDCHAR
STARTCHAR 1E09
ENCODING 7689
SWIDTH 468 0
DWIDTH 13 0
BBX 13 29 0 -5
BITMAP
0078
00F0
00E0
01C0
0000
03C0
0FF0
3FF8
3FF8
7FF8
7FC0
7E00
7C00
FC00
7C00
FE08
7FF8
7FF8
7FF8
7FF8
3FF8
3FF0
1FE0
0780
0700
03C0
19C0
1FC0
0F00
ENDCHAR
STARTCHAR 1E0A
ENCODING 7690
SWIDTH 432 0
DWIDTH 12 0
BBX 12 22 0 0
BITMAP
3800
3800
1000
7C00
FF80
FFC0
FFE0
FFE0
7DF0
7C70
7C70
7C70
7CF0
7DF0
7FE0
3FE0
3FC0
3FC0
3F80
3F00
1C00
1000
ENDCHAR
STARTCHAR 1E0B
ENCODING 7691
SWIDTH 432 0
DWIDTH 12 0
BBX 12 22 0 0
BITMAP
3800
3800
1000
7C00
FF80
FFC0
FFE0
FFE0
7DF0
7C70
7C70
7C70
7CF0
7DF0
7FE0
3FE0
3FC0
3FC0
3F80
3F00
1C00
1000
ENDCHAR
STARTCHAR 1E0C
ENCODING 7692
SWIDTH 432 0
DWIDTH 12 0
BBX 12 23 0 -4
BITMAP
7C00
FF80
FFC0
FFE0
FFE0
7DF0
7C70
7C70
7C70
7CF0
7DF0
7FE0
3FE0
3FC0
3FC0
3F80
3F00
1C00
1000
0000
0400
0E00
0E00
ENDCHAR
STARTCHAR 1E0D
ENCODING 7693
SWIDTH 432 0
DWIDTH 12 0
BBX 12 23 0 -4
BITMAP
7C00
FF80
FFC0
FFE0
FFE0
7DF0
7C70
7C70
7C70
7CF0
7DF0
7FE0
3FE0
3FC0
3FC0
3F80
3F00
1C00
1000
0000
0400
0E00
0E00
ENDCHAR
STARTCHAR 1E0E
ENCODING 7694
SWIDTH 432 0
DWIDTH 12 0
BBX 12 23 0 -4
BITMAP
7C00
FF80
FFC0
FFE0
FFE0
7DF0
7C70
7C70
7C70
7CF0
7DF0
7FE0
3FE0
3FC0
3FC0
3F80
3F00
1C00
1000
0000
1FE0
1FE0
1F40
ENDCHAR
STARTCHAR 1E0F
ENCODING 7695
SWIDTH 432 0
DWIDTH 12 0
BBX 12 23 0 -4
BITMAP
7C00
FF80
FFC0
FFE0
FFE0
7DF0
7C70
7C70
7C70
7CF0
7DF0
7FE0
3FE0
3FC0
3FC0
3F80
3F00
1C00
1000
0000
1FE0
1FE0
1F40
ENDCHAR
STARTCHAR 1E10
ENCODING 7696
SWIDTH 432 0
DWIDTH 12 0
BBX 12 24 0 -5
BITMAP
7C00
FF80
FFC0
FFE0
FFE0
7DF0
7C70
7C70
7C70
7CF0
7DF0
7FE0
3FE0
3FC0
3FC0
3F80
3F00
1E00
1E00
0700
0380
11C0
3FC0
0E00
ENDCHAR
STARTCHAR 1E11
ENCODING 7697
SWIDTH 432 0
DWIDTH 12 0
BBX 12 24 0 -5
BITMAP
7C00
FF80
FFC0
FFE0
FFE0
7DF0
7C70
7C70
7C70
7CF0
7DF0
7FE0
3FE0
3FC0
3FC0
3F80
3F00
1E00
1E00
0700
0380
11C0
3FC0
0E00
ENDCHAR
STARTCHAR 1E1C
ENCODING 7708
SWIDTH 468 0
DWIDTH 13 0
BBX 13 30 0 -5
BITMAP
0080
E380
7F00
7F00
3E00
0000
7FE0
FFC0
7FC0
7FC0
7FC0
3F00
3C00
3E40
3FC0
3FC0
3F00
1E00
1FF0
1FF8
1FF8
1FF8
1FF8
1FE0
0FC0
01C0
00F0
0670
07F0
01C0
ENDCHAR
STARTCHAR 1E1D
ENCODING 7709
SWIDTH 468 0
DWIDTH 13 0
BBX 13 30 0 -5
BITMAP
0080
E380
7F00
7F00
3E00
0000
7FE0
FFC0
7FC0
7FC0
7FC0
3F00
3C00
3E40
3FC0
3FC0
3F00
1E00
1FF0
1FF8
1FF8
1FF8
1FF8
1FE0
0FC0
01C0
00F0
0670
07F0
01C0
ENDCHAR
STARTCHAR 1E1E
ENCODING 7710
SWIDTH 504 0
DWIDTH 14 0
BBX 14 23 0 0
BITMAP
0600
0E00
0600
0060
3FF8
FFF8
FFF8
FFFC
FC00
FC00
FC00
7F80
7F00
7F80
FE80
7800
F800
F800
7800
7800
7C00
7C00
7800
ENDCHAR
STARTCHAR 1E1F
ENCODING 7711
SWIDTH 504 0
DWIDTH 14 0
BBX 14 23 0 0
BITMAP
0600
0E00
0600
0060
3FF8
FFF8
FFF8
FFFC
FC00
FC00
FC00
7F80
7F00
7F80
FE80
7800
F800
F800
7800
7800
7C00
7C00
7800
ENDCHAR
STARTCHAR 1E24
ENCODING 7716
SWIDTH 540 0
DWIDTH 15 0
BBX 14 23 1 -4
BITMAP
1E00
7E3C
7E7C
7E7C
7E7C
7E7C
7E7C
7FFC
7FFC
7FFC
7FFC
FFFC
FFFC
FCFC
FCFC
FCFC
FCF8
FCF8
1880
0000
0200
0700
0700
ENDCHAR
STARTCHAR 1E25
ENCODING 7717
SWIDTH 540 0
DWIDTH 15 0
BBX 14 23 1 -4
BITMAP
1E00
7E3C
7E7C
7E7C
7E7C
7E7C
7E7C
7FFC
7FFC
7FFC
7FFC
FFFC
FFFC
FCFC
FCFC
FCFC
FCF8
FCF8
1880
0000
0200
0700
0700
ENDCHAR
STARTCHAR 1E28
ENCODING 7720
SWIDTH 540 0
DWIDTH 15 0
BBX 15 24 0 -5
BITMAP
0F00
3F1E
3F3E
3F3E
3F3E
3F3E
3F3E
3FFE
3FFE
3FFE
3FFE
7FFE
7FFE
7E7E
7E7E
7E7E
7E7C
7E7C
1C40
1C00
0E00
6700
FF00
1800
ENDCHAR
STARTCHAR 1E29
ENCODING 7721
SWIDTH 540 0
DWIDTH 15 0
BBX 15 24 0 -5
BITMAP
0F00
3F1E
3F3E
3F3E
3F3E
3F3E
3F3E
3FFE
3FFE
3FFE
3FFE
7FFE
7FFE
7E7E
7E7E
7E7E
7E7C
7E7C
1C40
1C00
0E00
6700
FF00
1800
ENDCHAR
STARTCHAR 1E2A
ENCODING 7722
SWIDTH 540 0
DWIDTH 15 0
BBX 14 24 1 -5
BITMAP
1E00
7E3C
7E7C
7E7C
7E7C
7E7C
7E7C
7FFC
7FFC
7FFC
7FFC
FFFC
FFFC
FCFC
FCFC
FCFC
FCF8
FCF8
1880
1860
1CE0
1FC0
0FC0
0200
ENDCHAR
STARTCHAR 1E2B
ENCODING 7723
SWIDTH 540 0
DWIDTH 15 0
BBX 14 24 1 -5
BITMAP
1E00
7E3C
7E7C
7E7C
7E7C
7E7C
7E7C
7FFC
7FFC
7FFC
7FFC
FFFC
FFFC
FCFC
FCFC
FCFC
FCF8
FCF8
1880
1860
1CE0
1FC0
0FC0
0200
ENDCHAR
STARTCHAR 1E30
ENCODING 7728
SWIDTH 540 0
DWIDTH 15 0
BBX 15 24 0 0
BITMAP
003C
0078
00F0
00E0
0000
7F18
7F3C
7F7E
7F7C
7FF8
7FF0
7FF0
7FE0
7FE0
7FC0
FFC0
FFE0
FFF0
FFF8
FF78
FF7C
7F3E
7F3E
7E10
ENDCHAR
STARTCHAR 1E31
ENCODING 7729
SWIDTH 540 0
DWIDTH 15 0
BBX 15 24 0 0
BITMAP
003C
0078
00F0
00E0
0000
7F18
7F3C
7F7E
7F7C
7FF8
7FF0
7FF0
7FE0
7FE0
7FC0
FFC0
FFE0
FFF0
FFF8
FF78
FF7C
7F3E
7F3E
7E10
ENDCHAR
STARTCHAR 1E34
ENCODING 7732
SWIDTH 540 0
DWIDTH 15 0
BBX 15 23 0 -4
BITMAP
7F18
7F3C
7F7E
7F7C
7FF8
7FF0
7FF0
7FE0
7FE0
7FC0
FFC0
FFE0
FFF0
FFF8
FF78
FF7C
7F3E
7F3E
7E10
0000
1FE0
1FE0
1FC0
ENDCHAR
STARTCHAR 1E35
ENCODING 7733
SWIDTH 540 0
DWIDTH 15 0
BBX 15 23 0 -4
BITMAP
7F18
7F3C
7F7E
7F7C
7FF8
7FF0
7FF0
7FE0
7FE0
7FC0
FFC0
FFE0
FFF0
FFF8
FF78
FF7C
7F3E
7F3E
7E10
0000
1FE0
1FE0
1FC0
ENDCHAR
STARTCHAR 1E36
ENCODING 7734
SWIDTH 504 0
DWIDTH 14 0
BBX 13 23 1 -4
BITMAP
1F80
3F80
3F80
3F80
3F80
7F00
7F00
7F00
7F00
7F00
7F00
7E00
FE00
FFF0
FFF0
FFF0
FFF0
FFF8
FFE0
0000
0400
0E00
0600
ENDCHAR
STARTCHAR 1E37
ENCODING 7735
SWIDTH 504 0
DWIDTH 14 0
BBX 13 23 1 -4
BITMAP
1F80
3F80
3F80
3F80
3F80
7F00
7F00
7F00
7F00
7F00
7F00
7E00
FE00
FFF0
FFF0
FFF0
FFF0
FFF8
FFE0
0000
0400
0E00
0600
ENDCHAR
STARTCHAR 1E3A
ENCODING 7738
SWIDTH 504 0
DWIDTH 14 0
BBX 13 23 1 -4
BITMAP
1F80
3F80
3F80
3F80
3F80
7F00
7F00
7F00
7F00
7F00
7F00
7E00
FE00
FFF0
FFF0
FFF0
FFF0
FFF8
FFE0
0000
3FC0
3FC0
3F80
ENDCHAR
STARTCHAR 1E3B
ENCODING 7739
SWIDTH 504 0
DWIDTH 14 0
BBX 13 23 1 -4
BITMAP
1F80
3F80
3F80
3F80
3F80
7F00
7F00
7F00
7F00
7F00
7F00
7E00
FE00
FFF0
FFF0
FFF0
FFF0
FFF8
FFE0
0000
3FC0
3FC0
3F80
ENDCHAR
STARTCHAR 1E3E
ENCODING 7742
SWIDTH 648 0
DWIDTH 18 0
BBX 17 24 1 0
BITMAP
007800
007800
00F000
00E000
000000
200400
300C00
381E00
3C1E00
3C3E00
7E3E00
7E7E00
7FFE00
7FFE00
7FFE00
7FFF00
FCFF00
FCBF00
FC3F00
F83F00
F83F00
F83F00
F03F80
F00000
ENDCHAR
STARTCHAR 1E3F
ENCODING 7743
SWIDTH 648 0
DWIDTH 18 0
BBX 17 24 1 0
BITMAP
007800
007800
00F000
00E000
000000
200400
300C00
381E00
3C1E00
3C3E00
7E3E00
7E7E00
7FFE00
7FFE00
7FFE00
7FFF00
FCFF00
FCBF00
FC3F00
F83F00
F83F00
F83F00
F03F80
F00000
ENDCHAR
STARTCHAR 1E40
ENCODING 7744
SWIDTH 648 0
DWIDTH 18 0
BBX 17 22 1 0
BITMAP
01C000
01C000
008000
200400
300C00
381E00
3C1E00
3C3E00
7E3E00
7E7E00
7FFE00
7FFE00
7FFE00
7FFF00
FCFF00
FCBF00
FC3F00
F83F00
F83F00
F83F00
F03F80
F00000
ENDCHAR
STARTCHAR 1E41
ENCODING 7745
SWIDTH 648 0
DWIDTH 18 0
BBX 17 22 1 0
BITMAP
01C000
01C000
008000
200400
300C00
381E00
3C1E00
3C3E00
7E3E00
7E7E00
7FFE00
7FFE00
7FFE00
7FFF00
FCFF00
FCBF00
FC3F00
F83F00
F83F00
F83F00
F03F80
F00000
ENDCHAR
STARTCHAR 1E44
ENCODING 7748
SWIDTH 540 0
DWIDTH 15 0
BBX 14 22 1 1
BITMAP
0180
0380
0000
1018
7E7C
7E7C
7E7C
7E7C
7E7C
FE7C
FF7C
FF7C
FF78
FFF8
FBF8
FBF8
FBF8
F9F8
F9F8
F9F8
F9F8
E020
ENDCHAR
STARTCHAR 1E45
ENCODING 7749
SWIDTH 540 0
DWIDTH 15 0
BBX 14 22 1 1
BITMAP
0180
0380
0000
1018
7E7C
7E7C
7E7C
7E7C
7E7C
FE7C
FF7C
FF7C
FF78
FFF8
FBF8
FBF8
FBF8
F9F8
F9F8
F9F8
F9F8
E020
ENDCHAR
STARTCHAR 1E48
ENCODING 7752
SWIDTH 540 0
DWIDTH 15 0
BBX 14 23 1 -4
BITMAP
1018
7E7C
7E7C
7E7C
7E7C
7E7C
FE7C
FF7C
FF7C
FF78
FFF8
FBF8
FBF8
FBF8
F9F8
F9F8
F9F8
F9F8
E020
0000
1FE0
1FE0
1F40
ENDCHAR
STARTCHAR 1E49
ENCODING 7753
SWIDTH 540 0
DWIDTH 15 0
BBX 14 23 1 -4
BITMAP
1018
7E7C
7E7C
7E7C
7E7C
7E7C
FE7C
FF7C
FF7C
FF78
FFF8
FBF8
FBF8
FBF8
F9F8
F9F8
F9F8
F9F8
E020
0000
1FE0
1FE0
1F40
ENDCHAR
STARTCHAR 1E54
ENCODING 7764
SWIDTH 468 0
DWIDTH 13 0
BBX 13 24 0 0
BITMAP
03C0
0380
0700
0700
0000
1F80
3FE0
7FF0
7FF0
7CF8
7C78
7C78
7E78
7EF8
7FF8
7FF0
7FC0
7E00
7E00
FE00
FE00
FE00
FF00
7F00
ENDCHAR
STARTCHAR 1E55
ENCODING 7765
SWIDTH 468 0
DWIDTH 13 0
BBX 13 24 0 0
BITMAP
03C0
0380
0700
0700
0000
1F80
3FE0
7FF0
7FF0
7CF8
7C78
7C78
7E78
7EF8
7FF8
7FF0
7FC0
7E00
7E00
FE00
FE00
FE00
FF00
7F00
ENDCHAR
STARTCHAR 1E56
ENCODING 7766
SWIDTH 468 0
DWIDTH 13 0
BBX 13 22 0 0
BITMAP
0300
0700
0000
1F80
3FE0
7FF0
7FF0
7CF8
7C78
7C78
7E78
7EF8
7FF8
7FF0
7FC0
7E00
7E00
FE00
FE00
FE00
FF00
7F00
ENDCHAR
STARTCHAR 1E57
ENCODING 7767
SWIDTH 468 0
DWIDTH 13 0
BBX 13 22 0 0
BITMAP
0300
0700
0000
1F80
3FE0
7FF0
7FF0
7CF8
7C78
7C78
7E78
7EF8
7FF8
7FF0
7FC0
7E00
7E00
FE00
FE00
FE00
FF00
7F00
ENDCHAR
STARTCHAR 1E5A
ENCODING 7770
SWIDTH 576 0
DWIDTH 16 0
BBX 16 23 0 -4
BITMAP
0F80
7FE0
FFF8
7E78
7E38
7E3C
7E3C
7F78
7FF8
7FF0
7FE0
7FF0
7FF8
7F78
7F7C
7F3C
7F3E
3F1F
3F1E
0000
0040
00E0
00E0
ENDCHAR
STARTCHAR 1E5B
ENCODING 7771
SWIDTH 576 0
DWIDTH 16 0
BBX 16 23 0 -4
BITMAP
0F80
7FE0
FFF8
7E78
7E38
7E3C
7E3C
7F78
7FF8
7FF0
7FE0
7FF0
7FF8
7F78
7F7C
7F3C
7F3E
3F1F
3F1E
0000
0040
00E0
00E0
ENDCHAR
STARTCHAR 1E5E
ENCODING 7774
SWIDTH 576 0
DWIDTH 16 0
BBX 16 23 0 -4
BITMAP
0F80
7FE0
FFF8
7E78
7E38
7E3C
7E3C
7F78
7FF8
7FF0
7FE0
7FF0
7FF8
7F78
7F7C
7F3C
7F3E
3F1F
3F1E
0000
07F8
07F8
06F0
ENDCHAR
STARTCHAR 1E5F
ENCODING 7775
SWIDTH 576 0
DWIDTH 16 0
BBX 16 23 0 -4
BITMAP
0F80
7FE0
FFF8
7E78
7E38
7E3C
7E3C
7F78
7FF8
7FF0
7FE0
7FF0
7FF8
7F78
7F7C
7F3C
7F3E
3F1F
3F1E
0000
07F8
07F8
06F0
ENDCHAR
STARTCHAR 1E60
ENCODING 7776
SWIDTH 504 0
DWIDTH 14 0
BBX 14 22 0 0
BITMAP
0380
0380
0100
0FFC
1FF8
1FF8
3FF0
3FF0
7FE0
7FE0
7C20
3F00
3FC0
1FF0
03F0
00F8
60F8
7FF8
FFF8
FFF0
7FE0
1FC0
ENDCHAR
STARTCHAR 1E61
ENCODING 7777
SWIDTH 504 0
DWIDTH 14 0
BBX 14 22 0 0
BITMAP
0380
0380
0100
0FFC
1FF8
1FF8
3FF0
3FF0
7FE0
7FE0
7C20
3F00
3FC0
1FF0
03F0
00F8
60F8
7FF8
FFF8
FFF0
7FE0
1FC0
ENDCHAR
STARTCHAR 1E62
ENCODING 7778
SWIDTH 504 0
DWIDTH 14 0
BBX 14 23 0 -4
BITMAP
0FFC
1FF8
1FF8
3FF0
3FF0
7FE0
7FE0
7C20
3F00
3FC0
1FF0
03F0
00F8
60F8
7FF8
FFF8
FFF0
7FE0
1FC0
0000
0200
0700
0700
ENDCHAR
STARTCHAR 1E63
ENCODING 7779
SWIDTH 504 0
DWIDTH 14 0
BBX 14 23 0 -4
BITMAP
0FFC
1FF8
1FF8
3FF0
3FF0
7FE0
7FE0
7C20
3F00
3FC0
1FF0
03F0
00F8
60F8
7FF8
FFF8
FFF0
7FE0
1FC0
0000
0200
0700
0700
ENDCHAR
STARTCHAR 1E6A
ENCODING 7786
SWIDTH 576 0
DWIDTH 16 0
BBX 16 22 0 0
BITMAP
01C0
01C0
0000
3FFC
7FFE
7FFE
7FFE
7FFF
FFF8
63E0
03C0
03C0
03C0
03C0
03C0
03C0
03C0
03C0
03C0
03C0
03C0
03C0
ENDCHAR
STARTCHAR 1E6B
ENCODING 7787
SWIDTH 576 0
DWIDTH 16 0
BBX 16 22 0 0
BITMAP
01C0
01C0
0000
3FFC
7FFE
7FFE
7FFE
7FFF
FFF8
63E0
03C0
03C0
03C0
03C0
03C0
03C0
03C0
03C0
03C0
03C0
03C0
03C0
ENDCHAR
STARTCHAR 1E6C
ENCODING 7788
SWIDTH 576 0
DWIDTH 16 0
BBX 16 23 0 -4
BITMAP
3FFC
7FFE
7FFE
7FFE
7FFF
FFF8
63E0
03C0
03C0
03C0
03C0
03C0
03C0
03C0
03C0
03C0
03C0
03C0
03C0
0000
0080
01C0
01C0
ENDCHAR
STARTCHAR 1E6D
ENCODING 7789
SWIDTH 576 0
DWIDTH 16 0
BBX 16 23 0 -4
BITMAP
3FFC
7FFE
7FFE
7FFE
7FFF
FFF8
63E0
03C0
03C0
03C0
03C0
03C0
03C0
03C0
03C0
03C0
03C0
03C0
03C0
0000
0080
01C0
01C0
ENDCHAR
STARTCHAR 1E6E
ENCODING 7790
SWIDTH 576 0
DWIDTH 16 0
BBX 16 23 0 -4
BITMAP
3FFC
7FFE
7FFE
7FFE
7FFF
FFF8
63E0
03C0
03C0
03C0
03C0
03C0
03C0
03C0
03C0
03C0
03C0
03C0
03C0
0000
0FF0
0FF0
0FE0
ENDCHAR
STARTCHAR 1E6F
ENCODING 7791
SWIDTH 576 0
DWIDTH 16 0
BBX 16 23 0 -4
BITMAP
3FFC
7FFE
7FFE
7FFE
7FFF
FFF8
63E0
03C0
03C0
03C0
03C0
03C0
03C0
03C0
03C0
03C0
03C0
03C0
03C0
0000
0FF0
0FF0
0FE0
ENDCHAR
STARTCHAR 1E7C
ENCODING 7804
SWIDTH 576 0
DWIDTH 16 0
BBX 16 23 0 1
BITMAP
0338
07F8
07F8
06F0
0000
0000
F03F
7E3F
3F3F
3F3F
3F3E
1FBE
1FBE
0FBE
0FFC
07FC
07FC
03FC
03FC
01F8
00F8
00F8
0078
ENDCHAR
STARTCHAR 1E7D
ENCODING 7805
SWIDTH 576 0
DWIDTH 16 0
BBX 16 23 0 1
BITMAP
0338
07F8
07F8
06F0
0000
0000
F03F
7E3F
3F3F
3F3F
3F3E
1FBE
1FBE
0FBE
0FFC
07FC
07FC
03FC
03FC
01F8
00F8
00F8
0078
ENDCHAR
STARTCHAR 1E80
ENCODING 7808
SWIDTH 720 0
DWIDTH 20 0
BBX 20 24 0 0
BITMAP
078000
03C000
01C000
00E000
000000
7801C0
7C61F0
FC73E0
7C73E0
7E73E0
7E77C0
3F7FC0
3F7FC0
3FFFC0
1FFFC0
1FFFC0
0FFF80
0FEF80
07CF80
07CF80
038F80
038780
018700
008000
ENDCHAR
STARTCHAR 1E81
ENCODING 7809
SWIDTH 720 0
DWIDTH 20 0
BBX 20 24 0 0
BITMAP
078000
03C000
01C000
00E000
000000
7801C0
7C61F0
FC73E0
7C73E0
7E73E0
7E77C0
3F7FC0
3F7FC0
3FFFC0
1FFFC0
1FFFC0
0FFF80
0FEF80
07CF80
07CF80
038F80
038780
018700
008000
ENDCHAR
STARTCHAR 1E82
ENCODING 7810
SWIDTH 720 0
DWIDTH 20 0
BBX 20 24 0 0
BITMAP
001C00
003C00
007800
007000
000000
7801C0
7C61F0
FC73E0
7C73E0
7E73E0
7E77C0
3F7FC0
3F7FC0
3FFFC0
1FFFC0
1FFFC0
0FFF80
0FEF80
07CF80
07CF80
038F80
038780
018700
008000
ENDCHAR
STARTCHAR 1E83
ENCODING 7811
SWIDTH 720 0
DWIDTH 20 0
BBX 20 24 0 0
BITMAP
001C00
003C00
007800
007000
000000
7801C0
7C61F0
FC73E0
7C73E0
7E73E0
7E77C0
3F7FC0
3F7FC0
3FFFC0
1FFFC0
1FFFC0
0FFF80
0FEF80
07CF80
07CF80
038F80
038780
018700
008000
ENDCHAR
STARTCHAR 1E84
ENCODING 7812
SWIDTH 720 0
DWIDTH 20 0
BBX 20 23 0 0
BITMAP
000800
039C00
039C00
000000
7801C0
7C61F0
FC73E0
7C73E0
7E73E0
7E77C0
3F7FC0
3F7FC0
3FFFC0
1FFFC0
1FFFC0
0FFF80
0FEF80
07CF80
07CF80
038F80
038780
018700
008000
ENDCHAR
STARTCHAR 1E85
ENCODING 7813
SWIDTH 720 0
DWIDTH 20 0
BBX 20 23 0 0
BITMAP
000800
039C00
039C00
000000
7801C0
7C61F0
FC73E0
7C73E0
7E73E0
7E77C0
3F7FC0
3F7FC0
3FFFC0
1FFFC0
1FFFC0
0FFF80
0FEF80
07CF80
07CF80
038F80
038780
018700
008000
ENDCHAR
STARTCHAR 1E90
ENCODING 7824
SWIDTH 576 0
DWIDTH 16 0
BBX 16 24 0 0
BITMAP
0380
07C0
0FE0
1E70
0000
07FC
3FF8
7FF8
7FF0
FFF0
01E0
03E0
03C0
03C0
07C0
0780
0780
0F80
0F00
0FFF
1FFF
1FFF
03FE
00F0
ENDCHAR
STARTCHAR 1E91
ENCODING 7825
SWIDTH 576 0
DWIDTH 16 0
BBX 16 24 0 0
BITMAP
0380
07C0
0FE0
1E70
0000
07FC
3FF8
7FF8
7FF0
FFF0
01E0
03E0
03C0
03C0
07C0
0780
0780
0F80
0F00
0FFF
1FFF
1FFF
03FE
00F0
ENDCHAR
STARTCHAR 1E92
ENCODING 7826
SWIDTH 576 0
DWIDTH 16 0
BBX 16 23 0 -4
BITMAP
07FC
3FF8
7FF8
7FF0
FFF0
01E0
03E0
03C0
03C0
07C0
0780
0780
0F80
0F00
0FFF
1FFF
1FFF
03FE
00F0
0000
00C0
00E0
00C0
ENDCHAR
STARTCHAR 1E93
ENCODING 7827
SWIDTH 576 0
DWIDTH 16 0
BBX 16 23 0 -4
BITMAP
07FC
3FF8
7FF8
7FF0
FFF0
01E0
03E0
03C0
03C0
07C0
0780
0780
0F80
0F00
0FFF
1FFF
1FFF
03FE
00F0
0000
00C0
00E0
00C0
ENDCHAR
STARTCHAR 1E94
ENCODING 7828
SWIDTH 576 0
DWIDTH 16 0
BBX 16 23 0 -4
BITMAP
07FC
3FF8
7FF8
7FF0
FFF0
01E0
03E0
03C0
03C0
07C0
0780
0780
0F80
0F00
0FFF
1FFF
1FFF
03FE
00F0
0000
07F8
07F8
07F0
ENDCHAR
STARTCHAR 1E95
ENCODING 7829
SWIDTH 576 0
DWIDTH 16 0
BBX 16 23 0 -4
BITMAP
07FC
3FF8
7FF8
7FF0
FFF0
01E0
03E0
03C0
03C0
07C0
0780
0780
0F80
0F00
0FFF
1FFF
1FFF
03FE
00F0
0000
07F8
07F8
07F0
ENDCHAR
STARTCHAR 1E96
ENCODING 7830
SWIDTH 540 0
DWIDTH 15 0
BBX 14 23 1 -4
BITMAP
1E00
7E3C
7E7C
7E7C
7E7C
7E7C
7E7C
7FFC
7FFC
7FFC
7FFC
FFFC
FFFC
FCFC
FCFC
FCFC
FCF8
FCF8
1880
0000
1FE0
1FE0
1FC0
ENDCHAR
STARTCHAR 1E9B
ENCODING 7835
SWIDTH 432 0
DWIDTH 12 0
BBX 12 27 0 -4
BITMAP
0400
0E00
0E00
0000
1FC0
3FE0
7FF0
7EF0
F840
F800
7800
7800
7800
7800
7800
7800
7C00
7800
7C00
7C00
7C00
7C00
7C00
7C00
7C00
3C00
3C00
ENDCHAR
STARTCHAR 1E9C
ENCODING 7836
SWIDTH 468 0
DWIDTH 13 0
BBX 13 23 0 -4
BITMAP
0FE0
1FF0
3FF0
3E78
7C20
7C00
7C00
3C40
3CE0
3FE0
3FE0
3FC0
7F80
FE00
FC00
FC00
7C00
3C00
3C00
3E00
3E00
3E00
1E00
ENDCHAR
STARTCHAR 1E9D
ENCODING 7837
SWIDTH 468 0
DWIDTH 13 0
BBX 13 23 0 -4
BITMAP
0FE0
1FF0
3FF0
3E78
7C20
7C00
FFC0
FFC0
FFC0
3C00
3C00
3C00
3C00
3C00
3C00
3C00
3C00
3C00
3C00
3E00
3E00
3E00
1E00
ENDCHAR
STARTCHAR 1E9E
ENCODING 7838
SWIDTH 540 0
DWIDTH 15 0
BBX 15 21 0 -2
BITMAP
1F80
3FC0
7FE0
7FE0
F8E0
F8E0
78E0
79E0
79C0
79F8
79FC
79FE
783E
781E
783E
787E
78FE
78FC
3CF8
3C00
3800
ENDCHAR
STARTCHAR 1EA0
ENCODING 7840
SWIDTH 612 0
DWIDTH 17 0
BBX 16 23 1 -4
BITMAP
00C0
01C0
03C0
03E0
03E0
07E0
07E0
07F0
0FF0
0FF0
1DF8
1CF8
38F8
3FFC
7FFC
7CFE
78FE
F87E
F87F
C000
0000
0380
0300
ENDCHAR
STARTCHAR 1EA1
ENCODING 7841
SWIDTH 612 0
DWIDTH 17 0
BBX 16 23 1 -4
BITMAP
00C0
01C0
03C0
03E0
03E0
07E0
07E0
07F0
0FF0
0FF0
1DF8
1CF8
38F8
3FFC
7FFC
7CFE
78FE
F87E
F87F
C000
0000
0380
0300
ENDCHAR
STARTCHAR 1EA2
ENCODING 7842
SWIDTH 612 0
DWIDTH 17 0
BBX 16 25 1 -1
BITMAP
03F0
03F0
00F0
03C0
0000
00C0
01C0
03C0
03E0
03E0
07E0
07E0
07F0
0FF0
0FF0
1DF8
1CF8
38F8
3FFC
7FFC
7CFE
78FE
F87E
F87F
C000
ENDCHAR
STARTCHAR 1EA3
ENCODING 7843
SWIDTH 612 0
DWIDTH 17 0
BBX 16 25 1 -1
BITMAP
03F0
03F0
00F0
03C0
0000
00C0
01C0
03C0
03E0
03E0
07E0
07E0
07F0
0FF0
0FF0
1DF8
1CF8
38F8
3FFC
7FFC
7CFE
78FE
F87E
F87F
C000
ENDCHAR
STARTCHAR 1EA4
ENCODING 7844
SWIDTH 612 0
DWIDTH 17 0
BBX 16 26 1 -1
BITMAP
001E
0038
0030
03C0
07F0
0430
00C0
01C0
03C0
03E0
03E0
07E0
07E0
07F0
0FF0
0FF0
1DF8
1CF8
38F8
3FFC
7FFC
7CFE
78FE
F87E
F87F
C000
ENDCHAR
STARTCHAR 1EA5
ENCODING 7845
SWIDTH 612 0
DWIDTH 17 0
BBX 16 26 1 -1
BITMAP
001E
0038
0030
03C0
07F0
0430
00C0
01C0
03C0
03E0
03E0
07E0
07E0
07F0
0FF0
0FF0
1DF8
1CF8
38F8
3FFC
7FFC
7CFE
78FE
F87E
F87F
C000
ENDCHAR
STARTCHAR 1EA6
ENCODING 7846
SWIDTH 612 0
DWIDTH 17 0
BBX 16 26 1 -1
BITMAP
3C00
1E00
0E00
03C0
07F0
0430
00C0
01C0
03C0
03E0
03E0
07E0
07E0
07F0
0FF0
0FF0
1DF8
1CF8
38F8
3FFC
7FFC
7CFE
78FE
F87E
F87F
C000
ENDCHAR
STARTCHAR 1EA7
ENCODING 7847
SWIDTH 612 0
DWIDTH 17 0
BBX 16 26 1 -1
BITMAP
3C00
1E00
0E00
03C0
07F0
0430
00C0
01C0
03C0
03E0
03E0
07E0
07E0
07F0
0FF0
0FF0
1DF8
1CF8
38F8
3FFC
7FFC
7CFE
78FE
F87E
F87F
C000
ENDCHAR
STARTCHAR 1EA8
ENCODING 7848
SWIDTH 612 0
DWIDTH 17 0
BBX 16 26 1 -1
BITMAP
00FE
003C
0078
03C0
07F0
0430
00C0
01C0
03C0
03E0
03E0
07E0
07E0
07F0
0FF0
0FF0
1DF8
1CF8
38F8
3FFC
7FFC
7CFE
78FE
F87E
F87F
C000
ENDCHAR
STARTCHAR 1EA9
ENCODING 7849
SWIDTH 612 0
DWIDTH 17 0
BBX 16 26 1 -1
BITMAP
00FE
003C
0078
03C0
07F0
0430
00C0
01C0
03C0
03E0
03E0
07E0
07E0
07F0
0FF0
0FF0
1DF8
1CF8
38F8
3FFC
7FFC
7CFE
78FE
F87E
F87F
C000
ENDCHAR
STARTCHAR 1EAA
ENCODING 7850
SWIDTH 612 0
DWIDTH 17 0
BBX 16 26 1 -1
BITMAP
07F0
0FF0
0000
03C0
07F0
0430
00C0
01C0
03C0
03E0
03E0
07E0
07E0
07F0
0FF0
0FF0
1DF8
1CF8
38F8
3FFC
7FFC
7CFE
78FE
F87E
F87F
C000
ENDCHAR
STARTCHAR 1EAB
ENCODING 7851
SWIDTH 612 0
DWIDTH 17 0
BBX 16 26 1 -1
BITMAP
07F0
0FF0
0000
03C0
07F0
0430
00C0
01C0
03C0
03E0
03E0
07E0
07E0
07F0
0FF0
0FF0
1DF8
1CF8
38F8
3FFC
7FFC
7CFE
78FE
F87E
F87F
C000
ENDCHAR
STARTCHAR 1EAC
ENCODING 7852
SWIDTH 612 0
DWIDTH 17 0
BBX 16 28 1 -4
BITMAP
01C0
03E0
07F0
0F70
0000
00C0
01C0
03C0
03E0
03E0
07E0
07E0
07F0
0FF0
0FF0
1DF8
1CF8
38F8
3FFC
7FFC
7CFE
78FE
F87E
F87F
C000
0000
0380
0300
ENDCHAR
STARTCHAR 1EAD
ENCODING 7853
SWIDTH 612 0
DWIDTH 17 0
BBX 16 28 1 -4
BITMAP
01C0
03E0
07F0
0F70
0000
00C0
01C0
03C0
03E0
03E0
07E0
07E0
07F0
0FF0
0FF0
1DF8
1CF8
38F8
3FFC
7FFC
7CFE
78FE
F87E
F87F
C000
0000
0380
0300
ENDCHAR
STARTCHAR 1EAE
ENCODING 7854
SWIDTH 612 0
DWIDTH 17 0
BBX 16 26 1 -1
BITMAP
00F0
01E0
0180
0E70
07F0
01C0
00C0
01C0
03C0
03E0
03E0
07E0
07E0
07F0
0FF0
0FF0
1DF8
1CF8
38F8
3FFC
7FFC
7CFE
78FE
F87E
F87F
C000
ENDCHAR
STARTCHAR 1EAF
ENCODING 7855
SWIDTH 612 0
DWIDTH 17 0
BBX 16 26 1 -1
BITMAP
00F0
01E0
0180
0E70
07F0
01C0
00C0
01C0
03C0
03E0
03E0
07E0
07E0
07F0
0FF0
0FF0
1DF8
1CF8
38F8
3FFC
7FFC
7CFE
78FE
F87E
F87F
C000
ENDCHAR
STARTCHAR 1EB0
ENCODING 7856
SWIDTH 612 0
DWIDTH 17 0
BBX 16 26 1 -1
BITMAP
0F00
0380
0180
0E70
07F0
01C0
00C0
01C0
03C0
03E0
03E0
07E0
07E0
07F0
0FF0
0FF0
1DF8
1CF8
38F8
3FFC
7FFC
7CFE
78FE
F87E
F87F
C000
ENDCHAR
STARTCHAR 1EB1
ENCODING 7857
SWIDTH 612 0
DWIDTH 17 0
BBX 16 26 1 -1
BITMAP
0F00
0380
0180
0E70
07F0
01C0
00C0
01C0
03C0
03E0
03E0
07E0
07E0
07F0
0FF0
0FF0
1DF8
1CF8
38F8
3FFC
7FFC
7CFE
78FE
F87E
F87F
C000
ENDCHAR
STARTCHAR 1EB2
ENCODING 7858
SWIDTH 612 0
DWIDTH 17 0
BBX 16 26 1 -1
BITMAP
07F0
01F0
01C0
0E70
07F0
01C0
00C0
01C0
03C0
03E0
03E0
07E0
07E0
07F0
0FF0
0FF0
1DF8
1CF8
38F8
3FFC
7FFC
7CFE
78FE
F87E
F87F
C000
ENDCHAR
STARTCHAR 1EB3
ENCODING 7859
SWIDTH 612 0
DWIDTH 17 0
BBX 16 26 1 -1
BITMAP
07F0
01F0
01C0
0E70
07F0
01C0
00C0
01C0
03C0
03E0
03E0
07E0
07E0
07F0
0FF0
0FF0
1DF8
1CF8
38F8
3FFC
7FFC
7CFE
78FE
F87E
F87F
C000
ENDCHAR
STARTCHAR 1EB4
ENCODING 7860
SWIDTH 612 0
DWIDTH 17 0
BBX 16 26 1 -1
BITMAP
07F0
0FF0
0000
0E70
07F0
01C0
00C0
01C0
03C0
03E0
03E0
07E0
07E0
07F0
0FF0
0FF0
1DF8
1CF8
38F8
3FFC
7FFC
7CFE
78FE
F87E
F87F
C000
ENDCHAR
STARTCHAR 1EB5
ENCODING 7861
SWIDTH 612 0
DWIDTH 17 0
BBX 16 26 1 -1
BITMAP
07F0
0FF0
0000
0E70
07F0
01C0
00C0
01C0
03C0
03E0
03E0
07E0
07E0
07F0
0FF0
0FF0
1DF8
1CF8
38F8
3FFC
7FFC
7CFE
78FE
F87E
F87F
C000
ENDCHAR
STARTCHAR 1EB6
ENCODING 7862
SWIDTH 612 0
DWIDTH 17 0
BBX 16 28 1 -4
BITMAP
0C30
0E70
07F0
03E0
0000
00C0
01C0
03C0
03E0
03E0
07E0
07E0
07F0
0FF0
0FF0
1DF8
1CF8
38F8
3FFC
7FFC
7CFE
78FE
F87E
F87F
C000
0000
0380
0300
ENDCHAR
STARTCHAR 1EB7
ENCODING 7863
SWIDTH 612 0
DWIDTH 17 0
BBX 16 28 1 -4
BITMAP
0C30
0E70
07F0
03E0
0000
00C0
01C0
03C0
03E0
03E0
07E0
07E0
07F0
0FF0
0FF0
1DF8
1CF8
38F8
3FFC
7FFC
7CFE
78FE
F87E
F87F
C000
0000
0380
0300
ENDCHAR
STARTCHAR 1EB8
ENCODING 7864
SWIDTH 468 0
DWIDTH 13 0
BBX 13 23 0 -4
BITMAP
7FE0
FFC0
7FC0
7FC0
7FC0
3F00
3C00
3E40
3FC0
3FC0
3F00
1E00
1FF0
1FF8
1FF8
1FF8
1FF8
1FE0
0E00
0000
0180
01C0
0180
ENDCHAR
STARTCHAR 1EB9
ENCODING 7865
SWIDTH 468 0
DWIDTH 13 0
BBX 13 23 0 -4
BITMAP
7FE0
FFC0
7FC0
7FC0
7FC0
3F00
3C00
3E40
3FC0
3FC0
3F00
1E00
1FF0
1FF8
1FF8
1FF8
1FF8
1FE0
0E00
0000
0180
01C0
0180
ENDCHAR
STARTCHAR 1EBA
ENCODING 7866
SWIDTH 468 0
DWIDTH 13 0
BBX 13 24 0 0
BITMAP
3F00
2700
1F00
1C00
0000
7FE0
FFC0
7FC0
7FC0
7FC0
3F00
3C00
3E40
3FC0
3FC0
3F00
1E00
1FF0
1FF8
1FF8
1FF8
1FF8
1FE0
0E00
ENDCHAR
STARTCHAR 1EBB
ENCODING 7867
SWIDTH 468 0
DWIDTH 13 0
BBX 13 24 0 0
BITMAP
3F00
2700
1F00
1C00
0000
7FE0
FFC0
7FC0
7FC0
7FC0
3F00
3C00
3E40
3FC0
3FC0
3F00
1E00
1FF0
1FF8
1FF8
1FF8
1FF8
1FE0
0E00
ENDCHAR
STARTCHAR 1EBC
ENCODING 7868
SWIDTH 468 0
DWIDTH 13 0
BBX 13 24 0 0
BITMAP
3300
7F00
FF00
EE00
0000
7FE0
FFC0
7FC0
7FC0
7FC0
3F00
3C00
3E40
3FC0
3FC0
3F00
1E00
1FF0
1FF8
1FF8
1FF8
1FF8
1FE0
0E00
ENDCHAR
STARTCHAR 1EBD
ENCODING 7869
SWIDTH 468 0
DWIDTH 13 0
BBX 13 24 0 0
BITMAP
3300
7F00
FF00
EE00
0000
7FE0
FFC0
7FC0
7FC0
7FC0
3F00
3C00
3E40
3FC0
3FC0
3F00
1E00
1FF0
1FF8
1FF8
1FF8
1FF8
1FE0
0E00
ENDCHAR
STARTCHAR 1EBE
ENCODING 7870
SWIDTH 468 0
DWIDTH 13 0
BBX 13 25 0 0
BITMAP
00F0
01C0
0380
1E00
7F80
0100
7FE0
FFC0
7FC0
7FC0
7FC0
3F00
3C00
3E40
3FC0
3FC0
3F00
1E00
1FF0
1FF8
1FF8
1FF8
1FF8
1FE0
0E00
ENDCHAR
STARTCHAR 1EBF
ENCODING 7871
SWIDTH 468 0
DWIDTH 13 0
BBX 13 25 0 0
BITMAP
00F0
01C0
0380
1E00
7F80
0100
7FE0
FFC0
7FC0
7FC0
7FC0
3F00
3C00
3E40
3FC0
3FC0
3F00
1E00
1FF0
1FF8
1FF8
1FF8
1FF8
1FE0
0E00
ENDCHAR
STARTCHAR 1EC0
ENCODING 7872
SWIDTH 468 0
DWIDTH 13 0
BBX 15 25 -2 0
BITMAP
F000
3800
1800
0780
1FE0
0040
1FF8
3FF0
1FF0
1FF0
1FF0
0FC0
0F00
0F90
0FF0
0FF0
0FC0
0780
07FC
07FE
07FE
07FE
07FE
07F8
0380
ENDCHAR
STARTCHAR 1EC1
ENCODING 7873
SWIDTH 468 0
DWIDTH 13 0
BBX 15 25 -2 0
BITMAP
F000
3800
1800
0780
1FE0
0040
1FF8
3FF0
1FF0
1FF0
1FF0
0FC0
0F00
0F90
0FF0
0FF0
0FC0
0780
07FC
07FE
07FE
07FE
07FE
07F8
0380
ENDCHAR
STARTCHAR 1EC2
ENCODING 7874
SWIDTH 468 0
DWIDTH 13 0
BBX 13 25 0 0
BITMAP
07F0
03E0
0380
1E00
7F80
0100
7FE0
FFC0
7FC0
7FC0
7FC0
3F00
3C00
3E40
3FC0
3FC0
3F00
1E00
1FF0
1FF8
1FF8
1FF8
1FF8
1FE0
0E00
ENDCHAR
STARTCHAR 1EC3
ENCODING 7875
SWIDTH 468 0
DWIDTH 13 0
BBX 13 25 0 0
BITMAP
07F0
03E0
0380
1E00
7F80
0100
7FE0
FFC0
7FC0
7FC0
7FC0
3F00
3C00
3E40
3FC0
3FC0
3F00
1E00
1FF0
1FF8
1FF8
1FF8
1FF8
1FE0
0E00
ENDCHAR
STARTCHAR 1EC4
ENCODING 7876
SWIDTH 468 0
DWIDTH 13 0
BBX 13 25 0 0
BITMAP
7B80
7F80
0000
1E00
7F80
0100
7FE0
FFC0
7FC0
7FC0
7FC0
3F00
3C00
3E40
3FC0
3FC0
3F00
1E00
1FF0
1FF8
1FF8
1FF8
1FF8
1FE0
0E00
ENDCHAR
STARTCHAR 1EC5
ENCODING 7877
SWIDTH 468 0
DWIDTH 13 0
BBX 13 25 0 0
BITMAP
7B80
7F80
0000
1E00
7F80
0100
7FE0
FFC0
7FC0
7FC0
7FC0
3F00
3C00
3E40
3FC0
3FC0
3F00
1E00
1FF0
1FF8
1FF8
1FF8
1FF8
1FE0
0E00
ENDCHAR
STARTCHAR 1EC6
ENCODING 7878
SWIDTH 468 0
DWIDTH 13 0
BBX 13 28 0 -4
BITMAP
1C00
3F00
7F80
F300
0000
7FE0
FFC0
7FC0
7FC0
7FC0
3F00
3C00
3E40
3FC0
3FC0
3F00
1E00
1FF0
1FF8
1FF8
1FF8
1FF8
1FE0
0E00
0000
0180
01C0
0180
ENDCHAR
STARTCHAR 1EC7
ENCODING 7879
SWIDTH 468 0
DWIDTH 13 0
BBX 13 28 0 -4
BITMAP
1C00
3F00
7F80
F300
0000
7FE0
FFC0
7FC0
7FC0
7FC0
3F00
3C00
3E40
3FC0
3FC0
3F00
1E00
1FF0
1FF8
1FF8
1FF8
1FF8
1FE0
0E00
0000
0180
01C0
0180
ENDCHAR
STARTCHAR 1EC8
ENCODING 7880
SWIDTH 324 0
DWIDTH 9 0
BBX 9 24 0 0
BITMAP
1F80
1B80
0780
0E00
0000
1E00
3F80
1F00
3F00
3F00
3F00
3F00
3F00
3F00
3F00
3F00
3F00
3F00
3F00
3F00
3F00
7E00
7E00
F000
ENDCHAR
STARTCHAR 1EC9
ENCODING 7881
SWIDTH 324 0
DWIDTH 9 0
BBX 9 24 0 0
BITMAP
1F80
1B80
0780
0E00
0000
1E00
3F80
1F00
3F00
3F00
3F00
3F00
3F00
3F00
3F00
3F00
3F00
3F00
3F00
3F00
3F00
7E00
7E00
F000
ENDCHAR
STARTCHAR 1ECA
ENCODING 7882
SWIDTH 324 0
DWIDTH 9 0
BBX 9 23 0 -4
BITMAP
1E00
3F80
1F00
3F00
3F00
3F00
3F00
3F00
3F00
3F00
3F00
3F00
3F00
3F00
3F00
3F00
7E00
7E00
F000
0000
1000
1C00
1800
ENDCHAR
STARTCHAR 1ECB
ENCODING 7883
SWIDTH 324 0
DWIDTH 9 0
BBX 9 23 0 -4
BITMAP
1E00
3F80
1F00
3F00
3F00
3F00
3F00
3F00
3F00
3F00
3F00
3F00
3F00
3F00
3F00
3F00
7E00
7E00
F000
0000
1000
1C00
1800
ENDCHAR
STARTCHAR 1ECC
ENCODING 7884
SWIDTH 504 0
DWIDTH 14 0
BBX 15 23 0 -4
BITMAP
0F00
1FC0
1FE0
3FF0
3FF8
7FF8
7FFC
7C7C
7C7C
FC7C
7C7E
7EFC
7FFC
7FFC
7FFC
3FFC
3FF8
1FF0
07E0
0000
0000
01C0
0180
ENDCHAR
STARTCHAR 1ECD
ENCODING 7885
SWIDTH 504 0
DWIDTH 14 0
BBX 15 23 0 -4
BITMAP
0F00
1FC0
1FE0
3FF0
3FF8
7FF8
7FFC
7C7C
7C7C
FC7C
7C7E
7EFC
7FFC
7FFC
7FFC
3FFC
3FF8
1FF0
07E0
0000
0000
01C0
0180
ENDCHAR
STARTCHAR 1ECE
ENCODING 7886
SWIDTH 504 0
DWIDTH 14 0
BBX 15 24 0 0
BITMAP
1F80
0380
0F80
0E00
0000
0F00
1FC0
1FE0
3FF0
3FF8
7FF8
7FFC
7C7C
7C7C
FC7C
7C7E
7EFC
7FFC
7FFC
7FFC
3FFC
3FF8
1FF0
07E0
ENDCHAR
STARTCHAR 1ECF
ENCODING 7887
SWIDTH 504 0
DWIDTH 14 0
BBX 15 24 0 0
BITMAP
1F80
0380
0F80
0E00
0000
0F00
1FC0
1FE0
3FF0
3FF8
7FF8
7FFC
7C7C
7C7C
FC7C
7C7E
7EFC
7FFC
7FFC
7FFC
3FFC
3FF8
1FF0
07E0
ENDCHAR
STARTCHAR 1ED0
ENCODING 7888
SWIDTH 504 0
DWIDTH 14 0
BBX 15 25 0 0
BITMAP
00F0
01E0
01C0
1F00
3F80
2180
0F00
1FC0
1FE0
3FF0
3FF8
7FF8
7FFC
7C7C
7C7C
FC7C
7C7E
7EFC
7FFC
7FFC
7FFC
3FFC
3FF8
1FF0
07E0
ENDCHAR
STARTCHAR 1ED1
ENCODING 7889
SWIDTH 504 0
DWIDTH 14 0
BBX 15 25 0 0
BITMAP
00F0
01E0
01C0
1F00
3F80
2180
0F00
1FC0
1FE0
3FF0
3FF8
7FF8
7FFC
7C7C
7C7C
FC7C
7C7E
7EFC
7FFC
7FFC
7FFC
3FFC
3FF8
1FF0
07E0
ENDCHAR
STARTCHAR 1ED2
ENCODING 7890
SWIDTH 504 0
DWIDTH 14 0
BBX 16 25 -1 0
BITMAP
F000
7800
3800
0F80
1FC0
10C0
0780
0FE0
0FF0
1FF8
1FFC
3FFC
3FFE
3E3E
3E3E
7E3E
3E3F
3F7E
3FFE
3FFE
3FFE
1FFE
1FFC
0FF8
03F0
ENDCHAR
STARTCHAR 1ED3
ENCODING 7891
SWIDTH 504 0
DWIDTH 14 0
BBX 16 25 -1 0
BITMAP
F000
7800
3800
0F80
1FC0
10C0
0780
0FE0
0FF0
1FF8
1FFC
3FFC
3FFE
3E3E
3E3E
7E3E
3E3F
3F7E
3FFE
3FFE
3FFE
1FFE
1FFC
0FF8
03F0
ENDCHAR
STARTCHAR 1ED4
ENCODING 7892
SWIDTH 504 0
DWIDTH 14 0
BBX 15 25 0 0
BITMAP
07F0
01F0
01C0
1F00
3F80
2180
0F00
1FC0
1FE0
3FF0
3FF8
7FF8
7FFC
7C7C
7C7C
FC7C
7C7E
7EFC
7FFC
7FFC
7FFC
3FFC
3FF8
1FF0
07E0
ENDCHAR
STARTCHAR 1ED5
ENCODING 7893
SWIDTH 504 0
DWIDTH 14 0
BBX 15 25 0 0
BITMAP
07F0
01F0
01C0
1F00
3F80
2180
0F00
1FC0
1FE0
3FF0
3FF8
7FF8
7FFC
7C7C
7C7C
FC7C
7C7E
7EFC
7FFC
7FFC
7FFC
3FFC
3FF8
1FF0
07E0
ENDCHAR
STARTCHAR 1ED6
ENCODING 7894
SWIDTH 504 0
DWIDTH 14 0
BBX 15 25 0 0
BITMAP
3DC0
7F80
0000
1F00
3F80
2180
0F00
1FC0
1FE0
3FF0
3FF8
7FF8
7FFC
7C7C
7C7C
FC7C
7C7E
7EFC
7FFC
7FFC
7FFC
3FFC
3FF8
1FF0
07E0
ENDCHAR
STARTCHAR 1ED7
ENCODING 7895
SWIDTH 504 0
DWIDTH 14 0
BBX 15 25 0 0
BITMAP
3DC0
7F80
0000
1F00
3F80
2180
0F00
1FC0
1FE0
3FF0
3FF8
7FF8
7FFC
7C7C
7C7C
FC7C
7C7E
7EFC
7FFC
7FFC
7FFC
3FFC
3FF8
1FF0
07E0
ENDCHAR
STARTCHAR 1ED8
ENCODING 7896
SWIDTH 504 0
DWIDTH 14 0
BBX 15 28 0 -4
BITMAP
0E00
1F00
3F80
73C0
0000
0F00
1FC0
1FE0
3FF0
3FF8
7FF8
7FFC
7C7C
7C7C
FC7C
7C7E
7EFC
7FFC
7FFC
7FFC
3FFC
3FF8
1FF0
07E0
0000
0000
01C0
0180
ENDCHAR
STARTCHAR 1ED9
ENCODING 7897
SWIDTH 504 0
DWIDTH 14 0
BBX 15 28 0 -4
BITMAP
0E00
1F00
3F80
73C0
0000
0F00
1FC0
1FE0
3FF0
3FF8
7FF8
7FFC
7C7C
7C7C
FC7C
7C7E
7EFC
7FFC
7FFC
7FFC
3FFC
3FF8
1FF0
07E0
0000
0000
01C0
0180
ENDCHAR
STARTCHAR 1EDA
ENCODING 7898
SWIDTH 540 0
DWIDTH 15 0
BBX 15 24 0 0
BITMAP
03C0
0380
0700
0700
000E
0F0E
1FCE
1FE6
3FF6
3FFE
7FFE
7FFC
7C7C
7C7C
FC7C
7C7E
7EFC
7FFC
7FFC
7FFC
3FFC
3FF8
1FF0
07E0
ENDCHAR
STARTCHAR 1EDB
ENCODING 7899
SWIDTH 540 0
DWIDTH 15 0
BBX 15 24 0 0
BITMAP
03C0
0380
0700
0700
000E
0F0E
1FCE
1FE6
3FF6
3FFE
7FFE
7FFC
7C7C
7C7C
FC7C
7C7E
7EFC
7FFC
7FFC
7FFC
3FFC
3FF8
1FF0
07E0
ENDCHAR
STARTCHAR 1EDC
ENCODING 7900
SWIDTH 540 0
DWIDTH 15 0
BBX 15 24 0 0
BITMAP
7000
7800
3C00
1C00
000E
0F0E
1FCE
1FE6
3FF6
3FFE
7FFE
7FFC
7C7C
7C7C
FC7C
7C7E
7EFC
7FFC
7FFC
7FFC
3FFC
3FF8
1FF0
07E0
ENDCHAR
STARTCHAR 1EDD
ENCODING 7901
SWIDTH 540 0
DWIDTH 15 0
BBX 15 24 0 0
BITMAP
7000
7800
3C00
1C00
000E
0F0E
1FCE
1FE6
3FF6
3FFE
7FFE
7FFC
7C7C
7C7C
FC7C
7C7E
7EFC
7FFC
7FFC
7FFC
3FFC
3FF8
1FF0
07E0
ENDCHAR
STARTCHAR 1EDE
ENCODING 7902
SWIDTH 540 0
DWIDTH 15 0
BBX 15 24 0 0
BITMAP
1F80
0380
0F80
0E00
000E
0F0E
1FCE
1FE6
3FF6
3FFE
7FFE
7FFC
7C7C
7C7C
FC7C
7C7E
7EFC
7FFC
7FFC
7FFC
3FFC
3FF8
1FF0
07E0
ENDCHAR
STARTCHAR 1EDF
ENCODING 7903
SWIDTH 540 0
DWIDTH 15 0
BBX 15 24 0 0
BITMAP
1F80
0380
0F80
0E00
000E
0F0E
1FCE
1FE6
3FF6
3FFE
7FFE
7FFC
7C7C
7C7C
FC7C
7C7E
7EFC
7FFC
7FFC
7FFC
3FFC
3FF8
1FF0
07E0
ENDCHAR
STARTCHAR 1EE0
ENCODING 7904
SWIDTH 540 0
DWIDTH 15 0
BBX 15 24 0 0
BITMAP
1380
3F80
7F80
7F00
400E
0F0E
1FCE
1FE6
3FF6
3FFE
7FFE
7FFC
7C7C
7C7C
FC7C
7C7E
7EFC
7FFC
7FFC
7FFC
3FFC
3FF8
1FF0
07E0
ENDCHAR
STARTCHAR 1EE1
ENCODING 7905
SWIDTH 540 0
DWIDTH 15 0
BBX 15 24 0 0
BITMAP
1380
3F80
7F80
7F00
400E
0F0E
1FCE
1FE6
3FF6
3FFE
7FFE
7FFC
7C7C
7C7C
FC7C
7C7E
7EFC
7FFC
7FFC
7FFC
3FFC
3FF8
1FF0
07E0
ENDCHAR
STARTCHAR 1EE2
ENCODING 7906
SWIDTH 540 0
DWIDTH 15 0
BBX 15 24 0 -4
BITMAP
000E
0F0E
1FCE
1FE6
3FF6
3FFE
7FFE
7FFC
7C7C
7C7C
FC7C
7C7E
7EFC
7FFC
7FFC
7FFC
3FFC
3FF8
1FF0
07E0
0000
0000
01C0
0180
ENDCHAR
STARTCHAR 1EE3
ENCODING 7907
SWIDTH 540 0
DWIDTH 15 0
BBX 15 24 0 -4
BITMAP
000E
0F0E
1FCE
1FE6
3FF6
3FFE
7FFE
7FFC
7C7C
7C7C
FC7C
7C7E
7EFC
7FFC
7FFC
7FFC
3FFC
3FF8
1FF0
07E0
0000
0000
01C0
0180
ENDCHAR
STARTCHAR 1EE4
ENCODING 7908
SWIDTH 540 0
DWIDTH 15 0
BBX 15 23 0 -4
BITMAP
3C3C
3C3E
3C1E
7C3E
7C3E
7C3E
7C3E
7C3E
7C3E
FC3E
7E7E
7FFC
7FFC
7FFC
7FF8
3FF0
3FF0
0FE0
0000
0000
0200
0700
0700
ENDCHAR
STARTCHAR 1EE5
ENCODING 7909
SWIDTH 540 0
DWIDTH 15 0
BBX 15 23 0 -4
BITMAP
3C3C
3C3E
3C1E
7C3E
7C3E
7C3E
7C3E
7C3E
7C3E
FC3E
7E7E
7FFC
7FFC
7FFC
7FF8
3FF0
3FF0
0FE0
0000
0000
0200
0700
0700
ENDCHAR
STARTCHAR 1EE6
ENCODING 7910
SWIDTH 540 0
DWIDTH 15 0
BBX 15 23 0 1
BITMAP
03F0
03F0
0070
01E0
0000
3C3C
3C3E
3C1E
7C3E
7C3E
7C3E
7C3E
7C3E
7C3E
FC3E
7E7E
7FFC
7FFC
7FFC
7FF8
3FF0
3FF0
0FE0
ENDCHAR
STARTCHAR 1EE7
ENCODING 7911
SWIDTH 540 0
DWIDTH 15 0
BBX 15 23 0 1
BITMAP
03F0
03F0
0070
01E0
0000
3C3C
3C3E
3C1E
7C3E
7C3E
7C3E
7C3E
7C3E
7C3E
FC3E
7E7E
7FFC
7FFC
7FFC
7FF8
3FF0
3FF0
0FE0
ENDCHAR
STARTCHAR 1EE8
ENCODING 7912
SWIDTH 576 0
DWIDTH 16 0
BBX 16 24 0 0
BITMAP
00F0
01E0
03C0
0380
0007
0033
78F3
7873
707B
787F
787F
787E
787C
787C
F87C
78FC
7FFC
7FF8
7FF8
3FF8
3FF0
1FF0
0FE0
0780
ENDCHAR
STARTCHAR 1EE9
ENCODING 7913
SWIDTH 576 0
DWIDTH 16 0
BBX 16 24 0 0
BITMAP
00F0
01E0
03C0
0380
0007
0033
78F3
7873
707B
787F
787F
787E
787C
787C
F87C
78FC
7FFC
7FF8
7FF8
3FF8
3FF0
1FF0
0FE0
0780
ENDCHAR
STARTCHAR 1EEA
ENCODING 7914
SWIDTH 576 0
DWIDTH 16 0
BBX 16 24 0 0
BITMAP
3C00
1E00
0E00
0700
0007
0033
78F3
7873
707B
787F
787F
787E
787C
787C
F87C
78FC
7FFC
7FF8
7FF8
3FF8
3FF0
1FF0
0FE0
0780
ENDCHAR
STARTCHAR 1EEB
ENCODING 7915
SWIDTH 576 0
DWIDTH 16 0
BBX 16 24 0 0
BITMAP
3C00
1E00
0E00
0700
0007
0033
78F3
7873
707B
787F
787F
787E
787C
787C
F87C
78FC
7FFC
7FF8
7FF8
3FF8
3FF0
1FF0
0FE0
0780
ENDCHAR
STARTCHAR 1EEC
ENCODING 7916
SWIDTH 576 0
DWIDTH 16 0
BBX 16 24 0 0
BITMAP
07C0
0FC0
01C0
0780
0007
0033
78F3
7873
707B
787F
787F
787E
787C
787C
F87C
78FC
7FFC
7FF8
7FF8
3FF8
3FF0
1FF0
0FE0
0780
ENDCHAR
STARTCHAR 1EED
ENCODING 7917
SWIDTH 576 0
DWIDTH 16 0
BBX 16 24 0 0
BITMAP
07C0
0FC0
01C0
0780
0007
0033
78F3
7873
707B
787F
787F
787E
787C
787C
F87C
78FC
7FFC
7FF8
7FF8
3FF8
3FF0
1FF0
0FE0
0780
ENDCHAR
STARTCHAR 1EEE
ENCODING 7918
SWIDTH 576 0
DWIDTH 16 0
BBX 16 24 0 0
BITMAP
0CE0
1FE0
1FC0
3BC0
0007
0033
78F3
7873
707B
787F
787F
787E
787C
787C
F87C
78FC
7FFC
7FF8
7FF8
3FF8
3FF0
1FF0
0FE0
0780
ENDCHAR
STARTCHAR 1EEF
ENCODING 7919
SWIDTH 576 0
DWIDTH 16 0
BBX 16 24 0 0
BITMAP
0CE0
1FE0
1FC0
3BC0
0007
0033
78F3
7873
707B
787F
787F
787E
787C
787C
F87C
78FC
7FFC
7FF8
7FF8
3FF8
3FF0
1FF0
0FE0
0780
ENDCHAR
STARTCHAR 1EF0
ENCODING 7920
SWIDTH 576 0
DWIDTH 16 0
BBX 16 24 0 -4
BITMAP
0007
0033
78F3
7873
707B
787F
787F
787E
787C
787C
F87C
78FC
7FFC
7FF8
7FF8
3FF8
3FF0
1FF0
0FE0
0780
0000
0080
01C0
01C0
ENDCHAR
STARTCHAR 1EF1
ENCODING 7921
SWIDTH 576 0
DWIDTH 16 0
BBX 16 24 0 -4
BITMAP
0007
0033
78F3
7873
707B
787F
787F
787E
787C
787C
F87C
78FC
7FFC
7FF8
7FF8
3FF8
3FF0
1FF0
0FE0
0780
0000
0080
01C0
01C0
ENDCHAR
STARTCHAR 1EF2
ENCODING 7922
SWIDTH 612 0
DWIDTH 17 0
BBX 16 24 1 0
BITMAP
1E00
0F00
0700
0380
0000
001F
F01E
F83E
F83C
FC7C
7C78
7EF8
3EF0
3FF0
1FE0
1FE0
0FC0
07C0
07C0
07C0
07C0
07C0
07C0
03C0
ENDCHAR
STARTCHAR 1EF3
ENCODING 7923
SWIDTH 612 0
DWIDTH 17 0
BBX 16 24 1 0
BITMAP
1E00
0F00
0700
0380
0000
001F
F01E
F83E
F83C
FC7C
7C78
7EF8
3EF0
3FF0
1FE0
1FE0
0FC0
07C0
07C0
07C0
07C0
07C0
07C0
03C0
ENDCHAR
STARTCHAR 1EF4
ENCODING 7924
SWIDTH 612 0
DWIDTH 17 0
BBX 16 23 1 -4
BITMAP
001F
F01E
F83E
F83C
FC7C
7C78
7EF8
3EF0
3FF0
1FE0
1FE0
0FC0
07C0
07C0
07C0
07C0
07C0
07C0
03C0
0000
0080
01C0
01C0
ENDCHAR
STARTCHAR 1EF5
ENCODING 7925
SWIDTH 612 0
DWIDTH 17 0
BBX 16 23 1 -4
BITMAP
001F
F01E
F83E
F83C
FC7C
7C78
7EF8
3EF0
3FF0
1FE0
1FE0
0FC0
07C0
07C0
07C0
07C0
07C0
07C0
03C0
0000
0080
01C0
01C0
ENDCHAR
STARTCHAR 1EF6
ENCODING 7926
SWIDTH 612 0
DWIDTH 17 0
BBX 16 24 1 0
BITMAP
07E0
06E0
01E0
0380
0000
001F
F01E
F83E
F83C
FC7C
7C78
7EF8
3EF0
3FF0
1FE0
1FE0
0FC0
07C0
07C0
07C0
07C0
07C0
07C0
03C0
ENDCHAR
STARTCHAR 1EF7
ENCODING 7927
SWIDTH 612 0
DWIDTH 17 0
BBX 16 24 1 0
BITMAP
07E0
06E0
01E0
0380
0000
001F
F01E
F83E
F83C
FC7C
7C78
7EF8
3EF0
3FF0
1FE0
1FE0
0FC0
07C0
07C0
07C0
07C0
07C0
07C0
03C0
ENDCHAR
STARTCHAR 1EF8
ENCODING 7928
SWIDTH 612 0
DWIDTH 17 0
BBX 16 24 1 0
BITMAP
0670
0FF0
0FF0
0DE0
0000
001F
F01E
F83E
F83C
FC7C
7C78
7EF8
3EF0
3FF0
1FE0
1FE0
0FC0
07C0
07C0
07C0
07C0
07C0
07C0
03C0
ENDCHAR
STARTCHAR 1EF9
ENCODING 7929
SWIDTH 612 0
DWIDTH 17 0
BBX 16 24 1 0
BITMAP
0670
0FF0
0FF0
0DE0
0000
001F
F01E
F83E
F83C
FC7C
7C78
7EF8
3EF0
3FF0
1FE0
1FE0
0FC0
07C0
07C0
07C0
07C0
07C0
07C0
03C0
ENDCHAR
STARTCHAR 1F70
ENCODING 8048
SWIDTH 612 0
DWIDTH 17 0
BBX 16 21 1 -1
BITMAP
7000
30C0
39C0
1BC0
03E0
03E0
07E0
07E0
07F0
0FF0
0FF0
1DF8
1CF8
38F8
3FFC
7FFC
7CFE
78FE
F87E
F87F
C000
ENDCHAR
STARTCHAR 1F72
ENCODING 8050
SWIDTH 612 0
DWIDTH 17 0
BBX 17 20 0 0
BITMAP
E00000
67FC00
7FFC00
3FFC00
07F800
07F800
07E800
07C000
07C800
03F800
03F800
03F000
03E000
03FF00
03FF00
03FF00
03FF80
01FF80
01FE00
01C000
ENDCHAR
STARTCHAR 1F74
ENCODING 8052
SWIDTH 612 0
DWIDTH 17 0
BBX 17 20 0 0
BITMAP
E00000
63C000
7FC780
3FCF80
07CF80
0FCF80
0FCF80
0FCF80
0FFF80
0FFF80
0FFF80
0FFF80
0FFF80
0FFF80
0F9F80
1F9F80
1F9F80
1F9F80
1F9F00
011800
ENDCHAR
STARTCHAR 1F76
ENCODING 8054
SWIDTH 396 0
DWIDTH 11 0
BBX 11 20 0 0
BITMAP
E000
6780
7FE0
3FC0
0FC0
0FC0
0FC0
0FC0
0FC0
0FC0
0FC0
1FC0
1FC0
1FC0
1FC0
1FC0
1FC0
1F80
1F80
3C00
ENDCHAR
STARTCHAR 1F78
ENCODING 8056
SWIDTH 576 0
DWIDTH 16 0
BBX 16 20 0 0
BITMAP
E000
6780
77E0
3FF0
0FF8
1FFC
1FFC
3FFE
3E3E
3E3F
3E3F
3E3F
3F3F
3FFF
3FFE
1FFE
1FFE
0FFE
07FC
03F0
ENDCHAR
STARTCHAR 1F7A
ENCODING 8058
SWIDTH 720 0
DWIDTH 20 0
BBX 20 20 0 0
BITMAP
E00000
6001F0
7701E0
3F83E0
0F83C0
0FC7C0
07C780
03EF80
03EF00
01FF00
01FE00
00FE00
00FC00
007C00
007C00
007C00
007C00
007C00
007C00
003C00
ENDCHAR
STARTCHAR 1F7C
ENCODING 8060
SWIDTH 648 0
DWIDTH 18 0
BBX 18 20 0 0
BITMAP
E00000
67FC00
7FFE00
3FFF00
1FFF80
1FFF80
1F0FC0
3F07C0
3E07C0
3E03C0
1E03C0
1E03C0
1E03C0
0F0780
0F0780
078F00
3F8FC0
3F8FC0
3F8FC0
3F8FC0
ENDCHAR
STARTCHAR 1FBA
ENCODING 8122
SWIDTH 612 0
DWIDTH 17 0
BBX 16 21 1 -1
BITMAP
7000
30C0
39C0
1BC0
03E0
03E0
07E0
07E0
07F0
0FF0
0FF0
1DF8
1CF8
38F8
3FFC
7FFC
7CFE
78FE
F87E
F87F
C000
ENDCHAR
STARTCHAR 1FC0
ENCODING 8128
SWIDTH 324 0
DWIDTH 9 0
BBX 9 4 0 20
BITMAP
3380
7F80
FF00
EF00
ENDCHAR
STARTCHAR 1FC6
ENCODING 8134
SWIDTH 540 0
DWIDTH 15 0
BBX 14 24 1 0
BITMAP
0338
07F8
0FF0
0EF0
0000
1E00
7E3C
7E7C
7E7C
7E7C
7E7C
7E7C
7FFC
7FFC
7FFC
7FFC
FFFC
FFFC
FCFC
FCFC
FCFC
FCF8
FCF8
1880
ENDCHAR
STARTCHAR 1FC8
ENCODING 8136
SWIDTH 612 0
DWIDTH 17 0
BBX 17 20 0 0
BITMAP
E00000
67FC00
7FFC00
3FFC00
07F800
07F800
07E800
07C000
07C800
03F800
03F800
03F000
03E000
03FF00
03FF00
03FF00
03FF80
01FF80
01FE00
01C000
ENDCHAR
STARTCHAR 1FCA
ENCODING 8138
SWIDTH 612 0
DWIDTH 17 0
BBX 17 20 0 0
BITMAP
E00000
63C000
7FC780
3FCF80
07CF80
0FCF80
0FCF80
0FCF80
0FFF80
0FFF80
0FFF80
0FFF80
0FFF80
0FFF80
0F9F80
1F9F80
1F9F80
1F9F80
1F9F00
011800
ENDCHAR
STARTCHAR 1FDA
ENCODING 8154
SWIDTH 396 0
DWIDTH 11 0
BBX 11 20 0 0
BITMAP
E000
6780
7FE0
3FC0
0FC0
0FC0
0FC0
0FC0
0FC0
0FC0
0FC0
1FC0
1FC0
1FC0
1FC0
1FC0
1FC0
1F80
1F80
3C00
ENDCHAR
STARTCHAR 1FEA
ENCODING 8170
SWIDTH 720 0
DWIDTH 20 0
BBX 20 20 0 0
BITMAP
E00000
6001F0
7701E0
3F83E0
0F83C0
0FC7C0
07C780
03EF80
03EF00
01FF00
01FE00
00FE00
00FC00
007C00
007C00
007C00
007C00
007C00
007C00
003C00
ENDCHAR
STARTCHAR 1FEF
ENCODING 8175
SWIDTH 144 0
DWIDTH 4 0
BBX 4 4 0 16
BITMAP
E0
70
30
30
ENDCHAR
STARTCHAR 1FF6
ENCODING 8182
SWIDTH 612 0
DWIDTH 17 0
BBX 17 24 0 0
BITMAP
067000
0FF000
0FF000
0DE000
000000
0FF000
3FFC00
3FFC00
7FFE00
7FFF00
7E3F00
7C1F00
780F00
780F00
780F00
780F00
780F00
3C0F00
3C1E00
1E3C00
FE3F80
FE3F80
FF3F80
FF3F80
ENDCHAR
STARTCHAR 1FF8
ENCODING 8184
SWIDTH 576 0
DWIDTH 16 0
BBX 16 20 0 0
BITMAP
E000
6780
77E0
3FF0
0FF8
1FFC
1FFC
3FFE
3E3E
3E3F
3E3F
3E3F
3F3F
3FFF
3FFE
1FFE
1FFE
0FFE
07FC
03F0
ENDCHAR
STARTCHAR 1FFA
ENCODING 8186
SWIDTH 648 0
DWIDTH 18 0
BBX 18 20 0 0
BITMAP
E00000
67FC00
7FFE00
3FFF00
1FFF80
1FFF80
1F0FC0
3F07C0
3E07C0
3E03C0
1E03C0
1E03C0
1E03C0
0F0780
0F0780
078F00
3F8FC0
3F8FC0
3F8FC0
3F8FC0
ENDCHAR
STARTCHAR 200B
ENCODING 8203
SWIDTH 0 0
DWIDTH 0 0
BBX 0 0 0 0
BITMAP
ENDCHAR
STARTCHAR 2010
ENCODING 8208
SWIDTH 288 0
DWIDTH 8 0
BBX 8 4 0 8
BITMAP
FF
FF
7F
7F
ENDCHAR
STARTCHAR 2011
ENCODING 8209
SWIDTH 360 0
DWIDTH 10 0
BBX 11 4 0 8
BITMAP
FFE0
FFE0
FFE0
FFE0
ENDCHAR
STARTCHAR 2012
ENCODING 8210
SWIDTH 468 0
DWIDTH 13 0
BBX 13 4 0 8
BITMAP
7FF8
7FF8
7FF8
FFF8
ENDCHAR
STARTCHAR 2013
ENCODING 8211
SWIDTH 468 0
DWIDTH 13 0
BBX 13 4 0 8
BITMAP
7FF8
FFF8
FFF8
FFF8
ENDCHAR
STARTCHAR 2014
ENCODING 8212
SWIDTH 576 0
DWIDTH 16 0
BBX 15 5 1 7
BITMAP
FFFE
FFFE
FFFE
FFFE
1000
ENDCHAR
STARTCHAR 2015
ENCODING 8213
SWIDTH 684 0
DWIDTH 19 0
BBX 19 4 0 8
BITMAP
7FFFE0
FFFFE0
FFFFE0
7FFFE0
ENDCHAR
STARTCHAR 2016
ENCODING 8214
SWIDTH 252 0
DWIDTH 7 0
BBX 7 28 0 -4
BITMAP
6C
6E
6E
6E
6E
6E
6E
6E
6E
6E
6E
6E
6E
6E
6E
6E
6E
6E
6E
6E
6E
EE
EE
EE
6E
6E
6E
6E
ENDCHAR
STARTCHAR 2017
ENCODING 8215
SWIDTH 360 0
DWIDTH 10 0
BBX 10 6 0 -5
BITMAP
7FC0
FFC0
0000
FFC0
7FC0
7FC0
ENDCHAR
STARTCHAR 2018
ENCODING 8216
SWIDTH 180 0
DWIDTH 5 0
BBX 5 10 0 10
BITMAP
38
38
78
78
78
78
F8
F8
78
70
ENDCHAR
STARTCHAR 2019
ENCODING 8217
SWIDTH 180 0
DWIDTH 5 0
BBX 5 10 0 10
BITMAP
78
78
78
78
78
78
78
F0
70
20
ENDCHAR
STARTCHAR 201A
ENCODING 8218
SWIDTH 180 0
DWIDTH 5 0
BBX 4 10 1 -5
BITMAP
F0
F0
F0
F0
F0
F0
F0
E0
E0
40
ENDCHAR
STARTCHAR 201B
ENCODING 8219
SWIDTH 180 0
DWIDTH 5 0
BBX 5 10 0 10
BITMAP
78
F8
F8
78
78
78
78
38
38
10
ENDCHAR
STARTCHAR 201C
ENCODING 8220
SWIDTH 396 0
DWIDTH 11 0
BBX 11 10 0 10
BITMAP
38C0
39C0
79E0
7BC0
7BC0
7BC0
FBC0
FBC0
7BC0
73C0
ENDCHAR
STARTCHAR 201D
ENCODING 8221
SWIDTH 396 0
DWIDTH 11 0
BBX 11 10 0 10
BITMAP
7BC0
7BE0
7BE0
7BE0
7BC0
7BC0
7BC0
F380
7380
2100
ENDCHAR
STARTCHAR 201E
ENCODING 8222
SWIDTH 396 0
DWIDTH 11 0
BBX 10 10 1 -5
BITMAP
F780
F7C0
F7C0
F7C0
F780
F780
F780
E700
E700
4200
ENDCHAR
STARTCHAR 201F
ENCODING 8223
SWIDTH 396 0
DWIDTH 11 0
BBX 11 10 0 10
BITMAP
7BC0
FBC0
FBC0
7BC0
7BC0
7BC0
7BC0
39E0
39C0
1080
ENDCHAR
STARTCHAR 2020
ENCODING 8224
SWIDTH 468 0
DWIDTH 13 0
BBX 13 27 0 -4
BITMAP
0780
0780
0780
0780
07F8
7FF8
7FF8
FFF8
0780
0780
0780
0780
0780
0780
0780
0780
0780
0780
0780
0780
0780
0780
0780
0780
0780
0780
0380
ENDCHAR
STARTCHAR 2021
ENCODING 8225
SWIDTH 468 0
DWIDTH 13 0
BBX 13 27 0 -4
BITMAP
0780
0780
0780
0780
7FF8
7FF8
7FF8
7FF8
0780
0780
0780
0780
0780
0780
0780
0780
0780
0780
0FF8
FFF8
FFF8
7FF8
0780
0780
0780
0780
0780
ENDCHAR
STARTCHAR 2022
ENCODING 8226
SWIDTH 288 0
DWIDTH 8 0
BBX 8 8 0 6
BITMAP
08
3E
7E
FF
FF
7F
7E
3C
ENDCHAR
STARTCHAR 2023
ENCODING 8227
SWIDTH 288 0
DWIDTH 8 0
BBX 8 7 0 7
BITMAP
F0
FC
7F
7F
FE
F8
E0
ENDCHAR
STARTCHAR 2024
ENCODING 8228
SWIDTH 180 0
DWIDTH 5 0
BBX 5 5 0 0
BITMAP
70
78
F8
78
78
ENDCHAR
STARTCHAR 2025
ENCODING 8229
SWIDTH 360 0
DWIDTH 10 0
BBX 10 5 0 0
BITMAP
31C0
7BC0
FBC0
7BC0
71C0
ENDCHAR
STARTCHAR 2026
ENCODING 8230
SWIDTH 576 0
DWIDTH 16 0
BBX 16 5 0 0
BITMAP
718E
7BCF
FBDF
7BDF
71CE
ENDCHAR
STARTCHAR 2027
ENCODING 8231
SWIDTH 180 0
DWIDTH 5 0
BBX 5 5 0 7
BITMAP
78
78
F8
78
30
ENDCHAR
STARTCHAR 202F
ENCODING 8239
SWIDTH 144 0
DWIDTH 4 0
BBX 0 0 0 0
BITMAP
ENDCHAR
STARTCHAR 2030
ENCODING 8240
SWIDTH 612 0
DWIDTH 17 0
BBX 17 19 0 0
BITMAP
101C00
3C1C00
7E3800
663800
E67000
66F000
7EE000
7DE000
11C000
039300
07FF80
077F80
0F6D80
0E6C80
1C6D80
3C7F80
383F00
700000
300000
ENDCHAR
STARTCHAR 2031
ENCODING 8241
SWIDTH 720 0
DWIDTH 20 0
BBX 20 19 0 0
BITMAP
101C00
3C1C00
7E3800
663800
E67000
66F000
7EE000
7DE000
11C000
03B640
07FFE0
077FE0
0F4DB0
0E4DB0
1C7DB0
3C7FE0
3837E0
700000
300000
ENDCHAR
STARTCHAR 2039
ENCODING 8249
SWIDTH 252 0
DWIDTH 7 0
BBX 7 12 0 0
BITMAP
02
0E
1C
3C
7C
78
E0
F8
7E
3E
0E
06
ENDCHAR
STARTCHAR 203A
ENCODING 8250
SWIDTH 252 0
DWIDTH 7 0
BBX 7 11 0 1
BITMAP
C0
E0
F8
7C
3E
0E
3C
7C
78
70
60
ENDCHAR
STARTCHAR 203C
ENCODING 8252
SWIDTH 468 0
DWIDTH 13 0
BBX 13 21 0 -1
BITMAP
0078
FDF8
FDF8
7DF8
7DF0
7DF0
78F0
78F0
78F0
78F0
78F0
78F0
78F0
38F0
3000
0000
1070
38F0
78F0
38F0
3870
ENDCHAR
STARTCHAR 203E
ENCODING 8254
SWIDTH 360 0
DWIDTH 10 0
BBX 10 3 0 19
BITMAP
7FC0
7FC0
FFC0
ENDCHAR
STARTCHAR 2043
ENCODING 8259
SWIDTH 288 0
DWIDTH 8 0
BBX 8 4 0 8
BITMAP
FF
FF
FF
7F
ENDCHAR
STARTCHAR 2044
ENCODING 8260
SWIDTH 396 0
DWIDTH 11 0
BBX 11 20 0 0
BITMAP
01E0
03E0
03E0
03C0
07C0
07C0
0780
0F80
0F80
0F00
0F00
1E00
1E00
1E00
3C00
3C00
7800
7800
7000
F000
ENDCHAR
STARTCHAR 2045
ENCODING 8261
SWIDTH 324 0
DWIDTH 9 0
BBX 9 26 0 -3
BITMAP
7F80
7F80
7F80
7800
7800
7800
7800
7800
7800
7800
7800
7F80
7F80
7F80
7800
7800
7800
7800
7800
7800
F800
F800
7F80
FF80
FF80
7F80
ENDCHAR
STARTCHAR 2046
ENCODING 8262
SWIDTH 324 0
DWIDTH 9 0
BBX 9 27 0 -4
BITMAP
0300
FF80
7F80
FF80
6780
0780
0780
0780
0780
0780
0780
0780
7F80
FF80
FF80
0780
0780
0780
0780
0780
0780
0780
0780
7F80
FF80
FF80
7F80
ENDCHAR
STARTCHAR 2047
ENCODING 8263
SWIDTH 684 0
DWIDTH 19 0
BBX 19 20 0 0
BITMAP
3C0F80
7F1FC0
7F9FE0
7FBFE0
F7B9E0
6390E0
0380E0
0381E0
0783C0
1F07C0
1E0F80
1C0F00
1C0E00
1C0E00
000000
000000
1C0E00
3C0F00
3C0F00
1C0600
ENDCHAR
STARTCHAR 2048
ENCODING 8264
SWIDTH 576 0
DWIDTH 16 0
BBX 16 21 0 0
BITMAP
000F
3C3F
7F3F
7FBF
7FBE
F7BE
639E
039E
039E
079E
1F1E
1E1E
1C1E
1C1E
1C00
0000
000C
1C1E
3C1E
3C1E
1C0E
ENDCHAR
STARTCHAR 2049
ENCODING 8265
SWIDTH 576 0
DWIDTH 16 0
BBX 16 20 0 -1
BITMAP
FC7C
FCFE
7CFF
7DFF
7DCF
7887
7807
780F
781E
783E
787C
7878
3870
3070
0000
1000
3870
7878
3878
3830
ENDCHAR
STARTCHAR 204B
ENCODING 8267
SWIDTH 396 0
DWIDTH 11 0
BBX 11 22 0 -2
BITMAP
7E00
7F80
7FC0
7FC0
67E0
67C0
67C0
67C0
67C0
E7C0
67C0
6780
6700
6600
EE00
E600
6E00
6E00
6E00
6E00
6E00
6600
ENDCHAR
STARTCHAR 204F
ENCODING 8271
SWIDTH 180 0
DWIDTH 5 0
BBX 7 18 0 -5
BITMAP
30
78
F8
F8
78
00
00
00
00
70
78
F8
F8
78
30
3C
1E
18
ENDCHAR
STARTCHAR 2052
ENCODING 8274
SWIDTH 468 0
DWIDTH 13 0
BBX 13 19 0 0
BITMAP
0038
0038
3070
7870
F8E0
78E0
71C0
03C0
0380
0700
0700
0E70
1E78
1C78
3878
3878
7000
E000
6000
ENDCHAR
STARTCHAR 2070
ENCODING 8304
SWIDTH 216 0
DWIDTH 6 0
BBX 6 10 0 10
BITMAP
20
70
78
78
EC
CC
7C
78
78
38
ENDCHAR
STARTCHAR 2074
ENCODING 8308
SWIDTH 216 0
DWIDTH 6 0
BBX 5 10 1 9
BITMAP
60
60
C0
C0
F8
F8
30
30
70
70
ENDCHAR
STARTCHAR 2075
ENCODING 8309
SWIDTH 252 0
DWIDTH 7 0
BBX 6 9 1 9
BITMAP
78
70
60
F0
38
1C
1C
98
F8
ENDCHAR
STARTCHAR 2076
ENCODING 8310
SWIDTH 252 0
DWIDTH 7 0
BBX 7 10 0 9
BITMAP
1C
3C
60
60
FC
EE
66
66
7C
18
ENDCHAR
STARTCHAR 2077
ENCODING 8311
SWIDTH 216 0
DWIDTH 6 0
BBX 6 9 0 10
BITMAP
7C
7C
FC
1C
18
38
78
78
70
ENDCHAR
STARTCHAR 2078
ENCODING 8312
SWIDTH 252 0
DWIDTH 7 0
BBX 7 10 0 10
BITMAP
10
38
6C
38
7C
6C
E6
66
7E
3C
ENDCHAR
STARTCHAR 2079
ENCODING 8313
SWIDTH 216 0
DWIDTH 6 0
BBX 6 10 0 9
BITMAP
78
7C
6C
EC
7C
3C
0C
5C
7C
10
ENDCHAR
STARTCHAR 2080
ENCODING 8320
SWIDTH 216 0
DWIDTH 6 0
BBX 6 10 0 0
BITMAP
20
70
78
78
CC
EC
7C
78
78
38
ENDCHAR
STARTCHAR 2081
ENCODING 8321
SWIDTH 216 0
DWIDTH 6 0
BBX 5 9 1 1
BITMAP
30
F0
F0
30
30
70
70
78
78
ENDCHAR
STARTCHAR 2082
ENCODING 8322
SWIDTH 252 0
DWIDTH 7 0
BBX 6 10 1 0
BITMAP
60
F8
F8
98
30
30
7C
7C
FC
70
ENDCHAR
STARTCHAR 2083
ENCODING 8323
SWIDTH 252 0
DWIDTH 7 0
BBX 7 9 0 0
BITMAP
78
10
30
7C
2C
04
06
FC
38
ENDCHAR
STARTCHAR 2084
ENCODING 8324
SWIDTH 216 0
DWIDTH 6 0
BBX 6 9 0 0
BITMAP
30
60
60
7C
7C
D8
18
18
38
ENDCHAR
STARTCHAR 2085
ENCODING 8325
SWIDTH 252 0
DWIDTH 7 0
BBX 7 9 0 1
BITMAP
3C
30
78
7C
0C
0E
8E
7C
7C
ENDCHAR
STARTCHAR 2086
ENCODING 8326
SWIDTH 252 0
DWIDTH 7 0
BBX 7 10 0 -1
BITMAP
1C
3C
60
70
FC
EE
66
6E
7C
18
ENDCHAR
STARTCHAR 2087
ENCODING 8327
SWIDTH 216 0
DWIDTH 6 0
BBX 6 9 0 1
BITMAP
7C
7C
FC
1C
18
38
38
78
70
ENDCHAR
STARTCHAR 2088
ENCODING 8328
SWIDTH 252 0
DWIDTH 7 0
BBX 7 10 0 0
BITMAP
10
78
6C
38
7C
6C
E6
66
7E
3C
ENDCHAR
STARTCHAR 2089
ENCODING 8329
SWIDTH 216 0
DWIDTH 6 0
BBX 6 9 0 0
BITMAP
7C
6C
EC
7C
3C
04
4C
7C
38
ENDCHAR
STARTCHAR 20A0
ENCODING 8352
SWIDTH 540 0
DWIDTH 15 0
BBX 15 19 0 0
BITMAP
0F80
3FE0
7FC0
7E00
F800
F1F8
F1FE
71FC
F9FC
79C0
7FF8
3FF8
1FF8
0FC0
01C0
01FE
01FE
01FE
0180
ENDCHAR
STARTCHAR 20A4
ENCODING 8356
SWIDTH 540 0
DWIDTH 15 0
BBX 15 19 0 0
BITMAP
01E0
03F8
07FC
0FFC
0FBE
0FBE
1F80
7FF0
FFF0
FFF8
1F00
7FF8
7FF8
1F70
7FC0
7FFE
7FFE
7FFC
1FFC
ENDCHAR
STARTCHAR 20A6
ENCODING 8358
SWIDTH 504 0
DWIDTH 14 0
BBX 13 19 1 0
BITMAP
39C0
39E0
39E0
3FF0
FFF0
FFF8
7DE0
7EE0
7FE0
7FE0
7FE0
7BE0
FFF8
FFF8
FFF8
79E0
79E0
79E0
7880
ENDCHAR
STARTCHAR 20A7
ENCODING 8359
SWIDTH 684 0
DWIDTH 19 0
BBX 19 19 0 0
BITMAP
380000
7E0000
7E0000
7F0000
770000
730800
73FDE0
73FFE0
7FFFE0
7FFFA0
7EFF80
7C33C0
F871E0
F87060
F873E0
F873E0
F873E0
F873E0
F873C0
ENDCHAR
STARTCHAR 20A8
ENCODING 8360
SWIDTH 612 0
DWIDTH 17 0
BBX 17 20 0 0
BITMAP
180000
7F0000
FF8000
FFC000
F1C000
F1C000
F1C400
F3DF00
7FBF80
7FBF80
7E3C00
7F3C00
7F1F00
F78F00
F78380
F7BF80
73FF80
7BFF00
7BFF00
71BE00
ENDCHAR
STARTCHAR 20A9
ENCODING 8361
SWIDTH 684 0
DWIDTH 19 0
BBX 18 20 1 0
BITMAP
080000
38C700
38CF00
FFFFC0
FFFFC0
FFFFC0
FFFFC0
3DDF00
1FFE00
FFFFC0
FFFFC0
FFFFC0
7F7C00
1F7C00
0F7800
0F3800
0E3800
0E3800
0E3000
063000
ENDCHAR
STARTCHAR 20AA
ENCODING 8362
SWIDTH 612 0
DWIDTH 17 0
BBX 17 19 0 0
BITMAP
1F8780
7FE780
7FF780
7FF780
78F780
707780
707780
707780
F77780
F77780
F77780
F70780
F70780
F70780
F78F80
73FF00
73FF00
71FF00
707800
ENDCHAR
STARTCHAR 20AB
ENCODING 8363
SWIDTH 468 0
DWIDTH 13 0
BBX 13 20 0 0
BITMAP
01E0
01E0
1FF8
1FF8
1FE0
01E0
3FE0
7FE0
7FE0
F1E0
71E0
71E0
7DE0
3FE0
3FE0
0FC0
0000
7FF8
7FF8
7FF8
ENDCHAR
STARTCHAR 20AC
ENCODING 8364
SWIDTH 540 0
DWIDTH 15 0
BBX 15 21 0 -1
BITMAP
0078
03FE
07FE
0FFE
0FFE
0FC2
1F80
7FF8
7FF8
7FF8
7F00
7FF8
7FF8
7FF8
FFF8
1F80
0FFE
0FFE
07FE
01FE
0030
ENDCHAR
STARTCHAR 20AD
ENCODING 8365
SWIDTH 540 0
DWIDTH 15 0
BBX 15 19 0 0
BITMAP
3E30
1E78
1EFC
1EF8
1FF0
1FE0
3FE0
3FC0
FFFE
FFFE
FFFE
3FC0
3FE0
3FF0
3EF8
3EF8
3E7C
3E7C
1C20
ENDCHAR
STARTCHAR 20AE
ENCODING 8366
SWIDTH 468 0
DWIDTH 13 0
BBX 13 19 0 0
BITMAP
7FF8
FFF8
FFF8
FFF8
0F00
0F80
0FF0
3FF0
3F80
3F80
0FE0
0FF0
7FE0
3F80
0780
0F80
0780
0780
0700
ENDCHAR
STARTCHAR 20B2
ENCODING 8370
SWIDTH 504 0
DWIDTH 14 0
BBX 14 26 0 -3
BITMAP
0600
0780
0780
0780
07E0
0FF0
0FF8
1FF8
3FB0
3F80
3F80
7780
77FC
77F8
77F8
77F8
7FB8
FFF8
FFF8
7FF8
7FE0
3F80
0F80
0780
0780
0780
ENDCHAR
STARTCHAR 20B4
ENCODING 8372
SWIDTH 468 0
DWIDTH 13 0
BBX 13 20 0 0
BITMAP
0600
1FC0
3FE0
3FF0
3FF0
39F0
00F0
7FF8
7FF8
7FF8
1F80
7FF8
7FF8
FFF8
1E00
1FF0
1FF0
0FF0
0FF0
07F0
ENDCHAR
STARTCHAR 20B5
ENCODING 8373
SWIDTH 468 0
DWIDTH 13 0
BBX 13 25 0 -3
BITMAP
0100
03C0
03C0
03C0
0FF0
1FF8
3FF8
7FF8
7FF8
7FC0
FBC0
FBC0
FBC0
FBC0
7FC8
7FF8
7FF8
7FF8
3FF8
1FF8
0FF0
03C0
03C0
03C0
0200
ENDCHAR
STARTCHAR 20B8
ENCODING 8376
SWIDTH 396 0
DWIDTH 11 0
BBX 11 20 0 0
BITMAP
7FE0
7FE0
7FE0
7FE0
1180
0000
7FE0
FFE0
7FE0
7FE0
7F00
0F00
0F00
0F00
0F00
0F00
0F00
0F00
0F00
0F00
ENDCHAR
STARTCHAR 20B9
ENCODING 8377
SWIDTH 540 0
DWIDTH 15 0
BBX 15 19 0 0
BITMAP
FFFE
FFFC
3FFC
01E0
7FFE
7FFE
7FFC
01E0
7FE0
7FC0
7F80
0F00
0F80
0780
07C0
03C0
01E0
01F0
00F0
ENDCHAR
STARTCHAR 20BA
ENCODING 8378
SWIDTH 540 0
DWIDTH 15 0
BBX 15 19 0 0
BITMAP
0F00
1F00
1F40
1FE0
FFE0
7F00
5F00
1FE0
3FE0
7F80
7F1E
1F1E
1F1E
1F1E
0FBE
0FFE
07FC
03F8
01E0
ENDCHAR
STARTCHAR 20BD
ENCODING 8381
SWIDTH 468 0
DWIDTH 13 0
BBX 13 19 0 1
BITMAP
3FC0
3FE0
3FF0
3FF0
3C70
3C78
3C78
3EF8
FFF8
7FF0
7FE0
3C00
3C00
FFF0
FFF0
FFF0
3C00
3C00
3C00
ENDCHAR
STARTCHAR 20BF
ENCODING 8383
SWIDTH 504 0
DWIDTH 14 0
BBX 15 25 0 -3
BITMAP
1E70
1E70
1E70
7FF0
7FF0
7FF0
7FF8
1EF8
1E38
1E38
1E78
1FF0
1FE0
1FF8
1FFC
1F3C
1F3C
1F7E
FFFC
FFFC
FFF0
FFF0
1CF0
1CF0
1CF0
ENDCHAR
STARTCHAR 20C0
ENCODING 8384
SWIDTH 504 0
DWIDTH 14 0
BBX 13 19 0 0
BITMAP
07F0
1FF8
3FF8
7FF8
7C00
7800
7800
7800
7800
7EF8
3FF8
3FF8
1FF8
0FF0
0180
07F0
FFF8
7FF8
7FF8
ENDCHAR
STARTCHAR 2116
ENCODING 8470
SWIDTH 648 0
DWIDTH 18 0
BBX 18 19 0 0
BITMAP
38C000
39E000
79E000
79C000
79C000
7DC000
7DC700
7DCF80
7DDFC0
7FD8C0
7FD8C0
77DDC0
77CF80
73CF80
73C200
73DFC0
73DFC0
F3DFC0
F18000
ENDCHAR
STARTCHAR 2117
ENCODING 8471
SWIDTH 648 0
DWIDTH 18 0
BBX 18 18 0 1
BITMAP
00C000
0FFC00
1FFF00
3E1F00
780780
79F380
71F9C0
F1D9C0
F1D9C0
E1F9C0
61C1C0
71C1C0
71C3C0
31C380
3C0780
1FFF00
0FFE00
03FC00
ENDCHAR
STARTCHAR 2120
ENCODING 8480
SWIDTH 612 0
DWIDTH 17 0
BBX 17 10 0 9
BITMAP
3F2100
7E2300
7E7300
747F00
787F00
1E7F80
067380
FE6380
7E6380
108000
ENDCHAR
STARTCHAR 2122
ENCODING 8482
SWIDTH 612 0
DWIDTH 17 0
BBX 17 10 0 9
BITMAP
7F2100
7F2300
FF7300
1C7F00
187F00
187F80
187380
186380
186380
108000
ENDCHAR
STARTCHAR 2139
ENCODING 8505
SWIDTH 720 0
DWIDTH 20 0
BBX 20 20 0 0
BITMAP
0001C0
7FFFF0
7FFFF0
7F8FF0
7F0FF0
7F0FF0
7F0FF0
7FFFF0
7FFFF0
780FF0
780FF0
7D8FF0
7F8FF0
7F8FF0
7F0FF0
7801F0
F801F0
FFFFF0
FFFFF0
7FFFF0
ENDCHAR
STARTCHAR 2150
ENCODING 8528
SWIDTH 540 0
DWIDTH 15 0
BBX 14 19 1 0
BITMAP
3038
F038
F070
3070
30E0
71E0
71C0
7BC0
7B80
073C
0F7C
0E7C
1E0C
1C1C
381C
7838
7038
E078
6000
ENDCHAR
STARTCHAR 2151
ENCODING 8529
SWIDTH 540 0
DWIDTH 15 0
BBX 14 19 1 0
BITMAP
3038
F038
F070
3070
30E0
71E0
71C0
7BC0
7B80
0700
0F7C
0ECC
1ECC
1CFC
387C
780C
704C
E07C
6038
ENDCHAR
STARTCHAR 2152
ENCODING 8530
SWIDTH 720 0
DWIDTH 20 0
BBX 19 19 1 0
BITMAP
303800
F03800
F07000
307000
30E000
71E000
71C000
7BC000
7B8000
073100
0F7380
0EF3C0
1E33C0
1C3660
383E60
787BC0
707BC0
E07BC0
6001C0
ENDCHAR
STARTCHAR 2153
ENCODING 8531
SWIDTH 540 0
DWIDTH 15 0
BBX 14 19 1 0
BITMAP
3038
F038
F070
3070
30E0
71E0
71C0
7BC0
7B80
0700
0F70
0E30
1E30
1C7C
381C
7804
700C
E0FC
6038
ENDCHAR
STARTCHAR 2154
ENCODING 8532
SWIDTH 540 0
DWIDTH 15 0
BBX 15 19 0 0
BITMAP
781C
FC1C
4C38
0838
1870
1EF0
3EE0
3FE0
7DC0
0380
07B8
0718
0F18
0E3E
1C0E
3C02
3806
707E
301C
ENDCHAR
STARTCHAR 2155
ENCODING 8533
SWIDTH 540 0
DWIDTH 15 0
BBX 14 19 1 0
BITMAP
3038
F038
F070
3070
30E0
71E0
71C0
7BC0
7B80
0700
0F7C
0E60
1E70
1C78
381C
780C
700C
E0FC
6078
ENDCHAR
STARTCHAR 2156
ENCODING 8534
SWIDTH 540 0
DWIDTH 15 0
BBX 15 19 0 0
BITMAP
781C
FC1C
4C38
0838
1870
1EF0
3EE0
3FE0
7DC0
0380
07BE
0730
0F38
0E3C
1C0E
3C06
3806
707E
303C
ENDCHAR
STARTCHAR 2157
ENCODING 8535
SWIDTH 540 0
DWIDTH 15 0
BBX 15 19 0 0
BITMAP
701C
701C
3038
3838
7C70
0CF0
06E0
8DE0
7DC0
1380
07BE
0730
0F38
0E3C
1C0E
3C06
3806
707E
303C
ENDCHAR
STARTCHAR 2158
ENCODING 8536
SWIDTH 540 0
DWIDTH 15 0
BBX 14 19 1 0
BITMAP
6038
6038
C070
C070
F8E0
F9E0
31C0
33C0
7380
7700
0F7C
0E60
1E70
1C78
381C
780C
700C
E0FC
6078
ENDCHAR
STARTCHAR 2159
ENCODING 8537
SWIDTH 540 0
DWIDTH 15 0
BBX 14 20 1 -1
BITMAP
3038
F038
F070
3070
30E0
71E0
71C0
7BC0
7B80
0700
0F3C
0E78
1E40
1CF0
38F8
78CC
70CC
E0CC
607C
0030
ENDCHAR
STARTCHAR 215A
ENCODING 8538
SWIDTH 540 0
DWIDTH 15 0
BBX 14 20 1 -1
BITMAP
7838
7038
6070
F070
38E0
1DE0
1DC0
9BC0
FB80
0700
0F3C
0E78
1E40
1CF0
38F8
78CC
70CC
E0CC
607C
0030
ENDCHAR
STARTCHAR 215B
ENCODING 8539
SWIDTH 540 0
DWIDTH 15 0
BBX 14 19 1 0
BITMAP
3038
F038
F070
3070
30E0
71E0
71C0
7BC0
7B80
0730
0F78
0E78
1E70
1C78
38DC
78CC
70EC
E0FC
6078
ENDCHAR
STARTCHAR 215C
ENCODING 8540
SWIDTH 540 0
DWIDTH 15 0
BBX 15 19 0 0
BITMAP
701C
701C
3038
3838
7C70
0CF0
06E0
8DE0
7DC0
1398
07BC
073C
0F38
0E3C
1C6E
3C66
3876
707E
303C
ENDCHAR
STARTCHAR 215D
ENCODING 8541
SWIDTH 540 0
DWIDTH 15 0
BBX 14 19 1 0
BITMAP
7838
7038
6070
F070
38E0
1DE0
1DC0
9BC0
FB80
0730
0F78
0E78
1E70
1C78
38DC
78CC
70EC
E0FC
6078
ENDCHAR
STARTCHAR 215E
ENCODING 8542
SWIDTH 540 0
DWIDTH 15 0
BBX 15 19 0 0
BITMAP
7C1C
7C1C
FC38
1C38
1870
38F0
78E0
79E0
71C0
0398
07BC
073C
0F38
0E3C
1C6E
3C66
3876
707E
303C
ENDCHAR
STARTCHAR 215F
ENCODING 8543
SWIDTH 540 0
DWIDTH 15 0
BBX 13 19 1 0
BITMAP
3038
F038
F070
3070
30E0
71E0
71C0
7BC0
7B80
0700
0F00
0E00
1E00
1C00
3800
7800
7000
E000
6000
ENDCHAR
STARTCHAR 2189
ENCODING 8585
SWIDTH 540 0
DWIDTH 15 0
BBX 15 20 0 0
BITMAP
2000
701C
781C
7838
EC38
CC70
7CF0
78E0
79E0
39C0
0380
07B8
0718
0F18
0E3E
1C0E
3C02
3806
707E
301C
ENDCHAR
STARTCHAR 2190
ENCODING 8592
SWIDTH 684 0
DWIDTH 19 0
BBX 19 15 0 3
BITMAP
018000
038000
078000
1F8000
3F8000
7FFFC0
FFFFE0
FFFFE0
7FFFE0
3F2700
1F0000
0F0000
070000
038000
008000
ENDCHAR
STARTCHAR 2191
ENCODING 8593
SWIDTH 684 0
DWIDTH 19 0
BBX 15 18 2 0
BITMAP
01C0
03C0
07E0
0FF0
1FF8
3FFC
7FFE
FFFE
03C0
03C0
07C0
03C0
07C0
07C0
03C0
03C0
03C0
03C0
ENDCHAR
STARTCHAR 2192
ENCODING 8594
SWIDTH 684 0
DWIDTH 19 0
BBX 19 15 0 3
BITMAP
001000
001C00
001E00
001F00
001F80
7FFFC0
7FFFE0
7FFFE0
FFFFE0
001FC0
001F80
001E00
001C00
001800
001000
ENDCHAR
STARTCHAR 2193
ENCODING 8595
SWIDTH 684 0
DWIDTH 19 0
BBX 16 19 2 0
BITMAP
03C0
03C0
03C0
03C0
03C0
03C0
03C0
03C0
03C0
03C0
7BC7
FFFE
7FFC
3FF8
1FF0
0FE0
07C0
0380
0300
ENDCHAR
STARTCHAR 2194
ENCODING 8596
SWIDTH 684 0
DWIDTH 19 0
BBX 19 15 0 3
BITMAP
040400
0C0600
1C0700
1C0780
3C0780
7FFFC0
FFFFE0
FFFFE0
7FFFE0
3C97C0
3C0780
1C0780
0C0700
040600
040400
ENDCHAR
STARTCHAR 2195
ENCODING 8597
SWIDTH 684 0
DWIDTH 19 0
BBX 16 19 2 0
BITMAP
03C0
07E0
0FF0
1FF8
7FFC
FFFF
03C0
03C0
03C0
03C0
03C0
03C0
03C0
FFFE
3FFC
1FF0
0FE0
07C0
0300
ENDCHAR
STARTCHAR 2196
ENCODING 8598
SWIDTH 684 0
DWIDTH 19 0
BBX 15 15 2 2
BITMAP
7FF0
FFE0
FFC0
FF80
FF00
7F80
7FC0
7FC0
73E0
61F8
40FC
007C
003E
001C
0008
ENDCHAR
STARTCHAR 2197
ENCODING 8599
SWIDTH 684 0
DWIDTH 19 0
BBX 15 15 2 2
BITMAP
0FFE
0FFE
07FE
03FE
01FE
01FE
03FE
07FE
0FDE
1F8E
3F06
7E02
FC00
3800
1000
ENDCHAR
STARTCHAR 2198
ENCODING 8600
SWIDTH 684 0
DWIDTH 19 0
BBX 14 15 3 2
BITMAP
6000
F000
F800
7E04
7E0C
1F1C
0FBC
07FC
03FC
01FC
03FC
07FC
0FFC
1FFC
00F8
ENDCHAR
STARTCHAR 2199
ENCODING 8601
SWIDTH 684 0
DWIDTH 19 0
BBX 15 15 2 2
BITMAP
0018
003E
007E
40FC
61F8
73F0
7FE0
7FC0
7F80
FF00
FF80
FFC0
FFE0
FFF0
7C00
ENDCHAR
STARTCHAR 2212
ENCODING 8722
SWIDTH 468 0
DWIDTH 13 0
BBX 13 4 0 8
BITMAP
FFF8
FFF8
7FF8
7FF8
ENDCHAR
STARTCHAR 2213
ENCODING 8723
SWIDTH 468 0
DWIDTH 13 0
BBX 13 17 0 1
BITMAP
7FF8
FFF8
FFF8
0000
0000
0780
0780
0780
0790
FFF8
FFF8
FFF8
7FF0
0700
0700
0700
0700
ENDCHAR
STARTCHAR 2214
ENCODING 8724
SWIDTH 468 0
DWIDTH 13 0
BBX 13 16 0 4
BITMAP
0300
0700
0700
0000
0700
0700
0700
0780
FFF8
FFF8
FFF8
FFF8
0780
0780
0780
0780
ENDCHAR
STARTCHAR 2215
ENCODING 8725
SWIDTH 396 0
DWIDTH 11 0
BBX 11 20 0 0
BITMAP
01E0
03E0
03E0
03C0
07C0
07C0
0780
0F80
0F80
0F00
0F00
1E00
1E00
1E00
3C00
3C00
7800
7800
7000
F000
ENDCHAR
ENDFONT
